<?xml version="1.0" standalone="no"?>
<!DOCTYPE svg PUBLIC "-//W3C//DTD SVG 1.1//EN" "http://www.w3.org/Graphics/SVG/1.1/DTD/svg11.dtd" >
<svg xmlns="http://www.w3.org/2000/svg" xmlns:xlink="http://www.w3.org/1999/xlink" version="1.1">
<metadata>
Created by FontForge 20170731 at Thu Oct 13 10:06:48 2022
 By Aleksey,,,
Futura was designed for Bauer company in 1927 by Paul Renner. This is a sans serif face based on geometrical shapes, representative of the aesthetics of the Bauhaus school of the 1920s-30s. Issued by the Bauer Foundry in a wide range of weights and widths, Futura became a very popular choice for text and display setting. Originally Cyrillic version of eight styles was developed at ParaType (ParaGraph) in 1995 by Vladimir Yefimov. Additional Cyrillic styles were developed in 2007-2009 by Isabella Chaeva. Simultaneously the old eight styles were partly revised to match the whole family. Now the new Futura is an uniform type system consisted of seven weights with corresponding obliques plus eight condensed styles. All these fonts are coordinated in letterforms, metrics, and weights to better working together.
</metadata>
<defs>
<font id="SunWorld-Oblique" horiz-adv-x="1024" >
  <font-face 
    font-family="Sun World Oblique"
    font-weight="400"
    font-style="oblique"
    font-stretch="normal"
    units-per-em="2048"
    panose-1="2 11 5 2 2 2 4 2 3 3"
    ascent="1563"
    descent="-485"
    x-height="850"
    cap-height="1366"
    bbox="-848 -512 2228 2085"
    underline-thickness="102"
    underline-position="-307"
    unicode-range="U+000D-FB02"
  />
<missing-glyph horiz-adv-x="477" 
 />
    <glyph glyph-name="uni0410.var.accented" unicode="&#x410;`" horiz-adv-x="1273" 
d="M1159 1714l-344 -239l-80 65l291 266zM977 385h-582l-211 -385h-168l805 1432l436 -1432h-167zM936 528l-164 547l-299 -547h463z" />
    <glyph glyph-name="uni0415.var.accented" unicode="&#x415;`" horiz-adv-x="987" 
d="M1016 1714l-344 -239l-80 65l291 266zM1034 1223h-557l-49 -406h541l-19 -143h-540l-64 -531h557l-18 -143h-709l168 1366h709z" />
    <glyph glyph-name="uni0418.var.accented" unicode="&#x418;`" horiz-adv-x="1454" 
d="M1249 1714l-344 -239l-80 65l291 266zM1253 1042l-1085 -1103l176 1427h152l-129 -1047l1085 1104l-174 -1423h-152z" />
    <glyph glyph-name="uni041E.var.accented" unicode="&#x41e;`" horiz-adv-x="1626" 
d="M1335 1714l-344 -239l-80 65l291 266zM811 -25q-196 0 -348 93t-225 251q-76 158 -52 363q24 200 140 362q120 163 288 252q175 93 369 93q197 0 346 -93q150 -91 227 -252q76 -158 52 -362q-24 -201 -140 -363q-119 -161 -288 -251q-175 -93 -369 -93zM967 1245
q-232 0 -414 -164q-185 -170 -211 -399q-30 -231 113 -399q141 -164 372 -164q229 0 414 164q181 166 211 399q27 234 -113 399q-144 164 -372 164z" />
    <glyph glyph-name="uni0423.var.accented" unicode="&#x423;`" horiz-adv-x="1163" 
d="M1104 1714l-344 -239l-80 65l291 266zM369 1366l327 -805l455 805h164l-785 -1366h-163l221 381l-404 985h185z" />
    <glyph glyph-name="uni042B.var.accented" unicode="&#x42b;`" horiz-adv-x="1454" 
d="M1249 1714l-344 -239l-80 65l291 266zM344 1366h152l-70 -567h184q59 0 142 -13q79 -9 149 -49q68 -36 109 -114q39 -74 24 -209q-24 -193 -157 -305q-136 -109 -336 -109h-365zM1446 1366l-168 -1366h-152l168 1366h152zM346 143h176q29 0 119 11q77 13 141 65
q32 22 60 74q28 48 37 121q6 50 -9 108q-12 58 -77 99q-43 24 -103 30q-78 4 -123 4h-159z" />
    <glyph glyph-name="uni042D.var.accented" unicode="&#x42d;`" horiz-adv-x="1320" 
d="M1047 1714l-345 -239l-79 65l290 266zM256 1253q131 81 248 107q126 29 213 29q206 0 346 -93q136 -88 203 -254q61 -159 37 -364q-24 -196 -125 -359q-98 -158 -260 -251t-365 -93q-86 0 -203 27q-114 26 -233 107l22 188q53 -65 144 -111q149 -67 286 -67
q199 0 369 141q168 137 203 375h-797l18 143h791q6 199 -115 332q-117 135 -327 135q-142 0 -285 -57q-64 -18 -193 -123z" />
    <glyph glyph-name="uni042E.var.accented" unicode="&#x42e;`" horiz-adv-x="2027" 
d="M1536 1714l-344 -239l-80 65l291 266zM635 797q70 256 280 424q204 168 482 168q303 0 475 -199q175 -196 137 -508q-37 -301 -260 -506q-227 -201 -524 -201q-203 0 -348 95q-139 90 -211 247q-68 146 -56 336h-202l-80 -653h-152l168 1366h152l-70 -569h209zM1380 1245
q-226 0 -403 -162q-177 -158 -207 -401q-30 -241 109 -401q134 -162 362 -162q227 0 404 162q178 158 208 401q30 242 -108 401q-140 162 -365 162z" />
    <glyph glyph-name="uni042F.var.accented" unicode="&#x42f;`" horiz-adv-x="1044" 
d="M1044 1714l-344 -239l-79 65l290 266zM537 606q-41 3 -107 23q-64 22 -111 63q-64 61 -79 135q-16 78 -7 144q12 93 46 159q41 73 83 113q65 62 127 84q64 27 127 33q58 6 101 6h319l-168 -1366h-151l74 598h-82l-463 -598h-185zM719 1223q-49 0 -119 -13
q-63 -8 -123 -59q-37 -37 -55 -74q-25 -48 -33 -102q-6 -73 10 -115q14 -42 45 -69q44 -35 99 -46q55 -12 104 -12h160l59 490h-147z" />
    <glyph glyph-name="uni0401.var.accented" unicode="&#x401;`" horiz-adv-x="987" 
d="M922 1731l-285 -242l-64 51l244 266zM375 1624q6 44 37 72q29 26 73 26q53 0 72 -32q22 -31 16 -66q-3 -43 -36 -72q-36 -28 -76 -28q-35 0 -62 24q-30 24 -24 76zM885 1624q6 36 33 66q28 32 79 32q45 0 68 -26q24 -27 18 -72q-7 -54 -41 -76q-34 -24 -69 -24
q-40 0 -68 28q-23 29 -20 72zM1034 1223h-557l-49 -406h541l-19 -143h-540l-64 -531h557l-18 -143h-709l168 1366h709z" />
    <glyph glyph-name="uni0430.var.accented" unicode="&#x430;`" horiz-adv-x="1077" 
d="M977 1294l-309 -276l-86 49l252 297zM895 850h147l-104 -850h-147l14 119q-45 -51 -119 -96q-79 -48 -188 -48t-197 52q-90 50 -135 149t-27 250q15 143 88 246q69 97 170 149q101 49 209 49q82 0 137 -24q53 -23 88 -58q39 -39 50 -59zM606 739q-108 0 -203 -80
q-94 -76 -112 -233q-19 -140 45 -227q63 -93 192 -93q134 0 222 97q85 94 100 221q15 107 -21 180q-35 69 -96 103q-57 32 -127 32z" />
    <glyph glyph-name="uni0435.var.accented" unicode="&#x435;`" horiz-adv-x="985" 
d="M930 1294l-309 -276l-86 49l251 297zM920 217q-48 -76 -121 -137q-132 -105 -295 -105q-106 0 -195 45q-90 47 -141 144q-49 98 -31 256q24 189 150 321q126 129 317 129q126 0 199 -49q76 -51 104 -106q34 -57 43 -146q11 -80 -2 -174h-661q-12 -135 55 -211
q69 -78 178 -78q105 0 182 62q66 54 103 117zM811 518q-6 96 -68 162q-62 59 -155 59q-94 0 -170 -61q-77 -62 -107 -160h500z" />
    <glyph glyph-name="uni0438.var.accented" unicode="&#x438;`" horiz-adv-x="1007" 
d="M942 1294l-309 -276l-86 49l252 297zM391 850l-69 -561l659 626l-113 -915h-147l70 567l-660 -626l113 909h147z" />
    <glyph glyph-name="uni043E.var.accented" unicode="&#x43e;`" horiz-adv-x="1073" 
d="M975 1294l-309 -276l-86 49l251 297zM535 -25q-193 0 -308 127q-111 123 -90 320q24 192 168 321q145 127 338 127q195 0 307 -127t88 -321q-21 -191 -168 -320q-145 -127 -335 -127zM627 739q-116 0 -217 -82q-103 -80 -121 -235q-12 -105 22 -174t99 -107
q65 -35 139 -35q77 0 149 35q73 37 125 107t64 174q12 108 -21 176q-34 69 -96 107q-64 34 -143 34z" />
    <glyph glyph-name="uni0443.var.accented" unicode="&#x443;`" horiz-adv-x="942" 
d="M909 1294l-309 -276l-86 49l252 297zM418 80l-297 770h168l225 -608l352 608h164l-786 -1321h-164z" />
    <glyph glyph-name="uni044B.var.accented" unicode="&#x44b;`" horiz-adv-x="1150" 
d="M1014 1294l-309 -276l-87 49l252 297zM244 850h147l-41 -326h152q64 0 127 -14q69 -12 121 -70q23 -23 38 -69q13 -46 7 -109q-9 -68 -39 -117q-26 -45 -62 -73q-62 -50 -129 -62q-72 -10 -129 -10h-297zM969 850h147l-104 -850h-148zM440 131q22 0 72 4q32 3 61 19
q19 10 41 34q23 27 29 74q3 24 -4 57q-10 31 -37 50q-22 17 -59 20q-46 4 -68 4h-139l-33 -262h137z" />
    <glyph glyph-name="uni044D.var.accented" unicode="&#x44d;`" horiz-adv-x="866" 
d="M768 1294l-309 -276l-86 49l252 297zM188 827q78 28 127 35q52 8 109 8q220 0 326 -127q105 -123 81 -323q-24 -194 -163 -318q-142 -127 -342 -127q-88 0 -154 17q-57 18 -84 31l18 143q56 -30 119 -45q61 -15 113 -15q117 0 211 70t125 193h-449l17 131h448
q-12 115 -90 178q-76 61 -186 61q-104 0 -244 -55z" />
    <glyph glyph-name="uni044E.var.accented" unicode="&#x44e;`" horiz-adv-x="1413" 
d="M1145 1294l-309 -276l-86 49l251 297zM502 502q46 156 145 241q133 127 336 127q194 0 309 -127q110 -128 86 -321q-21 -190 -166 -320q-145 -127 -338 -127q-132 0 -212 50q-79 49 -119 110q-60 74 -66 232h-145l-45 -367h-148l105 850h147l-43 -348h154zM967 739
q-117 0 -215 -82q-99 -83 -117 -235q-12 -108 20 -174q33 -68 97 -107q65 -35 137 -35q77 0 149 35q73 37 125 107t64 174q18 155 -62 235q-79 82 -198 82z" />
    <glyph glyph-name="uni044F.var.accented" unicode="&#x44f;`" horiz-adv-x="835" 
d="M856 1294l-309 -276l-86 49l252 297zM348 350q-2 0 -6 0.5l-12 1.5t-15 2q-26 6 -61 21q-32 11 -61 43q-24 24 -39 67q-15 44 -9 103q15 119 101 190q62 50 129 62q72 10 129 10h297l-105 -850h-147l43 342h-90l-285 -342h-176zM637 719h-137q-84 0 -135 -23
q-23 -13 -41 -37q-22 -28 -27 -67q-6 -70 41 -103q24 -15 61 -22q23 -2 60 -2h147z" />
    <glyph glyph-name="uni0451.var.accented" unicode="&#x451;`" horiz-adv-x="985" 
d="M881 1309l-308 -277l-61 35l252 297zM299 1126q3 41 39 72t76 31q39 0 67 -31q26 -29 23 -72q-6 -41 -41 -71q-36 -31 -76 -31t-68 31q-26 29 -20 71zM770 1126q3 41 39 72t76 31q39 0 67 -31q26 -29 23 -72q-6 -41 -41 -71q-36 -31 -76 -31q-39 0 -67 31q-27 30 -21 71z
M920 217q-48 -76 -121 -137q-53 -45 -127 -76q-79 -29 -168 -29q-113 0 -178 33q-68 34 -105 78q-68 80 -80 170q-13 96 -4 164q9 79 47 172q41 93 131 174q128 104 289 104q125 0 199 -47q74 -50 104 -108q34 -57 43 -146q11 -80 -2 -174h-661q-9 -86 12 -139
q27 -58 47 -76q59 -74 174 -74q105 0 182 62q66 54 103 117zM811 518q-10 97 -57 150q-22 26 -58 47q-40 24 -108 24q-41 0 -84 -14q-49 -15 -98 -61q-61 -55 -95 -146h500z" />
    <glyph glyph-name="fi" unicode="fi" horiz-adv-x="942" 
d="M379 715l-88 -715h-148l88 715h-81l16 135h82l39 319q9 71 24 123q15 57 51 101q32 43 107 86q68 39 190 39q49 0 136 -23q83 -21 129 -102q28 -61 28 -117q0 -58 -6 -107l-4 -34h-147l4 34q4 32 4 64q0 36 -17 70q-17 30 -49 47q-35 18 -96 18q-59 0 -100 -18
q-39 -17 -62 -47q-26 -37 -33 -66q-1 -8 -4 -21.5t-5 -25t-3 -21.5l-39 -319h209l-16 -135h-209zM907 850l-104 -850h-148l105 850h147z" />
    <glyph glyph-name="fl" unicode="fl" horiz-adv-x="942" 
d="M379 715l-88 -715h-148l88 715h-81l16 135h82l39 319q9 71 24 123q15 57 51 101q32 43 107 86q68 39 190 39q49 0 136 -23q83 -21 129 -102q28 -61 28 -117q0 -58 -6 -107l-143 -1169h-148l144 1169q4 32 4 64q0 36 -17 70q-17 30 -49 47q-35 18 -96 18q-59 0 -100 -18
q-39 -17 -62 -47q-26 -37 -33 -66q-1 -8 -4 -21.5t-5 -25t-3 -21.5l-39 -319h209l-16 -135h-209z" />
    <glyph glyph-name=".notdef" horiz-adv-x="477" 
 />
    <glyph glyph-name=".null" horiz-adv-x="0" 
 />
    <glyph glyph-name="nonmarkingreturn" horiz-adv-x="682" 
 />
    <glyph glyph-name="NULL" horiz-adv-x="0" 
 />
    <glyph glyph-name="NULL" horiz-adv-x="0" 
 />
    <glyph glyph-name="CR" unicode="&#xd;" horiz-adv-x="512" 
 />
    <glyph glyph-name="space" unicode=" " horiz-adv-x="477" 
 />
    <glyph glyph-name="exclam" unicode="!" horiz-adv-x="573" 
d="M248 276l133 1090h147l-133 -1090h-147zM195 82q6 44 38 72q35 30 76 30q44 0 68 -30q28 -31 22 -72q-6 -44 -39 -72q-34 -30 -75 -30q-43 0 -70 30q-26 32 -20 72z" />
    <glyph glyph-name="quotedbl" unicode="&#x22;" horiz-adv-x="675" 
d="M348 817h-110l41 549h163zM639 817h-111l41 549h164z" />
    <glyph glyph-name="numbersign" unicode="#" horiz-adv-x="1228" 
d="M657 0l117 424h-278l-117 -424h-150l117 424h-225l39 135h225l74 272h-226l37 136h226l110 399h150l-111 -399h279l110 399h150l-111 -399h225l-36 -136h-226l-73 -272h225l-39 -135h-225l-117 -424h-150zM887 831h-279l-73 -272h278z" />
    <glyph glyph-name="dollar" unicode="$" horiz-adv-x="1163" 
d="M971 1096q-21 54 -66 102q-49 43 -84 43l-55 -455q145 -56 223 -143q81 -103 66 -248q-18 -138 -119 -260q-100 -121 -268 -151l-23 -191h-123l23 182q-169 15 -250 111q-84 107 -96 242l151 41q6 -112 62 -174q76 -79 149 -76l70 561q-46 19 -103 51q-59 35 -106 82
q-47 50 -62 105q-12 55 -6 118q18 148 121 240q103 93 242 108l22 179h123l-22 -179q63 0 149 -57q73 -58 111 -151zM698 1241q-83 -15 -133 -74q-50 -56 -59 -129q-6 -71 37 -123q42 -45 106 -73zM686 127q91 28 145 102q57 79 66 160q8 56 -8 100q-17 42 -37 62
q-23 26 -51 43q-36 21 -56 29z" />
    <glyph glyph-name="percent" unicode="%" horiz-adv-x="1454" 
d="M1255 1393l76 -45l-966 -1375l-74 47zM535 1378q124 0 198 -86q77 -86 62 -211q-15 -127 -113 -211q-95 -86 -221 -86q-124 0 -201 86q-74 86 -59 211q15 127 112 211q95 86 222 86zM475 897q76 0 131 55q57 54 66 129q9 76 -35 129q-41 56 -117 56q-72 0 -129 -54
q-58 -55 -67 -131q-9 -79 34 -131q44 -53 117 -53zM1161 580q125 0 199 -86q76 -85 61 -211q-16 -128 -112 -211q-95 -86 -222 -86q-123 0 -200 86q-75 87 -60 211q15 126 113 211q95 86 221 86zM1102 98q75 0 131 56q56 53 65 129q9 79 -32 129q-43 55 -119 55
q-73 0 -129 -53q-59 -56 -68 -131t35 -131q45 -54 117 -54z" />
    <glyph glyph-name="ampersand" unicode="&#x26;" horiz-adv-x="1302" 
d="M1288 500q-69 -82 -198 -203l192 -297h-188l-125 190q-101 -90 -226 -153q-124 -62 -239 -62q-168 0 -268 109q-100 106 -82 270q15 114 65 181q54 70 92 102q63 54 133 98q76 50 109 66q4 2 8 6q-57 87 -82 156q-25 70 -16 137q9 74 49 137q45 70 113 109q73 43 170 43
q93 0 155 -41q62 -43 84 -103q26 -66 17 -131q-7 -53 -39 -113q-30 -64 -119 -135l-7.5 -5t-7 -5t-4.5 -4q-12 -8 -14 -10t-12 -8.5t-17 -10.5q-14 -12 -59 -45l240 -366q114 105 176 180zM696 889l99 69q65 47 86 84q24 45 26 74q9 72 -35 107q-40 34 -96 34
q-60 0 -112 -43q-49 -43 -58 -106q-3 -48 8 -76q13 -34 31 -57v-2zM637 694q-152 -88 -211 -141q-32 -22 -72 -72q-36 -42 -49 -125q-12 -101 47 -172q57 -69 166 -69q75 0 148 37q84 41 135 79q63 47 90 72z" />
    <glyph glyph-name="quotesingle" unicode="'" horiz-adv-x="385" 
d="M348 817h-110l41 549h163z" />
    <glyph glyph-name="parenleft" unicode="(" horiz-adv-x="602" 
d="M649 1456q-81 -158 -147 -354q-79 -239 -115 -516q-30 -252 -12 -500q20 -217 61 -375l-137 -59q-42 177 -61 307q-17 143 -17 156q-12 248 15 475q10 91 40 239q32 147 82 293q75 202 170 394z" />
    <glyph glyph-name="parenright" unicode=")" horiz-adv-x="602" 
d="M446 1516q49 -188 72 -394q16 -161 10 -293q-6 -133 -18 -239q-27 -227 -100 -475q-15 -44 -56 -156q-53 -134 -137 -307l-121 59q92 192 152 375q80 252 110 500q34 265 13 516q-22 223 -62 354z" />
    <glyph glyph-name="asterisk" unicode="*" horiz-adv-x="1163" 
d="M674 1239l22 254h140l-43 -254l249 88l27 -129l-254 -70l133 -198l-121 -80l-114 211l-168 -211l-101 80l183 198l-238 70l60 129z" />
    <glyph glyph-name="plus" unicode="+" 
d="M160 750h370l43 352h148l-43 -352h371l-17 -136h-370l-44 -352h-147l43 352h-371z" />
    <glyph glyph-name="comma" unicode="," horiz-adv-x="561" 
d="M242 201l129 -49l-265 -463l-90 39z" />
    <glyph glyph-name="hyphen" unicode="-" horiz-adv-x="655" 
d="M166 512h450l-18 -152h-451z" />
    <glyph glyph-name="period" unicode="." horiz-adv-x="466" 
d="M141 82q6 43 39 72q34 30 76 30q44 0 68 -30q28 -31 22 -72q-6 -44 -39 -72q-35 -30 -76 -30q-42 0 -69 30q-27 33 -21 72z" />
    <glyph glyph-name="slash" unicode="/" horiz-adv-x="1212" 
d="M1243 1554l113 -61l-1286 -1899l-113 58z" />
    <glyph glyph-name="zero" unicode="0" horiz-adv-x="1163" 
d="M580 -25q-82 0 -170 48q-96 50 -156 157q-113 212 -76 502q38 297 199 502q91 110 194 157q102 48 181 48t170 -48q90 -47 155 -157q113 -212 76 -502q-38 -297 -199 -502q-91 -110 -194 -157q-102 -48 -180 -48zM735 1249q-58 0 -121 -32q-70 -36 -133 -119
q-62 -82 -102 -199q-37 -110 -49 -217q-12 -112 -4 -217q9 -109 53 -199q46 -85 104 -119q57 -32 113 -32t121 32q70 36 133 119q65 89 102 199t49 217q13 118 5 217q-9 107 -54 199q-46 85 -104 119q-57 32 -113 32z" />
    <glyph glyph-name="one" unicode="1" horiz-adv-x="1163" 
d="M694 1223h-229l98 143h301l-168 -1366h-151z" />
    <glyph glyph-name="two" unicode="2" horiz-adv-x="1163" 
d="M102 0l570 575q10 10 24 24.5t33.5 36t34.5 36.5q65 69 90 102q55 63 76 117q19 45 26 92q15 117 -53 191q-63 75 -186 75q-147 0 -242 -121q-50 -59 -65 -161h-152q41 202 137 282q47 49 131 97q82 43 209 43q180 0 289 -115q105 -117 84 -293q-19 -143 -145 -293
q-116 -133 -205 -219l-8 -8l-326 -322h577l-16 -139h-883z" />
    <glyph glyph-name="three" unicode="3" horiz-adv-x="1163" 
d="M303 1028q21 116 88 201q49 66 117 104q57 32 121 45q71 11 98 11q127 0 209 -54t111 -137q33 -78 20 -178q-9 -76 -55 -160q-50 -89 -158 -143q31 -12 68 -41q41 -35 71 -103q32 -71 17 -186q-21 -192 -160 -301q-135 -111 -309 -111q-104 0 -209 54q-100 51 -144 182
q-20 68 -14 143h152q0 -83 32 -137q70 -102 199 -102q116 0 201 82q88 82 100 194q9 58 -12 125q-21 68 -94 105q-67 31 -152 28l16 135q85 -6 160 29q35 14 82 64q45 45 57 139q12 92 -34 162q-44 71 -170 71q-44 0 -90 -14q-52 -16 -97 -64q-52 -58 -69 -143h-152z" />
    <glyph glyph-name="four" unicode="4" horiz-adv-x="1163" 
d="M942 397h168l-18 -139h-168l-31 -258h-152l31 258h-700l997 1184zM791 397l73 604l-506 -604h433z" />
    <glyph glyph-name="five" unicode="5" horiz-adv-x="1163" 
d="M1133 1227h-439l-125 -295q33 8 86 8q208 0 312 -137q106 -133 82 -336q-17 -145 -101 -262q-83 -111 -203 -170q-123 -60 -253 -60q-168 0 -293 107q-57 51 -103 139l131 86q23 -62 80 -110q34 -34 88 -60q55 -22 123 -22q144 0 252 102q109 103 127 248q18 146 -66 242
q-82 94 -229 94q-26 0 -106 -17q-67 -15 -170 -77l280 659h543z" />
    <glyph glyph-name="six" unicode="6" horiz-adv-x="1163" 
d="M965 1313l-367 -436q58 18 123 18q195 0 303 -129q105 -129 84 -322q-27 -203 -174 -335q-152 -134 -352 -134q-161 0 -258 72q-97 73 -134 178q-38 103 -26 215q6 42 35 121q31 86 116 193l545 645zM596 115q141 0 242 94q101 90 116 231q18 138 -61 226q-81 90 -221 90
q-136 0 -240 -90q-99 -92 -117 -226q-15 -136 62 -231q76 -94 219 -94z" />
    <glyph glyph-name="seven" unicode="7" horiz-adv-x="1163" 
d="M1034 1227h-747l16 139h1004l-1086 -1399l-108 80z" />
    <glyph glyph-name="eight" unicode="8" horiz-adv-x="1163" 
d="M881 711q95 -45 137 -136q41 -84 29 -198q-15 -110 -72 -199q-60 -91 -158 -147q-100 -56 -237 -56q-140 0 -226 56q-86 59 -123 147q-35 92 -20 199q12 110 76 198q63 90 172 136q-153 108 -129 299q9 98 65 184q51 82 144 141q91 54 213 54q121 0 200 -54
q76 -55 111 -141q29 -83 20 -184q-24 -191 -202 -299zM676 772q99 0 176 68q74 68 86 168q15 111 -47 176t-156 65q-95 0 -172 -65t-92 -176q-12 -100 47 -168t158 -68zM596 115q120 0 201 75q83 74 98 191q12 116 -51 188q-69 72 -185 72q-114 0 -198 -72q-87 -75 -99 -188
q-15 -117 50 -191q66 -75 184 -75z" />
    <glyph glyph-name="nine" unicode="9" horiz-adv-x="1163" 
d="M367 51l366 436q-59 -18 -123 -18q-196 0 -303 131q-105 126 -84 320q23 200 174 335q149 134 353 134q157 0 258 -72q96 -72 133 -178q39 -105 24 -215q-2 -29 -32 -123q-29 -80 -117 -191l-545 -643zM735 1249q-140 0 -241 -94q-101 -90 -119 -231q-15 -139 63 -226
q81 -90 219 -90t242 90q100 92 115 226q18 135 -60 231q-76 94 -219 94z" />
    <glyph glyph-name="colon" unicode=":" horiz-adv-x="466" 
d="M225 768q6 43 39 72q35 30 76 30q44 0 68 -30q28 -31 22 -72q-6 -44 -39 -72q-35 -30 -76 -30q-43 0 -67 30q-29 32 -23 72zM141 78q3 41 39 72q34 30 76 30q41 0 68 -30q25 -28 22 -72q-7 -44 -41 -72q-36 -31 -74 -31q-41 0 -69 31q-27 33 -21 72z" />
    <glyph glyph-name="semicolon" unicode=";" horiz-adv-x="561" 
d="M254 768q6 43 39 72q34 30 76 30q43 0 67 -30q29 -32 23 -72q-6 -44 -39 -72q-34 -30 -76 -30q-44 0 -68 30q-28 31 -22 72zM242 201l129 -49l-265 -463l-90 39z" />
    <glyph glyph-name="less" unicode="&#x3c;" 
d="M999 344l-18 -147l-838 415l15 127l940 416l-19 -147l-770 -332z" />
    <glyph glyph-name="equal" unicode="=" 
d="M180 922h889l-16 -136h-889zM141 606h889l-16 -135h-889z" />
    <glyph glyph-name="greater" unicode="&#x3e;" 
d="M190 1008l19 147l838 -416l-15 -127l-940 -415l19 147l772 332z" />
    <glyph glyph-name="question" unicode="?" horiz-adv-x="892" 
d="M811 592q-15 -142 -111 -232q-26 -26 -82 -55q-53 -26 -139 -26q-79 0 -129 24q-48 25 -74 57q-24 24 -45 76t-12 135q15 111 72 168q63 60 131 86q90 33 125 41q21 4 55 17q62 21 94 53q37 43 43 65q15 43 17 62q3 34 -2 70q-3 36 -35 73q-12 15 -43 29q-25 14 -76 14
q-71 0 -135 -43q-34 -31 -47 -65q-20 -43 -23 -72q-5 -33 2 -86h-151q-3 46 2 90q6 47 28 109q21 58 78 112q41 41 105 68t155 27q65 0 127 -19q59 -21 105 -70q29 -29 51 -90q20 -56 8 -151q-6 -59 -26 -105q-21 -49 -68 -96q-77 -74 -170 -102q-8 -3 -24.5 -8.5
t-24.5 -8.5q-47 -11 -105 -34q-12 -5 -41 -23q-21 -12 -49 -43q-20 -29 -26 -78q-6 -39 4 -65q10 -25 22 -41q11 -14 37 -27q23 -10 60 -10q64 0 104 37q27 24 45 61q19 51 21 76h147zM354 78q3 41 39 72q35 30 76 30t68 -30q25 -28 22 -72q-7 -44 -41 -72q-36 -31 -74 -31
q-41 0 -69 31q-27 33 -21 72z" />
    <glyph glyph-name="at" unicode="@" horiz-adv-x="1501" 
d="M1133 1006h106q-76 -222 -109 -330q-43 -142 -49 -180l-2 -17q-3 -15 0 -37t17 -39q12 -18 47 -18q46 0 108 47q60 48 109 135q48 89 63 209q18 155 -43 268q-59 117 -176 179q-114 63 -266 63q-257 0 -453 -178q-199 -178 -229 -432q-12 -95 6 -203q18 -105 80 -197
q61 -88 176 -147q111 -57 289 -57q66 0 184 16q116 18 256 78l19 -94q-137 -61 -256 -78q-123 -21 -217 -21q-316 0 -498 197q-184 196 -143 508q34 296 266 502q229 204 530 204q177 0 312 -75q138 -74 210 -211q73 -134 52 -320q-18 -142 -82 -252q-61 -108 -148 -170
q-82 -61 -164 -61q-63 0 -100 37q-36 39 -33 100q-16 -20 -47 -51q-35 -35 -92 -64q-56 -30 -135 -30q-131 0 -197 96q-67 98 -49 233q21 169 135 291q113 125 275 125q93 0 143 -47t62 -111zM758 397q108 0 184 101q75 100 90 225q15 107 -35 154q-48 45 -116 45
q-107 0 -191 -93q-82 -97 -96 -208q-12 -112 39 -166q52 -58 125 -58z" />
    <glyph glyph-name="A" unicode="A" horiz-adv-x="1273" 
d="M977 385h-582l-211 -385h-168l805 1432l436 -1432h-167zM936 528l-164 547l-299 -547h463z" />
    <glyph glyph-name="B" unicode="B" horiz-adv-x="1085" 
d="M590 1366q63 0 143 -14q88 -12 160 -72q23 -19 45 -51q27 -44 39 -92q13 -59 4 -140q-5 -40 -39 -127q-34 -76 -129 -141q137 -41 182 -143q47 -103 35 -201t-61 -174q-56 -81 -115 -121q-93 -64 -178 -76q-83 -14 -160 -14h-340l168 1366h246zM422 766h115q39 0 104 12
q63 11 123 62q55 49 70 153q9 83 -19 131q-30 47 -74 68q-47 21 -86 27q-58 4 -59 4h-119zM346 143h174q50 0 129 11q61 9 117 47q98 64 113 188q11 78 -21 131q-29 48 -72 70q-62 41 -225 41h-155z" />
    <glyph glyph-name="C" unicode="C" horiz-adv-x="1323" 
d="M1352 1065q-65 75 -164 127q-109 53 -227 53q-239 0 -414 -166q-178 -166 -205 -403q-24 -185 47 -309q72 -126 191 -187t243 -61q142 0 262 63q68 33 107 64q28 19 65 51l-22 -188q-127 -80 -240 -107q-114 -27 -188 -27q-305 0 -481 203q-177 205 -140 500
q37 307 267 508q229 203 534 203q41 0 105 -9q58 -6 135 -37q70 -26 147 -90z" />
    <glyph glyph-name="D" unicode="D" horiz-adv-x="1294" 
d="M344 1366h279q59 0 151 -10q88 -10 168 -43q85 -34 164 -107q83 -72 139 -209q52 -131 31 -315q-18 -145 -70 -246q-49 -96 -114 -170q-68 -72 -121 -108q-96 -77 -217 -119q-116 -39 -301 -39h-277zM346 143h133q82 0 187 21q105 20 219 102q89 67 151 168
q66 104 84 248q30 247 -110 393q-139 148 -400 148h-133z" />
    <glyph glyph-name="E" unicode="E" horiz-adv-x="987" 
d="M1034 1223h-557l-49 -406h541l-19 -143h-540l-64 -531h557l-18 -143h-709l168 1366h709z" />
    <glyph glyph-name="F" unicode="F" horiz-adv-x="888" 
d="M948 1223h-471l-49 -404h455l-17 -143h-454l-84 -676h-152l168 1366h623z" />
    <glyph glyph-name="G" unicode="G" horiz-adv-x="1552" 
d="M965 686h569l-4 -33q-12 -111 -62 -227q-47 -118 -122 -205q-16 -23 -91 -88q-62 -54 -180 -108q-112 -50 -266 -50q-306 0 -481 205q-179 204 -142 502q38 300 265 502q230 205 534 205q93 0 205 -31q102 -26 196 -105q93 -83 138 -161l-125 -103q-49 85 -111 141
q-35 35 -119 78q-75 37 -198 37q-248 0 -424 -164q-179 -166 -205 -401q-24 -185 47 -311q67 -124 189 -187q120 -63 249 -63q139 0 256 63q118 62 191 166q50 65 80 195h-406z" />
    <glyph glyph-name="H" unicode="H" horiz-adv-x="1355" 
d="M428 811h700l68 555h152l-168 -1366h-152l82 668h-700l-82 -668h-152l168 1366h152z" />
    <glyph glyph-name="I" unicode="I" horiz-adv-x="503" 
d="M496 1366l-168 -1366h-152l168 1366h152z" />
    <glyph glyph-name="J" unicode="J" horiz-adv-x="626" 
d="M618 1366l-120 -983q-7 -64 -33 -170q-24 -86 -90 -152q-38 -38 -96 -63q-64 -23 -132 -23q-149 0 -231 101l98 119q67 -76 146 -76q64 0 106 39q43 40 58 98q10 41 22 123l121 987h151z" />
    <glyph glyph-name="K" unicode="K" horiz-adv-x="1163" 
d="M424 780l653 586h205l-717 -637l570 -729h-209l-482 627l-45 -39l-71 -588h-152l168 1366h152z" />
    <glyph glyph-name="L" unicode="L" horiz-adv-x="733" 
d="M496 1366l-150 -1223h377l-18 -143h-529l168 1366h152z" />
    <glyph glyph-name="M" unicode="M" horiz-adv-x="1767" 
d="M129 0l403 1442l383 -1153l678 1155l35 -1444h-155l-13 950l-588 -1007l-335 1007l-252 -950h-156z" />
    <glyph glyph-name="N" unicode="N" horiz-adv-x="1568" 
d="M176 0l174 1423l928 -1116l131 1059h152l-177 -1427l-927 1116l-129 -1055h-152z" />
    <glyph glyph-name="O" unicode="O" horiz-adv-x="1626" 
d="M811 -25q-196 0 -348 93t-225 251q-76 158 -52 363q24 200 140 362q120 163 288 252q175 93 369 93q197 0 346 -93q150 -91 227 -252q76 -158 52 -362q-24 -201 -140 -363q-119 -161 -288 -251q-175 -93 -369 -93zM967 1245q-232 0 -414 -164q-185 -170 -211 -399
q-30 -231 113 -399q141 -164 372 -164q229 0 414 164q181 166 211 399q27 234 -113 399q-144 164 -372 164z" />
    <glyph glyph-name="P" unicode="P" horiz-adv-x="933" 
d="M592 1366q104 0 186 -18q83 -18 146 -78q67 -71 82 -148q14 -76 8 -145q-12 -95 -68 -184q-56 -92 -155 -144q-101 -55 -256 -55h-134l-73 -594h-152l168 1366h248zM418 737h125q134 0 221 66q83 65 98 182q12 110 -35 160q-48 48 -118 63q-67 15 -119 15h-113z" />
    <glyph glyph-name="Q" unicode="Q" horiz-adv-x="1626" 
d="M1237 100q-31 -22 -90 -49q-55 -28 -143 -53q-94 -23 -193 -23q-196 0 -348 93q-148 90 -225 251q-76 158 -52 363q24 200 140 362q120 163 288 252q175 93 369 93t346 -93q150 -91 227 -252q76 -158 52 -362q-14 -120 -60 -219q-46 -101 -94 -162q-47 -60 -98 -108
l174 -207h-197zM1260 303q20 18 69 78q36 47 76 125q36 79 47 176q27 235 -115 399q-141 164 -370 164q-232 0 -414 -164q-185 -170 -211 -399q-30 -231 113 -399q141 -164 372 -164q67 0 146 18q85 22 170 72l-289 340h197z" />
    <glyph glyph-name="R" unicode="R" horiz-adv-x="1028" 
d="M563 1366q69 0 160 -12q88 -12 162 -64q58 -40 92 -116q35 -77 20 -187q-18 -156 -125 -260q-108 -105 -264 -117l359 -610h-185l-342 598h-39l-73 -598h-152l168 1366h219zM418 733h96q138 0 229 66q88 67 103 184q6 61 -10 111q-15 52 -74 90q-44 24 -92 33
q-52 6 -101 6h-92z" />
    <glyph glyph-name="S" unicode="S" horiz-adv-x="1060" 
d="M922 1096q-22 56 -68 102q-25 21 -53 33q-35 14 -94 14q-103 0 -175 -57q-69 -57 -81 -154q-6 -38 4 -67q12 -32 32 -52q55 -55 134 -86l122 -57q118 -47 197 -129q86 -102 68 -248q-24 -188 -162 -305q-139 -115 -322 -115q-61 0 -145 23q-76 22 -139 88
q-88 111 -97 242l152 41q6 -110 61 -174q39 -45 86 -60q53 -16 101 -16q94 0 159 39q68 43 103 100q39 64 45 131q12 92 -47 160q-54 51 -152 94l-116 57q-2 1 -5.5 3.5t-5.5 3.5q-74 26 -157 106q-44 47 -60 94q-17 50 -8 129q18 156 139 256q126 97 287 97q127 0 213 -62
q79 -60 113 -151z" />
    <glyph glyph-name="T" unicode="T" horiz-adv-x="872" 
d="M662 1223l-150 -1223h-152l150 1223h-332l19 143h815l-19 -143h-331z" />
    <glyph glyph-name="U" unicode="U" horiz-adv-x="1323" 
d="M393 528q-6 -40 -10 -116q-3 -63 14 -113q15 -56 64 -102q36 -36 98 -58q59 -20 117 -20q59 0 123 20q62 20 112 58q58 46 88 102q32 57 41 113q13 62 21 116l102 838h152l-109 -879q-9 -81 -37 -168q-23 -78 -88 -159q-164 -185 -422 -185q-262 0 -376 185
q-46 76 -52 159q-5 71 5 168l108 879h152z" />
    <glyph glyph-name="V" unicode="V" horiz-adv-x="1138" 
d="M352 1366l256 -1042l514 1042h168l-731 -1448l-375 1448h168z" />
    <glyph glyph-name="W" unicode="W" horiz-adv-x="1961" 
d="M352 1366l236 -1024l561 1094l272 -1094l525 1024h168l-750 -1438l-268 1094l-564 -1094l-348 1438h168z" />
    <glyph glyph-name="X" unicode="X" horiz-adv-x="1032" 
d="M518 707l-285 659h173l219 -514l354 514h172l-457 -659l310 -707h-173l-243 561l-387 -561h-172z" />
    <glyph glyph-name="Y" unicode="Y" horiz-adv-x="1085" 
d="M537 588l-353 778h176l273 -610l428 610h176l-549 -778l-72 -588h-151z" />
    <glyph glyph-name="Z" unicode="Z" horiz-adv-x="1097" 
d="M322 143h725l-19 -143h-979l895 1223h-649l18 143h904z" />
    <glyph glyph-name="bracketleft" unicode="[" horiz-adv-x="593" 
d="M477 1358l-192 -1571h196l-16 -135h-344l227 1841h344l-18 -135h-197z" />
    <glyph glyph-name="backslash" unicode="\" horiz-adv-x="1222" 
d="M1055 -406l-830 1899l125 61l830 -1902z" />
    <glyph glyph-name="bracketright" unicode="]" horiz-adv-x="593" 
d="M256 -213l193 1571h-197l18 135h344l-227 -1841h-344l16 135h197z" />
    <glyph glyph-name="asciicircum" unicode="^" 
d="M305 748h-160l439 618h192l287 -618h-160l-237 505z" />
    <glyph glyph-name="underscore" unicode="_" 
d="M-16 -139h1024l-17 -131h-1024z" />
    <glyph glyph-name="grave" unicode="`" horiz-adv-x="1228" 
d="M406 1270l145 63l164 -270l-88 -45z" />
    <glyph glyph-name="a" unicode="a" horiz-adv-x="1077" 
d="M895 850h147l-104 -850h-147l14 119q-45 -51 -119 -96q-79 -48 -188 -48t-197 52q-90 50 -135 149t-27 250q15 143 88 246q69 97 170 149q101 49 209 49q82 0 137 -24q53 -23 88 -58q39 -39 50 -59zM606 739q-108 0 -203 -80q-94 -76 -112 -233q-19 -140 45 -227
q63 -93 192 -93q134 0 222 97q85 94 100 221q15 107 -21 180q-35 69 -96 103q-57 32 -127 32z" />
    <glyph glyph-name="b" unicode="b" horiz-adv-x="1077" 
d="M287 0h-148l185 1493h147l-94 -762q59 62 117 92q59 30 110 39q44 8 80 8q134 0 217 -65q83 -63 121 -168q35 -103 20 -217q-11 -109 -73 -217q-62 -103 -160 -164q-98 -64 -227 -64q-104 0 -172 41t-109 103zM575 106q129 0 216 93q85 94 100 221q12 104 -19 176
q-34 69 -92 106t-129 37q-67 0 -137 -37t-121 -106q-51 -73 -63 -174q-15 -133 51 -223q66 -93 194 -93z" />
    <glyph glyph-name="c" unicode="c" horiz-adv-x="897" 
d="M881 612q-53 74 -123 101q-68 26 -129 26q-118 0 -219 -82q-103 -80 -121 -235q-12 -105 22 -174t99 -107q65 -35 139 -35q63 0 145 31q83 38 146 103l-21 -177q-73 -47 -149 -69q-74 -19 -131 -19q-200 0 -312 127q-114 126 -90 318q24 195 170 323q145 127 340 127
q100 0 164 -28q61 -29 90 -54z" />
    <glyph glyph-name="d" unicode="d" horiz-adv-x="1077" 
d="M975 1493h147l-184 -1493h-147l14 119q-45 -51 -119 -96q-79 -48 -188 -48t-197 52q-90 50 -135 149t-27 250q15 143 88 246q69 97 170 149q101 49 209 49q82 0 137 -24q53 -23 88 -58q39 -39 50 -59zM606 739q-108 0 -203 -80q-94 -76 -112 -233q-19 -140 45 -227
q63 -93 192 -93q134 0 222 97q85 94 100 221q15 107 -21 180q-35 69 -96 103q-57 32 -127 32z" />
    <glyph glyph-name="e" unicode="e" horiz-adv-x="985" 
d="M920 217q-48 -76 -121 -137q-132 -105 -295 -105q-106 0 -195 45q-90 47 -141 144q-49 98 -31 256q24 189 150 321q126 129 317 129q126 0 199 -49q76 -51 104 -106q34 -57 43 -146q11 -80 -2 -174h-661q-12 -135 55 -211q69 -78 178 -78q105 0 182 62q66 54 103 117z
M811 518q-6 96 -68 162q-62 59 -155 59q-94 0 -170 -61q-77 -62 -107 -160h500z" />
    <glyph glyph-name="f" unicode="f" horiz-adv-x="491" 
d="M379 715l-88 -715h-148l88 715h-81l16 135h82l45 371q10 63 29 125q20 63 84 114q74 56 176 56q34 0 65 -7q26 -7 37 -12l-18 -143q-47 18 -95 18q-27 0 -51 -8q-29 -10 -47 -37q-14 -19 -24 -57q-2 -11 -6 -34.5t-5 -31.5l-43 -354h209l-16 -135h-209z" />
    <glyph glyph-name="g" unicode="g" horiz-adv-x="1077" 
d="M895 850h147l-102 -830q-8 -57 -31 -159q-21 -88 -92 -174q-54 -66 -147 -113q-89 -45 -211 -45q-108 0 -180 35q-73 36 -109 80q-44 47 -66 112q-24 68 -12 162h146q-12 -110 45 -176q42 -52 92 -66q56 -16 102 -16q158 0 240 119q40 56 51 108q18 68 23 109l14 123
q-45 -51 -119 -96q-79 -48 -188 -48q-99 0 -164 33q-63 27 -115 82q-40 43 -67 125q-31 84 -13 211q15 124 62 205q44 76 100 125q135 114 305 114q190 0 275 -141zM606 739q-68 0 -117 -24q-39 -18 -83 -56q-59 -53 -84 -118t-31 -115q-8 -49 2 -123q9 -71 63 -127
q27 -31 72 -51q46 -19 100 -19q116 0 197 72q107 93 125 246q18 154 -59 240q-69 75 -185 75z" />
    <glyph glyph-name="h" unicode="h" horiz-adv-x="962" 
d="M324 1493h147l-92 -741q21 25 49 47q38 30 86 49q55 22 123 22q75 0 137 -30q63 -29 92 -86q26 -51 29 -103q0 -55 -6 -125l-66 -526h-147l63 522q4 27 4 80q-3 39 -22 76q-34 61 -133 61q-40 0 -78 -14q-35 -10 -80 -51q-48 -54 -65 -119q-21 -74 -23 -111l-55 -444
h-148z" />
    <glyph glyph-name="i" unicode="i" horiz-adv-x="425" 
d="M252 1171q6 46 41 74q36 31 76 31q43 0 71 -31q27 -33 21 -74q-3 -42 -39 -73t-78 -31t-70 31q-25 28 -22 73zM391 850l-104 -850h-148l105 850h147z" />
    <glyph glyph-name="j" unicode="j" horiz-adv-x="425" 
d="M252 1171q6 46 41 74q36 31 76 31q43 0 71 -31q27 -33 21 -74q-3 -42 -39 -73t-78 -31t-70 31q-25 28 -22 73zM391 850l-162 -1321h-147l162 1321h147z" />
    <glyph glyph-name="k" unicode="k" horiz-adv-x="864" 
d="M471 1493l-119 -958l350 315h193l-410 -365l371 -485h-192l-293 387l-41 -37l-43 -350h-148l185 1493h147z" />
    <glyph glyph-name="l" unicode="l" horiz-adv-x="425" 
d="M471 1493l-184 -1493h-148l185 1493h147z" />
    <glyph glyph-name="m" unicode="m" horiz-adv-x="1402" 
d="M244 850h147l-10 -90q88 110 223 110q76 0 121 -28q44 -25 68 -60q19 -31 26 -49q49 63 101 92q55 31 98 37q41 8 74 8q127 0 178 -57t57 -135q9 -78 0 -139l-65 -539h-148l64 516q4 33 4 100q-3 50 -31 89q-27 34 -98 34q-87 0 -129 -45q-50 -50 -66 -108
q-23 -79 -27 -113l-57 -473h-147l61 506q6 34 6 88q0 50 -26 100q-26 45 -105 45q-82 0 -129 -47q-44 -46 -65 -112q-20 -71 -25 -117l-57 -463h-148z" />
    <glyph glyph-name="n" unicode="n" horiz-adv-x="962" 
d="M244 850h147l-12 -98q21 25 49 47q38 30 86 49q55 22 123 22q75 0 137 -30q63 -29 92 -86q26 -51 29 -103q0 -55 -6 -125l-66 -526h-147l63 522q4 27 4 80q-3 39 -22 76q-34 61 -133 61q-40 0 -78 -14q-35 -10 -80 -51q-48 -54 -65 -119q-21 -74 -23 -111l-55 -444h-148z
" />
    <glyph glyph-name="o" unicode="o" horiz-adv-x="1073" 
d="M535 -25q-193 0 -308 127q-111 123 -90 320q24 192 168 321q145 127 338 127q195 0 307 -127t88 -321q-21 -191 -168 -320q-145 -127 -335 -127zM627 739q-116 0 -217 -82q-103 -80 -121 -235q-12 -105 22 -174t99 -107q65 -35 139 -35q77 0 149 35q73 37 125 107t64 174
q12 108 -21 176q-34 69 -96 107q-64 34 -143 34z" />
    <glyph glyph-name="p" unicode="p" horiz-adv-x="1077" 
d="M229 -471h-147l162 1321h147l-14 -119q59 62 117 92q59 30 110 39q44 8 80 8q134 0 217 -65q83 -63 121 -168q35 -103 20 -217q-11 -109 -73 -217q-62 -103 -160 -164q-98 -64 -227 -64q-104 0 -172 41t-109 103zM575 106q129 0 216 93q85 94 100 221q12 104 -19 176
q-34 69 -92 106t-129 37q-67 0 -137 -37t-121 -106q-51 -73 -63 -174q-15 -133 51 -223q66 -93 194 -93z" />
    <glyph glyph-name="q" unicode="q" horiz-adv-x="1077" 
d="M895 850h147l-161 -1321h-148l72 590q-45 -51 -119 -96q-79 -48 -188 -48t-197 52q-90 50 -135 149t-27 250q15 143 88 246q69 97 170 149q101 49 209 49q82 0 137 -24q53 -23 88 -58q39 -39 50 -59zM606 739q-108 0 -203 -80q-94 -76 -112 -233q-19 -140 45 -227
q63 -93 192 -93q134 0 222 97q85 94 100 221q15 107 -21 180q-35 69 -96 103q-57 32 -127 32z" />
    <glyph glyph-name="r" unicode="r" horiz-adv-x="606" 
d="M244 850h147l-12 -92q14 18 37 39q29 29 69 51q46 22 101 22q69 0 127 -34l-86 -134q-53 29 -82 29q-44 0 -76 -16q-30 -15 -49 -37q-25 -22 -43 -74q-24 -60 -35 -155l-55 -449h-148z" />
    <glyph glyph-name="s" unicode="s" horiz-adv-x="720" 
d="M569 653q-24 86 -108 86q-38 0 -74 -22q-33 -23 -39 -74q-6 -44 23 -70q39 -28 98 -51q168 -74 197 -131q22 -31 28 -67q6 -34 0 -70q-15 -133 -110 -207q-93 -72 -215 -72q-5 0 -76 11q-59 10 -113 55q-58 46 -82 152l133 53q2 -19 21 -56q14 -31 49 -59q31 -25 84 -25
q72 0 113 44q40 50 43 92q9 60 -27 88q-33 29 -92 53q-144 62 -193 125q-19 32 -22 61q-3 32 0 64q12 112 92 174q75 63 184 63q28 0 64 -8q44 -9 84 -41q40 -34 67 -104z" />
    <glyph glyph-name="t" unicode="t" horiz-adv-x="438" 
d="M379 715l-88 -715h-148l88 715h-90l17 135h90l37 307h147l-37 -307h148l-17 -135h-147z" />
    <glyph glyph-name="u" unicode="u" horiz-adv-x="954" 
d="M330 354q0 -1 -6 -92q0 -50 24 -90q21 -29 47 -45q34 -21 94 -21q63 0 101 21q33 17 57 45q34 37 47 90q9 36 17 92l61 496h148l-64 -512q-9 -74 -31 -139q-21 -61 -77 -117q-67 -61 -138 -82q-77 -25 -135 -25q-61 0 -131 25q-66 21 -117 82q-43 55 -49 117q-7 67 2 139
l64 512h147z" />
    <glyph glyph-name="v" unicode="v" horiz-adv-x="868" 
d="M285 850l184 -574l324 574h163l-528 -905l-307 905h164z" />
    <glyph glyph-name="w" unicode="w" horiz-adv-x="1396" 
d="M285 850l180 -578l346 643l184 -643l326 578h164l-535 -909l-182 634l-342 -634l-305 909h164z" />
    <glyph glyph-name="x" unicode="x" horiz-adv-x="929" 
d="M434 455l-260 395h180l185 -289l258 289h180l-361 -397l297 -453h-180l-225 346l-311 -346h-181z" />
    <glyph glyph-name="y" unicode="y" horiz-adv-x="942" 
d="M418 80l-297 770h168l225 -608l352 608h164l-786 -1321h-164z" />
    <glyph glyph-name="z" unicode="z" horiz-adv-x="942" 
d="M328 135h590l-17 -135h-885l703 715h-496l17 135h790z" />
    <glyph glyph-name="braceleft" unicode="{" horiz-adv-x="1026" 
d="M662 805q-1 -16 -15 -78q-13 -44 -29 -68q-45 -57 -110 -86q61 -30 88 -86q12 -27 12 -67q2 -26 -2 -78l-49 -387q-4 -47 -2 -74q0 -39 25 -67q28 -25 67 -31q41 -6 55 -6h31l-16 -125h-55q-46 0 -95 6q-54 9 -90 35q-60 45 -69 112q-7 79 0 125l49 402q9 74 -13 125
q-14 28 -38 45q-21 12 -44 12l15 119q22 0 47 14q24 12 49 43q34 49 43 125l49 399q5 53 31 125q24 66 96 113q44 26 99 35q53 6 98 6h55l-16 -125h-31q-13 0 -57 -6q-37 -6 -74 -31q-32 -28 -43 -67q-6 -27 -14 -74z" />
    <glyph glyph-name="bar" unicode="|" 
d="M627 1536h147l-252 -2048h-147z" />
    <glyph glyph-name="braceright" unicode="}" horiz-adv-x="1026" 
d="M608 1190q4 25 4 74q0 40 -24 67q-28 25 -68 31q-41 6 -55 6h-31l17 125h55q44 0 94 -6q50 -9 90 -35q62 -49 68 -113q8 -63 2 -125l-49 -399q-9 -74 10 -125q19 -32 41 -43q20 -14 43 -14l-14 -119q-24 0 -48 -12q-30 -19 -51 -45q-33 -54 -41 -125l-49 -402
q-9 -57 -33 -125q-25 -66 -94 -112q-44 -26 -98 -35q-55 -6 -98 -6h-56l17 125h30q16 0 56 6q38 5 75 31q33 29 41 67q12 37 15 74l49 387q2 23 14 78q8 35 29 67q44 56 108 86q-59 30 -86 86q-11 24 -14 68q0 28 4 78z" />
    <glyph glyph-name="asciitilde" unicode="~" 
d="M1087 686q-48 -86 -120 -149q-80 -80 -207 -80q-52 0 -98 18q-54 21 -93 41q-3 2 -10 5t-10 5q-39 21 -107 49q-46 17 -82 17q-60 0 -110 -41q-20 -15 -47 -49q-17 -22 -37 -58l-84 54q26 46 57 86q37 50 60 73q87 78 188 78q55 0 111 -18q41 -17 112 -51q3 -2 21 -11
q48 -25 82 -39q43 -16 84 -16q70 0 131 49q55 51 76 90z" />
    <glyph glyph-name="nbspace" unicode="&#xa0;" horiz-adv-x="477" 
 />
    <glyph glyph-name="exclamdown" unicode="&#xa1;" horiz-adv-x="573" 
d="M489 813q-7 -45 -38 -72q-37 -30 -76 -30q-43 0 -70 30q-26 32 -20 72q3 41 39 72q34 30 75 30t68 -30q25 -28 22 -72zM436 618l-133 -1089h-147l133 1089h147z" />
    <glyph glyph-name="cent" unicode="&#xa2;" horiz-adv-x="1163" 
d="M846 1143q119 -15 205 -80l-23 -176q-20 33 -76 76q-49 37 -123 49l-77 -627q80 12 139 51q66 44 98 78l-22 -176q-31 -22 -90 -49q-62 -25 -142 -37l-26 -223h-123l26 227q-150 24 -243 125q-47 51 -70 123q-27 76 -12 190q16 131 65 203q48 77 101 121q30 30 106 72
q66 34 162 49l24 202h123zM705 1006q-97 -17 -150 -70q-99 -85 -117 -240q-18 -136 62 -235q68 -68 129 -74z" />
    <glyph glyph-name="sterling" unicode="&#xa3;" horiz-adv-x="1163" 
d="M985 938l2 20q6 46 0 107q-3 58 -47 111q-21 28 -59 45q-41 20 -107 20q-58 0 -102 -18q-47 -18 -74 -45q-86 -71 -98 -181q-8 -61 8 -125q19 -65 45 -127q3 -7 18 -47l21 -57h258l-12 -115h-207q12 -67 6 -125q-12 -91 -82 -192l115 -45q12 -4 18 -8q72 -35 119 -35
q58 0 115 45q47 44 75 96l115 -74q-51 -91 -117 -139q-81 -72 -190 -72q-102 0 -172 37l-76 31q-66 26 -96 31q-33 8 -53 8q-26 0 -50 -8q-30 -6 -63 -29q-25 -18 -47 -43q-20 -23 -25 -31l-106 80q8 9 55 64q28 31 55 49q49 37 95 49q44 12 81 12q69 87 78 176q0 1 0.5 6.5
t1 15t0.5 19.5q0 36 -12 82h-229l12 115h176l-31 76q-35 81 -47 137q-18 63 -8 147q10 80 45 146q35 73 96 129q44 41 121 76q68 32 189 32q106 0 166 -32q66 -32 94 -70q42 -45 71 -133q25 -90 11 -193l-2 -18h-150z" />
    <glyph glyph-name="currency" unicode="&#xa4;" horiz-adv-x="1200" 
d="M440 1110q78 61 168 84q79 20 142 20q62 0 135 -20q80 -21 149 -84l217 193l72 -82l-217 -195q51 -74 63 -156q11 -73 5 -135q-6 -56 -37 -135q-28 -75 -103 -156l168 -192l-92 -82l-168 190q-89 -64 -168 -84q-81 -20 -143 -20t-135 20q-79 21 -148 84l-217 -190l-72 82
l217 192q-52 72 -65 156q-11 70 -4 135q6 55 37 135q30 79 104 156l-172 195l92 82zM647 387q148 0 258 98q111 94 129 250q18 154 -67 252q-90 96 -234 96q-142 0 -258 -96q-111 -99 -129 -252q-18 -155 68 -250q88 -98 233 -98z" />
    <glyph glyph-name="yen" unicode="&#xa5;" horiz-adv-x="1163" 
d="M868 786l-127 -180h394l-15 -114h-405l-60 -492h-151l59 492h-399l14 114h387l-82 180h-282l14 115h217l-211 465h178l273 -610l428 610h178l-330 -465h223l-14 -115h-289z" />
    <glyph glyph-name="brokenbar" unicode="&#xa6;" 
d="M627 1536h147l-90 -737h-147zM467 225h147l-92 -737h-147z" />
    <glyph glyph-name="section" unicode="&#xa7;" horiz-adv-x="1163" 
d="M938 1106l2 10q15 121 -45 193q-27 30 -64 39q-38 10 -63 10q-93 0 -160 -58q-67 -55 -76 -135q-9 -75 37 -127q17 -20 56 -45q46 -30 110 -53l25 -8q118 -36 207 -119q45 -51 57 -106q12 -61 4 -121q-5 -42 -22 -101q-19 -53 -60 -102q-42 -49 -100 -90q-62 -35 -66 -37
q83 -45 119 -113q34 -70 25 -151q-13 -82 -45 -139q-34 -61 -80 -101q-77 -64 -146 -82q-73 -18 -131 -18q-95 0 -155 31q-59 26 -95 71q-49 67 -55 140q-5 66 -2 116l2 21h148q-6 -44 4 -101q8 -51 37 -88q14 -21 45 -37q35 -18 92 -18q30 0 75 10q35 10 76 43
q67 58 76 146q9 77 -33 125q-25 28 -65 49q-45 22 -111 47l-8 4q-141 45 -217 131q-32 35 -51 96q-17 66 -6 142q12 101 77 186q72 91 166 125q-48 25 -100 92q-51 76 -39 166q9 79 47 145t88 107q106 92 266 92q137 0 230 -90q64 -70 73 -146q9 -73 0 -141l-2 -10h-147z
M680 797q-51 0 -94 -19q-39 -13 -74 -45q-24 -19 -51 -61q-24 -40 -33 -99q-6 -67 8 -102q16 -36 37 -57q61 -64 152 -64q92 0 168 64q69 60 81 159q12 84 -45 162q-20 23 -55 43q-40 19 -94 19z" />
    <glyph glyph-name="dieresis" unicode="&#xa8;" 
d="M371 1126q3 41 39 72t75 31q40 0 68 -31q25 -28 22 -72q-6 -42 -40 -71q-36 -31 -76 -31t-68 31q-26 29 -20 71zM727 1126q3 41 39 72t76 31q39 0 67 -31q26 -29 23 -72q-6 -41 -41 -71q-36 -31 -76 -31q-39 0 -67 31q-27 30 -21 71z" />
    <glyph glyph-name="copyright" unicode="&#xa9;" horiz-adv-x="1515" 
d="M135 682q24 195 139 356q120 164 289 256q173 95 365 95q191 0 342 -95q147 -95 225 -256q77 -160 53 -356q-24 -194 -139 -354q-120 -164 -289 -256q-173 -95 -364 -95q-193 0 -344 95q-150 97 -224 256q-77 160 -53 354zM1434 682q30 245 -123 420q-150 172 -398 172
q-244 0 -440 -172q-193 -175 -223 -420q-30 -242 121 -418q153 -172 399 -172q245 0 438 172q196 175 226 418zM1157 854q-47 65 -115 92t-120 27q-109 0 -205 -78q-97 -79 -115 -221q-12 -99 23 -164q28 -60 92 -98q59 -33 131 -33q74 0 149 35q71 34 123 90l-20 -166
q-80 -53 -148 -68q-63 -14 -116 -14q-183 0 -291 117q-105 117 -84 299q24 182 160 303q139 121 319 121q47 0 117 -17q62 -17 121 -61z" />
    <glyph glyph-name="ordfeminine" unicode="&#xaa;" horiz-adv-x="763" 
d="M707 1354h104l-68 -545h-104l8 65q-32 -35 -78 -57q-49 -24 -112 -24q-73 0 -119 24q-46 21 -72 53q-40 49 -49 103q-8 51 -2 106q9 78 41 135q29 51 66 80q75 72 208 72q49 0 103 -23q41 -18 65 -59zM522 1276q-30 0 -65 -12q-26 -8 -68 -41q-63 -69 -72 -146
q-12 -80 39 -143q54 -51 121 -51q75 0 131 53q60 54 72 143q9 86 -39 146q-42 51 -119 51zM729 682l-10 -86h-543l10 86h543z" />
    <glyph glyph-name="guillemotleft" unicode="&#xab;" horiz-adv-x="880" 
d="M492 135l-103 -74l-262 373l354 385l86 -76l-284 -309zM795 135l-103 -74l-262 373l354 385l86 -76l-284 -309z" />
    <glyph glyph-name="logicalnot" unicode="&#xac;" 
d="M813 0l51 416h-745l16 131h889l-68 -547h-143z" />
    <glyph glyph-name="softhyphen" unicode="&#xad;" horiz-adv-x="655" 
d="M166 512h450l-18 -152h-451z" />
    <glyph glyph-name="registered" unicode="&#xae;" horiz-adv-x="1515" 
d="M139 680q38 306 262 502q226 200 527 200t477 -200q176 -201 139 -502q-38 -303 -262 -502q-230 -201 -526 -201q-300 0 -477 201q-178 199 -140 502zM1430 680q30 251 -117 420q-146 168 -400 168t-440 -168q-189 -171 -219 -420q-30 -251 117 -420q146 -168 399 -168
q251 0 440 168q191 172 220 420zM940 297l-211 324l-39 -324h-110l94 766h139q8 0 70 -4q43 -3 96 -25q49 -18 80 -63q31 -48 22 -127q-12 -88 -73 -146t-152 -67l223 -334h-139zM741 719h45q38 0 74 8q42 6 72 33q31 25 37 80q9 60 -17 86t-65 32q-47 7 -74 7h-41z" />
    <glyph glyph-name="macron" unicode="&#xaf;" 
d="M346 1174h619l-15 -123h-618z" />
    <glyph glyph-name="degree" unicode="&#xb0;" horiz-adv-x="1009" 
d="M354 1087q15 120 107 203q89 80 211 80q121 0 192 -80q71 -83 56 -203q-15 -118 -105 -202q-92 -80 -213 -80t-192 80q-71 83 -56 202zM457 1087q-12 -95 43 -141q56 -47 114 -47q60 0 125 47q66 45 78 141t-43 142q-53 47 -115 47q-56 0 -124 -47q-66 -48 -78 -142z" />
    <glyph glyph-name="plusminus" unicode="&#xb1;" 
d="M170 842h371l43 350h147l-43 -350h371l-17 -135h-370l-43 -351h-148l43 351h-370zM100 272h889l-16 -135h-889z" />
    <glyph glyph-name="twosuperior" unicode="&#xb2;" horiz-adv-x="716" 
d="M133 547l342 346q7 10 21 20q45 50 47 52q2 3 17.5 19.5t23.5 27.5q12 15 34 51q19 32 25 74q8 58 -29 104q-34 43 -108 43q-33 0 -76 -16q-37 -15 -65 -54q-31 -52 -37 -98h-103q18 112 84 178q59 56 111 70q55 14 96 14q116 0 180 -67q66 -66 54 -176q-9 -82 -86 -174
q-71 -82 -117 -125l-15 -13l-180 -182h334l-10 -94h-543z" />
    <glyph glyph-name="threesuperior" unicode="&#xb3;" horiz-adv-x="716" 
d="M248 1153q12 67 55 131q54 64 113 78q62 16 98 16q93 0 139 -37q48 -39 62 -88t8 -94q0 -17 -12 -51q-5 -23 -37 -72q-23 -33 -78 -59q64 -28 82 -84t12 -115q-12 -99 -90 -174q-78 -72 -201 -72q-101 0 -153 43q-51 45 -66 99q-10 58 -8 96h102q0 -50 19 -82
q17 -27 41 -43q27 -18 74 -18q70 0 118 45q49 43 58 110q6 50 -13 86q-19 31 -51 47q-43 18 -92 15l10 94q33 0 51 2q36 9 46 14q27 13 53 43q25 31 28 74q6 48 -18 88q-23 39 -96 39q-45 0 -70 -14q-22 -10 -41 -29q-11 -13 -26 -43q-14 -37 -15 -45h-102z" />
    <glyph glyph-name="acute" unicode="&#xb4;" 
d="M950 1294l-309 -276l-86 49l252 297z" />
    <glyph glyph-name="mu" unicode="&#xb5;" horiz-adv-x="1071" 
d="M82 -471l162 1321h147l-51 -424q-6 -38 -6 -111q3 -70 37 -131q33 -48 84 -63q49 -15 86 -15q76 0 131 37q60 39 92 84q43 60 55 121q15 58 21 96l49 406h147l-104 -850h-148l23 176q-45 -89 -117 -143q-70 -58 -168 -58q-77 0 -125 31q-49 37 -67 68q-20 29 -29 51
l-72 -596h-147z" />
    <glyph glyph-name="paragraph" unicode="&#xb6;" horiz-adv-x="1187" 
d="M426 -195l104 838h-30q-160 0 -271 105q-34 40 -53 94q-20 57 -8 151q9 96 53 168q41 68 94 109q90 65 189 80q106 16 160 16h548l-14 -119h-123l-178 -1442h-127l178 1442h-217l-178 -1442h-127z" />
    <glyph glyph-name="periodcentered" unicode="&#xb7;" horiz-adv-x="409" 
d="M160 696q6 52 49 92q45 39 98 39t86 -39q35 -41 29 -92q-6 -50 -51 -92q-42 -39 -97 -39q-53 0 -86 39q-34 37 -28 92z" />
    <glyph glyph-name="cedilla" unicode="&#xb8;" 
d="M659 -162l-237 -262l-94 49l204 269z" />
    <glyph glyph-name="onesuperior" unicode="&#xb9;" horiz-adv-x="716" 
d="M496 1272h-160l61 94h217l-100 -819h-106z" />
    <glyph glyph-name="ordmasculine" unicode="&#xba;" horiz-adv-x="765" 
d="M551 1366q120 0 211 -88q68 -77 53 -199q-9 -71 -41 -121q-30 -50 -59 -73q-38 -38 -97 -62q-56 -26 -137 -26q-71 0 -123 22q-51 22 -82 60q-74 80 -59 202q6 42 27 95q25 52 71 98q34 34 97 63t139 29zM539 1276q-53 0 -93 -19q-38 -17 -57 -36q-61 -61 -70 -142
q-6 -47 7 -86q12 -35 30 -53q50 -53 136 -53q38 0 79 14q36 13 74 43q56 50 68 137q12 94 -41 144q-9 13 -45 35q-37 16 -88 16zM745 682l-10 -86h-555l10 86h555z" />
    <glyph glyph-name="guillemotright" unicode="&#xbb;" horiz-adv-x="880" 
d="M195 745l102 74l262 -373l-354 -385l-86 76l284 309zM498 745l102 74l262 -373l-354 -385l-86 76l285 309z" />
    <glyph glyph-name="onequarter" unicode="&#xbc;" horiz-adv-x="1556" 
d="M1348 1393l73 -45l-964 -1375l-72 47zM496 1272h-160l61 94h217l-100 -819h-106zM1421 250h101l-13 -94h-100l-18 -156h-103l19 156h-420l610 708zM1319 250l39 317l-271 -317h232z" />
    <glyph glyph-name="onehalf" unicode="&#xbd;" horiz-adv-x="1556" 
d="M1266 1393l73 -45l-964 -1375l-72 47zM496 1272h-160l61 94h217l-100 -819h-106zM905 0l342 346q3 4 6.5 7.5t8 7.5t6.5 6q8 9 24.5 26t22.5 25q2 3 17.5 19.5t23.5 27.5q4 4 37 51q19 32 22 74q8 58 -26 104q-37 43 -111 43q-34 0 -74 -16q-39 -15 -67 -53
q-31 -52 -37 -99h-103q21 116 84 179q58 55 113 69q52 14 94 14q116 0 180 -67q69 -69 54 -176q-9 -82 -86 -174q-71 -82 -117 -125l-12 -13l-181 -182h334l-12 -94h-543z" />
    <glyph glyph-name="threequarters" unicode="&#xbe;" horiz-adv-x="1556" 
d="M1389 1393l73 -45l-964 -1375l-72 47zM274 770q3 -67 29 -96q47 -47 115 -47q20 0 47 6q33 10 61 35q49 40 58 114q9 83 -37 117q-27 21 -58 27q-46 4 -53 4h-8l10 94h8q22 0 56 6q27 5 65 31q18 15 31 37q15 24 18 59q6 36 -4 62q-9 21 -22 34q-23 19 -45 25
q-24 6 -43 6q-71 0 -96 -31q-45 -42 -56 -100h-102q21 103 86 162q27 27 69 43q44 20 115 20q66 0 105 -20q34 -14 61 -45q17 -20 33 -60q15 -37 6 -94q-6 -57 -37 -106q-46 -61 -90 -76q51 -25 78 -74q16 -32 16 -65q3 -34 0 -60q-12 -97 -90 -172q-44 -41 -96 -57
q-56 -17 -103 -17q-45 0 -94 15q-54 15 -92 59q-49 58 -43 164h102zM1421 250h101l-13 -94h-100l-18 -156h-103l19 156h-420l610 708zM1319 250l39 317l-271 -317h232z" />
    <glyph glyph-name="questiondown" unicode="&#xbf;" horiz-adv-x="892" 
d="M649 813q-6 -44 -39 -72q-38 -30 -75 -30q-43 0 -70 30q-27 33 -21 72q3 41 39 72q35 30 76 30t68 -30q25 -28 22 -72zM190 301q18 145 113 231q31 31 82 56q53 26 139 26q78 0 127 -24q42 -20 76 -58q25 -25 45 -75q22 -54 10 -135q-12 -109 -71 -168q-65 -62 -131 -86
q-83 -32 -123 -41q-23 -5 -56 -17q-61 -20 -94 -53q-34 -34 -45 -66q-11 -31 -14 -61t0 -70q6 -39 35 -73q18 -18 43 -29q28 -14 77 -14q70 0 134 43q34 30 49 65q17 35 20 72q6 40 0 86h152q3 -35 -4 -90q-7 -54 -29 -109q-22 -61 -76 -112q-46 -43 -106 -68
q-65 -27 -156 -27q-62 0 -127 19q-60 22 -102 69q-30 30 -52 91t-10 151q5 49 29 105q23 54 65 96q75 72 170 102q8 3 25 8.5t25 8.5q44 10 104 34q13 4 43 23q26 16 47 43q24 34 29 78q3 45 -4 65q-10 26 -25 41q-13 16 -35 27q-27 10 -61 10q-65 0 -105 -37
q-26 -26 -43 -61q-15 -35 -22 -76h-148z" />
    <glyph glyph-name="Agrave" unicode="&#xc0;" horiz-adv-x="1273" 
d="M571 1751l146 64l164 -271l-88 -45zM977 385h-582l-211 -385h-168l805 1432l436 -1432h-167zM936 528l-164 547l-299 -547h463z" />
    <glyph glyph-name="Aacute" unicode="&#xc1;" horiz-adv-x="1273" 
d="M1133 1751l-281 -252l-78 45l230 271zM977 385h-582l-211 -385h-168l805 1432l436 -1432h-167zM936 528l-164 547l-299 -547h463z" />
    <glyph glyph-name="Acircumflex" unicode="&#xc2;" horiz-adv-x="1273" 
d="M647 1481l-76 67l283 226l229 -226l-92 -67l-153 151zM977 385h-582l-211 -385h-168l805 1432l436 -1432h-167zM936 528l-164 547l-299 -547h463z" />
    <glyph glyph-name="Atilde" unicode="&#xc3;" horiz-adv-x="1273" 
d="M545 1583q18 25 35 45q4 4 17.5 18.5t20.5 20.5q51 45 113 45q36 0 66 -12q18 -5 57 -27q16 -8 18 -10q40 -27 82 -27q11 0 31 4q16 8 27 19q14 14 24 29q20 24 23 28l67 -63q-19 -37 -57 -72q-36 -33 -70 -45q-38 -10 -61 -10q-34 0 -64 12q-10 3 -57 27q-1 0 -2 1t-2 1
q-51 32 -94 32q-37 0 -60 -26q-25 -25 -43 -49q0 -2 -2 -4zM977 385h-582l-211 -385h-168l805 1432l436 -1432h-167zM936 528l-164 547l-299 -547h463z" />
    <glyph glyph-name="Adieresis" unicode="&#xc4;" horiz-adv-x="1273" 
d="M541 1606q6 45 41 73q36 31 77 31q42 0 70 -31q27 -33 21 -73q-3 -43 -39 -74t-78 -31t-70 31q-25 28 -22 74zM930 1606q6 45 41 73q36 31 78 31q41 0 69 -31q26 -33 21 -73q-3 -43 -39 -74t-78 -31t-70 31q-25 28 -22 74zM977 385h-582l-211 -385h-168l805 1432
l436 -1432h-167zM936 528l-164 547l-299 -547h463z" />
    <glyph glyph-name="Aring" unicode="&#xc5;" horiz-adv-x="1273" 
d="M670 1675q9 73 69 127q62 53 133 53q74 0 121 -53q46 -52 37 -127t-67 -127q-62 -53 -134 -53q-73 0 -120 53q-48 54 -39 127zM766 1677q-6 -35 18 -59q21 -27 56 -27q36 0 63 27q29 23 35 59q3 37 -20 60q-20 26 -56 26q-37 0 -63 -26q-30 -24 -33 -60zM977 385h-582
l-211 -385h-168l805 1432l436 -1432h-167zM936 528l-164 547l-299 -547h463z" />
    <glyph glyph-name="AE" unicode="&#xc6;" horiz-adv-x="1843" 
d="M987 383h-581l-209 -383h-168l776 1366h600l41 -143h-551l121 -406h540l41 -143h-536l158 -531h555l41 -143h-713zM946 526l-160 535l-297 -535h457z" />
    <glyph glyph-name="Ccedilla" unicode="&#xc7;" horiz-adv-x="1323" 
d="M1352 1065q-65 75 -164 127q-109 53 -227 53q-239 0 -414 -166q-178 -166 -205 -403q-24 -185 47 -309q72 -126 191 -187t243 -61q142 0 262 63q68 33 107 64q28 19 65 51l-22 -188q-127 -80 -240 -107q-114 -27 -188 -27q-305 0 -481 203q-177 205 -140 500
q37 307 267 508q229 203 534 203q41 0 105 -9q58 -6 135 -37q70 -26 147 -90zM868 -168l-245 -262l-97 53l207 271z" />
    <glyph glyph-name="Egrave" unicode="&#xc8;" horiz-adv-x="987" 
d="M428 1751l145 64l164 -271l-88 -45zM1034 1223h-557l-49 -406h541l-19 -143h-540l-64 -531h557l-18 -143h-709l168 1366h709z" />
    <glyph glyph-name="Eacute" unicode="&#xc9;" horiz-adv-x="987" 
d="M989 1751l-280 -252l-78 45l229 271zM1034 1223h-557l-49 -406h541l-19 -143h-540l-64 -531h557l-18 -143h-709l168 1366h709z" />
    <glyph glyph-name="Ecircumflex" unicode="&#xca;" horiz-adv-x="987" 
d="M504 1481l-76 67l283 226l229 -226l-92 -67l-154 151zM1034 1223h-557l-49 -406h541l-19 -143h-540l-64 -531h557l-18 -143h-709l168 1366h709z" />
    <glyph glyph-name="Edieresis" unicode="&#xcb;" horiz-adv-x="987" 
d="M430 1606q6 45 41 73q36 31 78 31q41 0 69 -31q26 -33 21 -73q-3 -43 -39 -74t-78 -31q-41 0 -69 31q-26 29 -23 74zM819 1606q6 45 41 73q36 31 78 31t70 -31q26 -32 20 -73q-3 -43 -39 -74t-78 -31q-41 0 -69 31q-26 29 -23 74zM1034 1223h-557l-49 -406h541l-19 -143
h-540l-64 -531h557l-18 -143h-709l168 1366h709z" />
    <glyph glyph-name="Igrave" unicode="&#xcc;" horiz-adv-x="503" 
d="M186 1751l146 64l164 -271l-88 -45zM496 1366l-168 -1366h-152l168 1366h152z" />
    <glyph glyph-name="Iacute" unicode="&#xcd;" horiz-adv-x="503" 
d="M748 1751l-281 -252l-78 45l229 271zM496 1366l-168 -1366h-152l168 1366h152z" />
    <glyph glyph-name="Icircumflex" unicode="&#xce;" horiz-adv-x="503" 
d="M254 1477l-96 84l315 243l258 -243l-117 -84l-161 155zM494 1366l-168 -1366h-152l168 1366h152z" />
    <glyph glyph-name="Idieresis" unicode="&#xcf;" horiz-adv-x="503" 
d="M227 1606q6 40 35 73q31 31 72 31q39 0 61 -31q22 -36 17 -73q-3 -37 -35 -74q-31 -31 -70 -31t-61 31q-22 28 -19 74zM485 1606q5 34 35 73q31 31 72 31q39 0 61 -31q23 -32 17 -73q-3 -42 -35 -74q-31 -31 -70 -31t-61 31q-22 32 -19 74zM496 1366l-168 -1366h-152
l168 1366h152z" />
    <glyph glyph-name="Eth" unicode="&#xd0;" horiz-adv-x="1294" 
d="M260 688h-176l16 131h176l68 547h279q59 0 151 -10q88 -10 168 -43q85 -34 164 -107q83 -72 139 -209q52 -131 31 -315q-18 -145 -70 -246q-49 -96 -114 -170q-68 -72 -121 -108q-96 -77 -217 -119q-116 -39 -301 -39h-277zM428 819h279l-17 -131h-278l-66 -545h133
q82 0 187 21q105 20 219 102q89 67 151 168q66 104 84 248q30 247 -110 393q-139 148 -400 148h-133z" />
    <glyph glyph-name="Ntilde" unicode="&#xd1;" horiz-adv-x="1568" 
d="M1305 1653q-24 -50 -64 -84q-42 -36 -82 -51q-44 -13 -69 -13q-35 0 -64 13q-20 7 -61 28q-1 1 -3.5 2t-3.5 2q-1 0 -3 1t-3 1q-56 39 -104 39q-35 0 -64 -26q-27 -24 -43 -64l-82 74q29 56 74 92q28 25 60 41q32 14 75 14q39 0 74 -12q53 -27 57 -29l5 -2q1 0 2 -1t2 -1
q40 -22 53 -28q29 -13 51 -13q30 0 70 29q28 28 43 59zM176 0l174 1423l928 -1116l131 1059h152l-177 -1427l-927 1116l-129 -1055h-152z" />
    <glyph glyph-name="Ograve" unicode="&#xd2;" horiz-adv-x="1626" 
d="M748 1751l145 64l164 -271l-88 -45zM811 -25q-196 0 -348 93t-225 251q-76 158 -52 363q24 200 140 362q120 163 288 252q175 93 369 93q197 0 346 -93q150 -91 227 -252q76 -158 52 -362q-24 -201 -140 -363q-119 -161 -288 -251q-175 -93 -369 -93zM967 1245
q-232 0 -414 -164q-185 -170 -211 -399q-30 -231 113 -399q141 -164 372 -164q229 0 414 164q181 166 211 399q27 234 -113 399q-144 164 -372 164z" />
    <glyph glyph-name="Oacute" unicode="&#xd3;" horiz-adv-x="1626" 
d="M1309 1751l-281 -252l-78 45l230 271zM811 -25q-196 0 -348 93t-225 251q-76 158 -52 363q24 200 140 362q120 163 288 252q175 93 369 93q197 0 346 -93q150 -91 227 -252q76 -158 52 -362q-24 -201 -140 -363q-119 -161 -288 -251q-175 -93 -369 -93zM967 1245
q-232 0 -414 -164q-185 -170 -211 -399q-30 -231 113 -399q141 -164 372 -164q229 0 414 164q181 166 211 399q27 234 -113 399q-144 164 -372 164z" />
    <glyph glyph-name="Ocircumflex" unicode="&#xd4;" horiz-adv-x="1626" 
d="M823 1481l-75 67l282 226l230 -226l-93 -67l-153 151zM811 -25q-196 0 -348 93t-225 251q-76 158 -52 363q24 200 140 362q120 163 288 252q175 93 369 93q197 0 346 -93q150 -91 227 -252q76 -158 52 -362q-24 -201 -140 -363q-119 -161 -288 -251q-175 -93 -369 -93z
M967 1245q-232 0 -414 -164q-185 -170 -211 -399q-30 -231 113 -399q141 -164 372 -164q229 0 414 164q181 166 211 399q27 234 -113 399q-144 164 -372 164z" />
    <glyph glyph-name="Otilde" unicode="&#xd5;" horiz-adv-x="1626" 
d="M721 1583q18 25 35 45q5 5 13 13.5t14.5 15t11.5 10.5q51 45 112 45q36 0 66 -12q18 -5 57 -27q18 -9 19 -10q40 -27 81 -27q11 0 31 4q16 8 27 19q14 14 24 29q20 24 23 28l68 -63q-18 -35 -58 -72q-37 -34 -69 -45q-38 -10 -62 -10q-33 0 -63 12q-13 5 -58 27
q-1 0 -2 1t-2 1q-51 32 -94 32q-36 0 -59 -26q-25 -25 -43 -49q0 -2 -2 -4zM811 -25q-196 0 -348 93t-225 251q-76 158 -52 363q24 200 140 362q120 163 288 252q175 93 369 93q197 0 346 -93q150 -91 227 -252q76 -158 52 -362q-24 -201 -140 -363q-119 -161 -288 -251
q-175 -93 -369 -93zM967 1245q-232 0 -414 -164q-185 -170 -211 -399q-30 -231 113 -399q141 -164 372 -164q229 0 414 164q181 166 211 399q27 234 -113 399q-144 164 -372 164z" />
    <glyph glyph-name="Odieresis" unicode="&#xd6;" horiz-adv-x="1626" 
d="M711 1606q6 45 41 73q36 31 77 31q42 0 70 -31q27 -33 21 -73q-3 -43 -39 -74t-78 -31t-70 31q-25 28 -22 74zM1100 1606q6 45 41 73q36 31 78 31q41 0 69 -31q26 -33 21 -73q-3 -43 -39 -74t-78 -31t-70 31q-25 28 -22 74zM811 -25q-196 0 -348 93t-225 251
q-76 158 -52 363q24 200 140 362q120 163 288 252q175 93 369 93q197 0 346 -93q150 -91 227 -252q76 -158 52 -362q-24 -201 -140 -363q-119 -161 -288 -251q-175 -93 -369 -93zM967 1245q-232 0 -414 -164q-185 -170 -211 -399q-30 -231 113 -399q141 -164 372 -164
q229 0 414 164q181 166 211 399q27 234 -113 399q-144 164 -372 164z" />
    <glyph glyph-name="multiply" unicode="&#xd7;" 
d="M500 682l-269 305l109 96l268 -305l342 305l84 -96l-342 -305l256 -293l-106 -96l-258 293l-328 -293l-86 96z" />
    <glyph glyph-name="Oslash" unicode="&#xd8;" horiz-adv-x="1626" 
d="M1501 1137q25 -31 55 -93q29 -57 48 -149t4 -213q-24 -203 -142 -363q-115 -160 -286 -251q-175 -93 -369 -93q-169 0 -276 52q-108 54 -162 108l-185 -162l-88 103l183 162q-72 111 -90 231q-19 121 -7 213q24 201 142 362q116 162 286 252q178 93 369 93q89 0 207 -31
q112 -29 221 -119l182 164l90 -103zM1280 1137q-27 27 -109 69q-74 39 -204 39q-232 0 -414 -164q-185 -170 -211 -399q-15 -132 12 -215q27 -78 60 -127zM502 236q94 -75 178 -95q93 -22 147 -22q230 0 412 164q183 165 213 399q9 78 -6 170q-12 95 -74 184z" />
    <glyph glyph-name="Ugrave" unicode="&#xd9;" horiz-adv-x="1323" 
d="M596 1751l145 64l164 -271l-88 -45zM393 528q-6 -40 -10 -116q-3 -63 14 -113q15 -56 64 -102q36 -36 98 -58q59 -20 117 -20q59 0 123 20q62 20 112 58q58 46 88 102q32 57 41 113q13 62 21 116l102 838h152l-109 -879q-9 -81 -37 -168q-23 -78 -88 -159
q-164 -185 -422 -185q-262 0 -376 185q-46 76 -52 159q-5 71 5 168l108 879h152z" />
    <glyph glyph-name="Uacute" unicode="&#xda;" horiz-adv-x="1323" 
d="M1157 1751l-280 -252l-78 45l229 271zM393 528q-6 -40 -10 -116q-3 -63 14 -113q15 -56 64 -102q36 -36 98 -58q59 -20 117 -20q59 0 123 20q62 20 112 58q58 46 88 102q32 57 41 113q13 62 21 116l102 838h152l-109 -879q-9 -81 -37 -168q-23 -78 -88 -159
q-164 -185 -422 -185q-262 0 -376 185q-46 76 -52 159q-5 71 5 168l108 879h152z" />
    <glyph glyph-name="Ucircumflex" unicode="&#xdb;" horiz-adv-x="1323" 
d="M664 1477l-97 84l316 243l258 -243l-117 -84l-162 155zM393 528q-6 -40 -10 -116q-3 -63 14 -113q15 -56 64 -102q36 -36 98 -58q59 -20 117 -20q59 0 123 20q62 20 112 58q58 46 88 102q32 57 41 113q13 62 21 116l102 838h152l-109 -879q-9 -81 -37 -168
q-23 -78 -88 -159q-164 -185 -422 -185q-262 0 -376 185q-46 76 -52 159q-5 71 5 168l108 879h152z" />
    <glyph glyph-name="Udieresis" unicode="&#xdc;" horiz-adv-x="1323" 
d="M559 1606q6 45 41 73q36 31 78 31t70 -31q26 -32 20 -73q-3 -43 -39 -74t-78 -31q-41 0 -69 31q-26 29 -23 74zM948 1606q6 45 41 73q36 31 78 31t70 -31q26 -32 20 -73q-3 -43 -39 -74t-78 -31q-41 0 -69 31q-26 29 -23 74zM393 528q-6 -40 -10 -116q-3 -63 14 -113
q15 -56 64 -102q36 -36 98 -58q59 -20 117 -20q59 0 123 20q62 20 112 58q58 46 88 102q32 57 41 113q13 62 21 116l102 838h152l-109 -879q-9 -81 -37 -168q-23 -78 -88 -159q-164 -185 -422 -185q-262 0 -376 185q-46 76 -52 159q-5 71 5 168l108 879h152z" />
    <glyph glyph-name="Yacute" unicode="&#xdd;" horiz-adv-x="1085" 
d="M1038 1751l-280 -252l-78 45l229 271zM537 588l-353 778h176l273 -610l428 610h176l-549 -778l-72 -588h-151z" />
    <glyph glyph-name="Thorn" unicode="&#xde;" horiz-adv-x="933" 
d="M496 1366l-25 -205h96q101 0 187 -18q82 -18 145 -78q65 -68 80 -147q18 -78 8 -146q-13 -101 -65 -184q-55 -89 -156 -144t-258 -55h-133l-47 -389h-152l168 1366h152zM393 532h125q135 0 219 66q86 65 101 182q12 107 -35 160q-49 49 -119 64q-66 14 -119 14h-112z" />
    <glyph glyph-name="germandbls" unicode="&#xdf;" horiz-adv-x="1089" 
d="M156 0l88 715h-144l17 135h143l33 274q10 62 35 140q27 83 102 155q42 42 107 68q67 31 163 31q67 0 138 -23q61 -23 112 -80q47 -56 60 -121q10 -68 2 -120q-2 -35 -21 -93q-10 -43 -47 -92q-36 -45 -67 -67q-41 -29 -58 -35q106 -38 166 -113q41 -44 64 -112
q26 -71 14 -183q-15 -107 -62 -194q-49 -85 -116 -146q-52 -52 -160 -106q-100 -49 -242 -58l17 144q183 21 286 121q51 48 76 96q34 57 43 135q10 88 -12 141q-21 62 -55 99q-57 57 -125 77q-74 23 -127 23l14 131q42 0 98 16q50 17 93 54q36 36 51 80q15 43 18 71
q9 74 -6 115q-11 41 -35 61q-15 18 -49 33q-28 14 -86 14q-60 0 -106 -22q-37 -20 -68 -55q-39 -51 -53 -115q-19 -80 -23 -127l-131 -1067h-147z" />
    <glyph glyph-name="agrave" unicode="&#xe0;" horiz-adv-x="1077" 
d="M410 1235l145 63l164 -270l-88 -45zM895 850h147l-104 -850h-147l14 119q-45 -51 -119 -96q-79 -48 -188 -48t-197 52q-90 50 -135 149t-27 250q15 143 88 246q69 97 170 149q101 49 209 49q82 0 137 -24q53 -23 88 -58q39 -39 50 -59zM606 739q-108 0 -203 -80
q-94 -76 -112 -233q-19 -140 45 -227q63 -93 192 -93q134 0 222 97q85 94 100 221q15 107 -21 180q-35 69 -96 103q-57 32 -127 32z" />
    <glyph glyph-name="aacute" unicode="&#xe1;" horiz-adv-x="1077" 
d="M971 1235l-281 -252l-78 45l230 270zM895 850h147l-104 -850h-147l14 119q-45 -51 -119 -96q-79 -48 -188 -48t-197 52q-90 50 -135 149t-27 250q15 143 88 246q69 97 170 149q101 49 209 49q82 0 137 -24q53 -23 88 -58q39 -39 50 -59zM606 739q-108 0 -203 -80
q-94 -76 -112 -233q-19 -140 45 -227q63 -93 192 -93q134 0 222 97q85 94 100 221q15 107 -21 180q-35 69 -96 103q-57 32 -127 32z" />
    <glyph glyph-name="acircumflex" unicode="&#xe2;" horiz-adv-x="1077" 
d="M485 965l-75 67l282 225l230 -225l-93 -67l-153 151zM895 850h147l-104 -850h-147l14 119q-45 -51 -119 -96q-79 -48 -188 -48t-197 52q-90 50 -135 149t-27 250q15 143 88 246q69 97 170 149q101 49 209 49q82 0 137 -24q53 -23 88 -58q39 -39 50 -59zM606 739
q-108 0 -203 -80q-94 -76 -112 -233q-19 -140 45 -227q63 -93 192 -93q134 0 222 97q85 94 100 221q15 107 -21 180q-35 69 -96 103q-57 32 -127 32z" />
    <glyph glyph-name="atilde" unicode="&#xe3;" horiz-adv-x="1077" 
d="M383 1067q18 25 35 45q5 5 13 13.5t14.5 15t11.5 10.5q51 45 112 45q39 0 66 -12q18 -5 57 -27q18 -9 19 -10q41 -27 82 -27q14 0 30 4q14 7 29 19q1 2 9 11.5t13 16.5q13 15 23 29l68 -63q-18 -35 -58 -72q-37 -34 -69 -45q-38 -10 -60 -10q-30 0 -65 12q-13 5 -58 27
q-1 0 -2 1t-2 1q-51 32 -94 32q-36 0 -59 -26q-25 -25 -43 -49q0 -2 -2 -4zM895 850h147l-104 -850h-147l14 119q-45 -51 -119 -96q-79 -48 -188 -48t-197 52q-90 50 -135 149t-27 250q15 143 88 246q69 97 170 149q101 49 209 49q82 0 137 -24q53 -23 88 -58q39 -39 50 -59
zM606 739q-108 0 -203 -80q-94 -76 -112 -233q-19 -140 45 -227q63 -93 192 -93q134 0 222 97q85 94 100 221q15 107 -21 180q-35 69 -96 103q-57 32 -127 32z" />
    <glyph glyph-name="adieresis" unicode="&#xe4;" horiz-adv-x="1077" 
d="M406 1126q3 41 38 72q36 31 76 31t68 -31q25 -28 22 -72q-6 -41 -41 -71q-36 -31 -75 -31q-40 0 -68 31q-26 29 -20 71zM762 1126q3 41 39 72t76 31q39 0 67 -31q26 -29 23 -72q-6 -41 -41 -71q-36 -31 -76 -31t-68 31q-26 29 -20 71zM895 850h147l-104 -850h-147l14 119
q-45 -51 -119 -96q-79 -48 -188 -48t-197 52q-90 50 -135 149t-27 250q15 143 88 246q69 97 170 149q101 49 209 49q82 0 137 -24q53 -23 88 -58q39 -39 50 -59zM606 739q-108 0 -203 -80q-94 -76 -112 -233q-19 -140 45 -227q63 -93 192 -93q134 0 222 97q85 94 100 221
q15 107 -21 180q-35 69 -96 103q-57 32 -127 32z" />
    <glyph glyph-name="aring" unicode="&#xe5;" horiz-adv-x="1077" 
d="M520 1194q6 71 66 125q57 51 131 51t119 -51q42 -51 36 -125q-9 -73 -67 -125q-57 -51 -131 -51q-75 0 -117 51q-46 52 -37 125zM610 1194q-6 -34 19 -59q21 -27 55 -27q37 0 64 27q28 22 34 59q3 36 -20 59q-21 27 -55 27q-37 0 -64 -27q-30 -24 -33 -59zM895 850h147
l-104 -850h-147l14 119q-45 -51 -119 -96q-79 -48 -188 -48t-197 52q-90 50 -135 149t-27 250q15 143 88 246q69 97 170 149q101 49 209 49q82 0 137 -24q53 -23 88 -58q39 -39 50 -59zM606 739q-108 0 -203 -80q-94 -76 -112 -233q-19 -140 45 -227q63 -93 192 -93
q134 0 222 97q85 94 100 221q15 107 -21 180q-35 69 -96 103q-57 32 -127 32z" />
    <glyph glyph-name="ae" unicode="&#xe6;" horiz-adv-x="1585" 
d="M1516 213q-43 -63 -93 -111q-55 -52 -135 -90q-78 -37 -184 -37q-22 0 -94 11q-60 10 -115 45q-60 38 -104 114q-57 -75 -117 -110q-61 -37 -121 -49q-71 -11 -102 -11q-99 0 -181 31q-79 30 -123 92q-42 60 -30 154q18 135 129 209q115 71 260 71q152 0 235 -71
q7 45 4 88q-3 53 -22 92q-24 55 -74 76q-52 22 -117 22q-72 0 -149 -18q-55 -13 -119 -35l17 139q95 29 153 37q57 8 117 8q41 0 106 -10q65 -13 113 -47q57 -44 82 -115q60 80 154 129q90 43 194 43q187 0 281 -125q93 -124 69 -335l-2 -15h-663q-9 -131 57 -209
q65 -80 174 -80q88 0 164 54q77 55 121 127zM1411 518q-3 105 -65 164q-63 57 -160 57q-93 0 -168 -57q-81 -62 -109 -164h502zM502 401q-109 0 -170 -43q-59 -47 -68 -106q-3 -27 10 -64q16 -37 60 -57q45 -25 127 -25q81 0 139 25q57 26 78 59q26 38 29 68q6 28 -13 64
q-14 32 -63 57q-46 22 -129 22z" />
    <glyph glyph-name="ccedilla" unicode="&#xe7;" horiz-adv-x="897" 
d="M881 612q-53 74 -123 101q-68 26 -129 26q-118 0 -219 -82q-103 -80 -121 -235q-12 -105 22 -174t99 -107q65 -35 139 -35q63 0 145 31q83 38 146 103l-21 -177q-73 -47 -149 -69q-74 -19 -131 -19q-200 0 -312 127q-114 126 -90 318q24 195 170 323q145 127 340 127
q100 0 164 -28q61 -29 90 -54zM618 -162l-237 -262l-94 49l205 269z" />
    <glyph glyph-name="egrave" unicode="&#xe8;" horiz-adv-x="985" 
d="M365 1235l145 63l164 -270l-88 -45zM920 217q-48 -76 -121 -137q-132 -105 -295 -105q-106 0 -195 45q-90 47 -141 144q-49 98 -31 256q24 189 150 321q126 129 317 129q126 0 199 -49q76 -51 104 -106q34 -57 43 -146q11 -80 -2 -174h-661q-12 -135 55 -211
q69 -78 178 -78q105 0 182 62q66 54 103 117zM811 518q-6 96 -68 162q-62 59 -155 59q-94 0 -170 -61q-77 -62 -107 -160h500z" />
    <glyph glyph-name="eacute" unicode="&#xe9;" horiz-adv-x="985" 
d="M926 1235l-281 -252l-78 45l230 270zM920 217q-48 -76 -121 -137q-132 -105 -295 -105q-106 0 -195 45q-90 47 -141 144q-49 98 -31 256q24 189 150 321q126 129 317 129q126 0 199 -49q76 -51 104 -106q34 -57 43 -146q11 -80 -2 -174h-661q-12 -135 55 -211
q69 -78 178 -78q105 0 182 62q66 54 103 117zM811 518q-6 96 -68 162q-62 59 -155 59q-94 0 -170 -61q-77 -62 -107 -160h500z" />
    <glyph glyph-name="ecircumflex" unicode="&#xea;" horiz-adv-x="985" 
d="M440 965l-75 67l282 225l230 -225l-93 -67l-153 151zM920 217q-48 -76 -121 -137q-132 -105 -295 -105q-106 0 -195 45q-90 47 -141 144q-49 98 -31 256q24 189 150 321q126 129 317 129q126 0 199 -49q76 -51 104 -106q34 -57 43 -146q11 -80 -2 -174h-661
q-12 -135 55 -211q69 -78 178 -78q105 0 182 62q66 54 103 117zM811 518q-6 96 -68 162q-62 59 -155 59q-94 0 -170 -61q-77 -62 -107 -160h500z" />
    <glyph glyph-name="edieresis" unicode="&#xeb;" horiz-adv-x="985" 
d="M354 1126q3 41 39 72t76 31t68 -31q25 -28 22 -72q-6 -41 -41 -71q-36 -31 -76 -31q-39 0 -67 31q-27 30 -21 71zM711 1126q3 41 39 72t75 31q40 0 68 -31q25 -28 22 -72q-6 -41 -41 -71q-36 -31 -75 -31q-40 0 -68 31q-26 29 -20 71zM920 217q-48 -76 -121 -137
q-132 -105 -295 -105q-106 0 -195 45q-90 47 -141 144q-49 98 -31 256q24 189 150 321q126 129 317 129q126 0 199 -49q76 -51 104 -106q34 -57 43 -146q11 -80 -2 -174h-661q-12 -135 55 -211q69 -78 178 -78q105 0 182 62q66 54 103 117zM811 518q-6 96 -68 162
q-62 59 -155 59q-94 0 -170 -61q-77 -62 -107 -160h500z" />
    <glyph glyph-name="igrave" unicode="&#xec;" horiz-adv-x="425" 
d="M84 1235l145 63l164 -270l-88 -45zM391 850l-104 -850h-148l105 850h147z" />
    <glyph glyph-name="iacute" unicode="&#xed;" horiz-adv-x="425" 
d="M645 1235l-280 -252l-78 45l229 270zM391 850l-104 -850h-148l105 850h147z" />
    <glyph glyph-name="icircumflex" unicode="&#xee;" horiz-adv-x="425" 
d="M186 1034l-80 72l269 217l215 -217l-96 -72l-138 137zM391 850l-104 -850h-148l105 850h147z" />
    <glyph glyph-name="idieresis" unicode="&#xef;" horiz-adv-x="425" 
d="M72 1126q3 41 39 72t75 31q40 0 68 -31q25 -28 22 -72q-6 -42 -40 -71q-36 -31 -76 -31t-68 31q-26 29 -20 71zM428 1126q3 41 39 72t76 31q39 0 67 -31q26 -29 23 -72q-6 -41 -41 -71q-36 -31 -76 -31q-39 0 -67 31q-27 30 -21 71zM391 850l-104 -850h-148l105 850h147z
" />
    <glyph glyph-name="eth" unicode="&#xf0;" horiz-adv-x="1073" 
d="M375 1378q147 -14 260 -61q98 -45 153 -84l275 86l22 -111l-200 -63q87 -87 127 -199q28 -67 43 -168q14 -97 -4 -262q-8 -63 -35 -160q-20 -78 -76 -163q-64 -92 -162 -154q-101 -64 -243 -64q-125 0 -199 41q-71 42 -113 90q-46 52 -71 134q-28 82 -13 194
q15 122 68 209q51 85 108 133q42 42 123 80q77 39 197 39q117 0 178 -37q66 -40 86 -63q-15 91 -57 161q-50 86 -113 140l-383 -121l-22 110l284 91q-83 49 -284 77zM891 446q9 77 -10 144q-20 61 -58 102q-29 33 -75 51q-46 21 -111 21q-69 0 -127 -25q-41 -18 -90 -57
q-50 -41 -84 -104q-36 -65 -45 -148q-7 -63 4 -121q12 -63 59 -119q39 -42 92 -63q52 -21 103 -21q70 0 125 25q53 27 84 55q51 44 90 119q34 69 43 141z" />
    <glyph glyph-name="ntilde" unicode="&#xf1;" horiz-adv-x="962" 
d="M289 1087q28 38 39 50l43 43q58 49 123 49q38 0 73 -12q37 -13 64 -29l8 -4q30 -18 51 -27q27 -10 51 -10q13 0 33 4q18 9 29 20q15 15 28 33q4 5 8.5 11t8.5 11.5t6 8.5l76 -70q-15 -35 -64 -80q-41 -38 -75 -49q-37 -12 -68 -12q-37 0 -72 14q-25 8 -63 29q-2 1 -6.5 3
t-6.5 3q-50 33 -96 33q-35 0 -61 -29q-33 -28 -51 -59zM244 850h147l-12 -98q21 25 49 47q38 30 86 49q55 22 123 22q75 0 137 -30q63 -29 92 -86q26 -51 29 -103q0 -55 -6 -125l-66 -526h-147l63 522q4 27 4 80q-3 39 -22 76q-34 61 -133 61q-40 0 -78 -14q-35 -10 -80 -51
q-48 -54 -65 -119q-21 -74 -23 -111l-55 -444h-148z" />
    <glyph glyph-name="ograve" unicode="&#xf2;" horiz-adv-x="1073" 
d="M408 1235l145 63l164 -270l-88 -45zM535 -25q-193 0 -308 127q-111 123 -90 320q24 192 168 321q145 127 338 127q195 0 307 -127t88 -321q-21 -191 -168 -320q-145 -127 -335 -127zM627 739q-116 0 -217 -82q-103 -80 -121 -235q-12 -105 22 -174t99 -107
q65 -35 139 -35q77 0 149 35q73 37 125 107t64 174q12 108 -21 176q-34 69 -96 107q-64 34 -143 34z" />
    <glyph glyph-name="oacute" unicode="&#xf3;" horiz-adv-x="1073" 
d="M969 1235l-281 -252l-78 45l230 270zM535 -25q-193 0 -308 127q-111 123 -90 320q24 192 168 321q145 127 338 127q195 0 307 -127t88 -321q-21 -191 -168 -320q-145 -127 -335 -127zM627 739q-116 0 -217 -82q-103 -80 -121 -235q-12 -105 22 -174t99 -107
q65 -35 139 -35q77 0 149 35q73 37 125 107t64 174q12 108 -21 176q-34 69 -96 107q-64 34 -143 34z" />
    <glyph glyph-name="ocircumflex" unicode="&#xf4;" horiz-adv-x="1073" 
d="M483 965l-75 67l282 225l230 -225l-93 -67l-153 151zM535 -25q-193 0 -308 127q-111 123 -90 320q24 192 168 321q145 127 338 127q195 0 307 -127t88 -321q-21 -191 -168 -320q-145 -127 -335 -127zM627 739q-116 0 -217 -82q-103 -80 -121 -235q-12 -105 22 -174
t99 -107q65 -35 139 -35q77 0 149 35q73 37 125 107t64 174q12 108 -21 176q-34 69 -96 107q-64 34 -143 34z" />
    <glyph glyph-name="otilde" unicode="&#xf5;" horiz-adv-x="1073" 
d="M381 1067q18 25 35 45q5 5 13 13.5t14.5 15t11.5 10.5q51 45 112 45q39 0 66 -12q18 -5 57 -27q18 -9 19 -10q40 -27 82 -27q14 0 30 4q14 7 29 19q2 2 9.5 11.5t12.5 16.5q13 15 23 29l68 -63q-18 -35 -58 -72q-37 -34 -69 -45q-38 -10 -60 -10q-30 0 -65 12
q-13 5 -58 27q-1 0 -2 1t-2 1q-51 32 -94 32q-36 0 -59 -26q-25 -25 -43 -49q0 -2 -2 -4zM535 -25q-193 0 -308 127q-111 123 -90 320q24 192 168 321q145 127 338 127q195 0 307 -127t88 -321q-21 -191 -168 -320q-145 -127 -335 -127zM627 739q-116 0 -217 -82
q-103 -80 -121 -235q-12 -105 22 -174t99 -107q65 -35 139 -35q77 0 149 35q73 37 125 107t64 174q12 108 -21 176q-34 69 -96 107q-64 34 -143 34z" />
    <glyph glyph-name="odieresis" unicode="&#xf6;" horiz-adv-x="1073" 
d="M395 1126q3 41 39 72t76 31t68 -31q25 -28 22 -72q-6 -41 -41 -71q-36 -31 -76 -31q-39 0 -67 31q-27 30 -21 71zM752 1126q3 41 39 72t75 31q40 0 68 -31q25 -28 22 -72q-6 -41 -41 -71q-36 -31 -75 -31q-40 0 -68 31q-26 29 -20 71zM535 -25q-193 0 -308 127
q-111 123 -90 320q24 192 168 321q145 127 338 127q195 0 307 -127t88 -321q-21 -191 -168 -320q-145 -127 -335 -127zM627 739q-116 0 -217 -82q-103 -80 -121 -235q-12 -105 22 -174t99 -107q65 -35 139 -35q77 0 149 35q73 37 125 107t64 174q12 108 -21 176
q-34 69 -96 107q-64 34 -143 34z" />
    <glyph glyph-name="divide" unicode="&#xf7;" 
d="M541 1055q6 42 39 71q37 29 73 29q42 0 68 -29t20 -71q-3 -39 -36 -72q-37 -29 -76 -29t-68 29q-23 29 -20 72zM160 750h889l-17 -136h-889zM451 309q3 43 36 72q37 29 76 29q40 0 66 -29q25 -28 22 -72q-6 -43 -39 -71q-37 -29 -73 -29q-42 0 -68 29t-20 71z" />
    <glyph glyph-name="oslash" unicode="&#xf8;" horiz-adv-x="1073" 
d="M983 698q29 -41 49 -104q20 -72 6 -172q-24 -196 -168 -322q-143 -125 -335 -125q-104 0 -173 29q-63 31 -92 57l-141 -122l-82 92l139 123q-24 34 -41 96q-20 65 -8 172q24 195 168 321q145 127 338 127q104 0 168 -28q54 -24 88 -54l141 123l78 -92zM786 692
q-65 47 -159 47q-81 0 -150 -34q-73 -37 -125 -107q-51 -73 -63 -176q-12 -104 18 -168zM387 160q27 -24 68 -39q40 -15 94 -15q77 0 149 35q73 37 125 107t64 174q12 109 -23 176z" />
    <glyph glyph-name="ugrave" unicode="&#xf9;" horiz-adv-x="954" 
d="M348 1235l146 63l163 -270l-88 -45zM330 354q0 -1 -6 -92q0 -50 24 -90q21 -29 47 -45q34 -21 94 -21q63 0 101 21q33 17 57 45q34 37 47 90q9 36 17 92l61 496h148l-64 -512q-9 -74 -31 -139q-21 -61 -77 -117q-67 -61 -138 -82q-77 -25 -135 -25q-61 0 -131 25
q-66 21 -117 82q-43 55 -49 117q-7 67 2 139l64 512h147z" />
    <glyph glyph-name="uacute" unicode="&#xfa;" horiz-adv-x="954" 
d="M909 1235l-280 -252l-78 45l229 270zM330 354q0 -1 -6 -92q0 -50 24 -90q21 -29 47 -45q34 -21 94 -21q63 0 101 21q33 17 57 45q34 37 47 90q9 36 17 92l61 496h148l-64 -512q-9 -74 -31 -139q-21 -61 -77 -117q-67 -61 -138 -82q-77 -25 -135 -25q-61 0 -131 25
q-66 21 -117 82q-43 55 -49 117q-7 67 2 139l64 512h147z" />
    <glyph glyph-name="ucircumflex" unicode="&#xfb;" horiz-adv-x="954" 
d="M414 1018l-86 74l313 247l252 -247l-102 -74l-168 166zM330 354q0 -1 -6 -92q0 -50 24 -90q21 -29 47 -45q34 -21 94 -21q63 0 101 21q33 17 57 45q34 37 47 90q9 36 17 92l61 496h148l-64 -512q-9 -74 -31 -139q-21 -61 -77 -117q-67 -61 -138 -82q-77 -25 -135 -25
q-61 0 -131 25q-66 21 -117 82q-43 55 -49 117q-7 67 2 139l64 512h147z" />
    <glyph glyph-name="udieresis" unicode="&#xfc;" horiz-adv-x="954" 
d="M336 1126q3 41 39 72t76 31q39 0 67 -31q26 -29 23 -72q-6 -41 -41 -71q-36 -31 -76 -31t-68 31q-26 29 -20 71zM692 1126q3 41 39 72t76 31q39 0 67 -31q26 -29 23 -72q-6 -41 -41 -71q-36 -31 -76 -31q-39 0 -67 31q-27 30 -21 71zM330 354q0 -1 -6 -92q0 -50 24 -90
q21 -29 47 -45q34 -21 94 -21q63 0 101 21q33 17 57 45q34 37 47 90q9 36 17 92l61 496h148l-64 -512q-9 -74 -31 -139q-21 -61 -77 -117q-67 -61 -138 -82q-77 -25 -135 -25q-61 0 -131 25q-66 21 -117 82q-43 55 -49 117q-7 67 2 139l64 512h147z" />
    <glyph glyph-name="yacute" unicode="&#xfd;" horiz-adv-x="942" 
d="M903 1235l-280 -252l-78 45l229 270zM418 80l-297 770h168l225 -608l352 608h164l-786 -1321h-164z" />
    <glyph glyph-name="thorn" unicode="&#xfe;" horiz-adv-x="1077" 
d="M229 -471h-147l242 1964h147l-94 -762q59 62 117 92q59 30 110 39q44 8 80 8q134 0 217 -65q83 -63 121 -168q35 -103 20 -217q-11 -109 -73 -217q-62 -103 -160 -164q-98 -64 -227 -64q-104 0 -172 41t-109 103zM575 106q129 0 216 93q85 94 100 221q12 104 -19 176
q-34 69 -92 106t-129 37q-67 0 -137 -37t-121 -106q-51 -73 -63 -174q-15 -133 51 -223q66 -93 194 -93z" />
    <glyph glyph-name="ydieresis" unicode="&#xff;" horiz-adv-x="942" 
d="M350 1126q3 41 39 72t76 31q39 0 67 -31q26 -29 23 -72q-6 -41 -41 -71q-36 -31 -76 -31q-39 0 -67 31q-27 30 -21 71zM707 1126q3 41 38 72q36 31 76 31t68 -31q25 -28 22 -72q-6 -41 -41 -71q-36 -31 -75 -31q-40 0 -68 31q-26 29 -20 71zM418 80l-297 770h168
l225 -608l352 608h164l-786 -1321h-164z" />
    <glyph glyph-name="Amacron" unicode="&#x100;" horiz-adv-x="1273" 
d="M518 1632h656l-17 -131h-655zM977 385h-582l-211 -385h-168l805 1432l436 -1432h-167zM936 528l-164 547l-299 -547h463z" />
    <glyph glyph-name="Amacron001" unicode="&#x101;" horiz-adv-x="1077" 
d="M375 1174h618l-14 -123h-619zM895 850h147l-104 -850h-147l14 119q-45 -51 -119 -96q-79 -48 -188 -48t-197 52q-90 50 -135 149t-27 250q15 143 88 246q69 97 170 149q101 49 209 49q82 0 137 -24q53 -23 88 -58q39 -39 50 -59zM606 739q-108 0 -203 -80
q-94 -76 -112 -233q-19 -140 45 -227q63 -93 192 -93q134 0 222 97q85 94 100 221q15 107 -21 180q-35 69 -96 103q-57 32 -127 32z" />
    <glyph glyph-name="Abreve" unicode="&#x102;" horiz-adv-x="1273" 
d="M705 1704q9 -51 30 -72q42 -39 99 -39q55 0 106 39q25 19 47 72h105q-11 -41 -31 -74q-27 -40 -29 -43l-4 -8q-30 -39 -78 -66q-46 -32 -131 -32t-125 32q-38 26 -59 66l-4 8q-16 40 -17 43q-11 27 -14 74h105zM977 385h-582l-211 -385h-168l805 1432l436 -1432h-167z
M936 528l-164 547l-299 -547h463z" />
    <glyph glyph-name="Abreve002" unicode="&#x103;" horiz-adv-x="1077" 
d="M543 1188q9 -51 30 -72q42 -39 99 -39q55 0 106 39q25 19 47 72h105q-11 -41 -31 -74q-6 -11 -16 -26t-11 -17q-6 -6 -6 -8q-30 -39 -78 -66q-46 -32 -131 -32t-125 32q-38 26 -59 66l-4 8q-10 25 -16 43q-12 30 -15 74h105zM895 850h147l-104 -850h-147l14 119
q-45 -51 -119 -96q-79 -48 -188 -48t-197 52q-90 50 -135 149t-27 250q15 143 88 246q69 97 170 149q101 49 209 49q82 0 137 -24q53 -23 88 -58q39 -39 50 -59zM606 739q-108 0 -203 -80q-94 -76 -112 -233q-19 -140 45 -227q63 -93 192 -93q134 0 222 97q85 94 100 221
q15 107 -21 180q-35 69 -96 103q-57 32 -127 32z" />
    <glyph glyph-name="Aogonek" unicode="&#x104;" horiz-adv-x="1273" 
d="M1257 0h-40q-60 -31 -113 -84q-9 -9 -33 -41q-17 -28 -20 -57q-3 -23 4 -37q7 -19 14 -23q30 -24 74 -24q50 0 106 26l-32 -120q-66 -29 -115 -29q-40 0 -86 16q-40 15 -68 43q-19 22 -26 47q-10 23 -7 70q9 59 64 129q43 46 111 84l-113 385h-582l-211 -385h-168
l805 1432zM936 528l-164 547l-299 -547h463z" />
    <glyph glyph-name="Aogonek003" unicode="&#x105;" horiz-adv-x="1077" 
d="M895 850h147l-104 -850h-29q-54 -31 -106 -80q-19 -19 -35 -43q-22 -25 -25 -61q-6 -40 17 -60q8 -8 28 -16q5 -1 15.5 -3t15.5 -3h21q3 0 43 4q27 6 59 22l-31 -112q-41 -20 -71 -25q-46 -4 -47 -4q-37 0 -78 14q-38 11 -66 43q-13 13 -26 45q-10 30 -7 70q8 65 60 123
q47 49 115 86l14 119q-64 -64 -127 -99q-53 -27 -98 -36q-50 -9 -82 -9q-100 0 -168 35q-73 36 -111 82q-23 27 -41 64q-26 48 -37 108q-14 65 -2 162q12 110 58 192q43 85 104 140q130 112 305 112q190 0 275 -141zM606 739q-59 0 -114 -22q-55 -27 -91 -60
q-41 -38 -71 -96q-33 -64 -41 -143q-12 -102 12 -158q20 -56 49 -82q66 -72 182 -72q115 0 197 76q37 34 74 92q38 59 47 150q12 79 -6 137q-16 58 -45 92q-27 37 -78 62q-50 24 -115 24z" />
    <glyph glyph-name="Cacute" unicode="&#x106;" horiz-adv-x="1323" 
d="M1280 1714l-344 -239l-80 65l291 266zM1352 1065q-65 75 -164 127q-109 53 -227 53q-239 0 -414 -166q-178 -166 -205 -403q-24 -185 47 -309q72 -126 191 -187t243 -61q142 0 262 63q68 33 107 64q28 19 65 51l-22 -188q-127 -80 -240 -107q-114 -27 -188 -27
q-305 0 -481 203q-177 205 -140 500q37 307 267 508q229 203 534 203q41 0 105 -9q58 -6 135 -37q70 -26 147 -90z" />
    <glyph glyph-name="Cacute004" unicode="&#x107;" horiz-adv-x="897" 
d="M909 1294l-309 -276l-86 49l252 297zM881 612q-53 74 -123 101q-68 26 -129 26q-118 0 -219 -82q-103 -80 -121 -235q-12 -105 22 -174t99 -107q65 -35 139 -35q63 0 145 31q83 38 146 103l-21 -177q-73 -47 -149 -69q-74 -19 -131 -19q-200 0 -312 127q-114 126 -90 318
q24 195 170 323q145 127 340 127q100 0 164 -28q61 -29 90 -54z" />
    <glyph glyph-name="Ccircumflex" unicode="&#x108;" horiz-adv-x="1323" 
d="M821 1477l-96 84l315 243l258 -243l-116 -84l-162 155zM1352 1065q-65 75 -164 127q-109 53 -227 53q-239 0 -414 -166q-178 -166 -205 -403q-24 -185 47 -309q72 -126 191 -187t243 -61q142 0 262 63q68 33 107 64q28 19 65 51l-22 -188q-127 -80 -240 -107
q-114 -27 -188 -27q-305 0 -481 203q-177 205 -140 500q37 307 267 508q229 203 534 203q41 0 105 -9q58 -6 135 -37q70 -26 147 -90z" />
    <glyph glyph-name="Ccircumflex005" unicode="&#x109;" horiz-adv-x="897" 
d="M469 1018l-86 74l313 247l252 -247l-102 -74l-168 166zM881 612q-53 74 -123 101q-68 26 -129 26q-118 0 -219 -82q-103 -80 -121 -235q-12 -105 22 -174t99 -107q65 -35 139 -35q63 0 145 31q83 38 146 103l-21 -177q-73 -47 -149 -69q-74 -19 -131 -19q-200 0 -312 127
q-114 126 -90 318q24 195 170 323q145 127 340 127q100 0 164 -28q61 -29 90 -54z" />
    <glyph glyph-name="Cdotaccent" unicode="&#x10a;" horiz-adv-x="1323" 
d="M889 1606q6 48 43 82q34 30 84 30q51 0 78 -30q26 -33 20 -82q-6 -52 -41 -80q-36 -33 -84 -33q-52 0 -78 33q-28 31 -22 80zM1352 1065q-65 75 -164 127q-109 53 -227 53q-239 0 -414 -166q-178 -166 -205 -403q-24 -185 47 -309q72 -126 191 -187t243 -61q142 0 262 63
q68 33 107 64q28 19 65 51l-22 -188q-127 -80 -240 -107q-114 -27 -188 -27q-305 0 -481 203q-177 205 -140 500q37 307 267 508q229 203 534 203q41 0 105 -9q58 -6 135 -37q70 -26 147 -90z" />
    <glyph glyph-name="Cdotaccent006" unicode="&#x10b;" horiz-adv-x="897" 
d="M571 1133q6 49 41 77q36 31 80 31q46 0 74 -31t22 -77q-6 -49 -40 -78q-36 -31 -82 -31q-47 0 -72 31q-29 32 -23 78zM881 612q-53 74 -123 101q-68 26 -129 26q-118 0 -219 -82q-103 -80 -121 -235q-12 -105 22 -174t99 -107q65 -35 139 -35q63 0 145 31q83 38 146 103
l-21 -177q-73 -47 -149 -69q-74 -19 -131 -19q-200 0 -312 127q-114 126 -90 318q24 195 170 323q145 127 340 127q100 0 164 -28q61 -29 90 -54z" />
    <glyph glyph-name="Ccaron" unicode="&#x10c;" horiz-adv-x="1323" 
d="M1221 1804l96 -84l-316 -243l-258 243l117 84l162 -155zM1352 1065q-65 75 -164 127q-109 53 -227 53q-239 0 -414 -166q-178 -166 -205 -403q-24 -185 47 -309q72 -126 191 -187t243 -61q142 0 262 63q68 33 107 64q28 19 65 51l-22 -188q-127 -80 -240 -107
q-114 -27 -188 -27q-305 0 -481 203q-177 205 -140 500q37 307 267 508q229 203 534 203q41 0 105 -9q58 -6 135 -37q70 -26 147 -90z" />
    <glyph glyph-name="Ccaron007" unicode="&#x10d;" horiz-adv-x="897" 
d="M885 1339l86 -73l-314 -248l-251 248l102 73l168 -165zM881 612q-53 74 -123 101q-68 26 -129 26q-118 0 -219 -82q-103 -80 -121 -235q-12 -105 22 -174t99 -107q65 -35 139 -35q63 0 145 31q83 38 146 103l-21 -177q-73 -47 -149 -69q-74 -19 -131 -19q-200 0 -312 127
q-114 126 -90 318q24 195 170 323q145 127 340 127q100 0 164 -28q61 -29 90 -54z" />
    <glyph glyph-name="Dcaron" unicode="&#x10e;" horiz-adv-x="1294" 
d="M975 1804l96 -84l-315 -243l-258 243l116 84l162 -155zM344 1366h279q59 0 151 -10q88 -10 168 -43q85 -34 164 -107q83 -72 139 -209q52 -131 31 -315q-18 -145 -70 -246q-49 -96 -114 -170q-68 -72 -121 -108q-96 -77 -217 -119q-116 -39 -301 -39h-277zM346 143h133
q82 0 187 21q105 20 219 102q89 67 151 168q66 104 84 248q30 247 -110 393q-139 148 -400 148h-133z" />
    <glyph glyph-name="Dcaron008" unicode="&#x10f;" horiz-adv-x="1220" 
d="M975 1493h147l-184 -1493h-147l14 119q-45 -51 -119 -96q-79 -48 -188 -48t-197 52q-90 50 -135 149t-27 250q15 143 88 246q69 97 170 149q101 49 209 49q82 0 137 -24q53 -23 88 -58q39 -39 50 -59zM1305 1413l125 -49l-183 -320l-90 41zM606 739q-108 0 -203 -80
q-94 -76 -112 -233q-19 -140 45 -227q63 -93 192 -93q134 0 222 97q85 94 100 221q15 107 -21 180q-35 69 -96 103q-57 32 -127 32z" />
    <glyph glyph-name="Dcroat" unicode="&#x110;" horiz-adv-x="1294" 
d="M260 688h-176l16 131h176l68 547h279q59 0 151 -10q88 -10 168 -43q85 -34 164 -107q83 -72 139 -209q52 -131 31 -315q-18 -145 -70 -246q-49 -96 -114 -170q-68 -72 -121 -108q-96 -77 -217 -119q-116 -39 -301 -39h-277zM428 819h279l-17 -131h-278l-66 -545h133
q82 0 187 21q105 20 219 102q89 67 151 168q66 104 84 248q30 247 -110 393q-139 148 -400 148h-133z" />
    <glyph glyph-name="Dcroat009" unicode="&#x111;" horiz-adv-x="1077" 
d="M930 1135h-410l15 122h409l31 236h147l-30 -236h139l-14 -122h-140l-139 -1135h-147l14 119q-45 -51 -119 -96q-79 -48 -188 -48t-197 52q-90 50 -135 149t-27 250q15 143 88 246q69 97 170 149q101 49 209 49q82 0 137 -24q53 -23 88 -58q39 -39 50 -59zM606 739
q-108 0 -203 -80q-94 -76 -112 -233q-19 -140 45 -227q63 -93 192 -93q136 0 222 95q85 93 100 223q15 111 -19 180q-33 67 -94 103q-57 32 -131 32z" />
    <glyph glyph-name="Emacron" unicode="&#x112;" horiz-adv-x="987" 
d="M406 1632h655l-17 -131h-655zM1034 1223h-557l-49 -406h541l-19 -143h-540l-64 -531h557l-18 -143h-709l168 1366h709z" />
    <glyph glyph-name="Emacron010" unicode="&#x113;" horiz-adv-x="985" 
d="M330 1174h618l-14 -123h-619zM920 217q-48 -76 -121 -137q-132 -105 -295 -105q-106 0 -195 45q-90 47 -141 144q-49 98 -31 256q24 189 150 321q126 129 317 129q126 0 199 -49q76 -51 104 -106q34 -57 43 -146q11 -80 -2 -174h-661q-12 -135 55 -211q69 -78 178 -78
q105 0 182 62q66 54 103 117zM811 518q-6 96 -68 162q-62 59 -155 59q-94 0 -170 -61q-77 -62 -107 -160h500z" />
    <glyph glyph-name="Edotaccent" unicode="&#x116;" horiz-adv-x="987" 
d="M616 1606q6 48 43 82q35 30 84 30q51 0 78 -30q27 -34 21 -82q-6 -52 -41 -80q-36 -33 -84 -33q-52 0 -78 33q-29 32 -23 80zM1034 1223h-557l-49 -406h541l-19 -143h-540l-64 -531h557l-18 -143h-709l168 1366h709z" />
    <glyph glyph-name="Edotaccent011" unicode="&#x117;" horiz-adv-x="985" 
d="M526 1133q6 49 41 77q36 31 80 31q46 0 74 -31t22 -77q-6 -48 -41 -78q-36 -31 -81 -31q-47 0 -72 31q-29 32 -23 78zM920 217q-48 -76 -121 -137q-132 -105 -295 -105q-106 0 -195 45q-90 47 -141 144q-49 98 -31 256q24 189 150 321q126 129 317 129q126 0 199 -49
q76 -51 104 -106q34 -57 43 -146q11 -80 -2 -174h-661q-12 -135 55 -211q69 -78 178 -78q105 0 182 62q66 54 103 117zM811 518q-6 96 -68 162q-62 59 -155 59q-94 0 -170 -61q-77 -62 -107 -160h500z" />
    <glyph glyph-name="Eogonek" unicode="&#x118;" horiz-adv-x="987" 
d="M1034 1223h-557l-49 -406h541l-19 -143h-540l-64 -531h557l-18 -143h-82q-60 -31 -113 -84q-9 -9 -33 -41q-17 -28 -20 -57q-3 -23 4 -37q7 -19 14 -23q30 -24 74 -24q51 0 107 26l-33 -120q-66 -29 -115 -29q-40 0 -86 16q-38 14 -67 43q-20 24 -27 47q-10 22 -6 70
q9 69 63 129q31 31 51 45q22 17 52 39h-492l168 1366h709z" />
    <glyph glyph-name="Eogonek012" unicode="&#x119;" horiz-adv-x="987" 
d="M922 217q-43 -72 -121 -135q-38 -29 -62 -43q-22 -14 -53 -31q-6 -4 -22 -12q-87 -50 -115 -78q-33 -33 -45 -57q-12 -27 -15 -45q-3 -20 5 -39q2 -3 4.5 -7t4 -6.5t3.5 -3.5q11 -13 37 -20q24 -6 43 -6q40 0 102 26l-31 -112q-76 -29 -118 -29q-89 0 -144 55
q-19 22 -26 47q-10 30 -7 70q9 65 52 111q33 41 82 73q-100 0 -168 35q-66 34 -107 78q-37 37 -69 121q-30 80 -15 211q27 212 170 340q41 41 123 78q68 32 176 32q92 0 160 -30q68 -29 113 -80q49 -65 63 -133q17 -79 14 -138q-3 -64 -6 -94h-663q-12 -122 55 -213
q67 -76 180 -76q58 0 107 19q43 17 76 43q61 52 102 117zM813 518q-12 111 -59 152q-40 40 -78 53q-46 16 -86 16q-105 0 -182 -71q-68 -68 -95 -150h500z" />
    <glyph glyph-name="Ecaron" unicode="&#x11a;" horiz-adv-x="987" 
d="M934 1804l96 -84l-315 -243l-258 243l116 84l162 -155zM1034 1223h-557l-49 -406h541l-19 -143h-540l-64 -531h557l-18 -143h-709l168 1366h709z" />
    <glyph glyph-name="Ecaron013" unicode="&#x11b;" horiz-adv-x="985" 
d="M848 1339l86 -73l-313 -248l-252 248l102 73l168 -165zM920 217q-48 -76 -121 -137q-132 -105 -295 -105q-106 0 -195 45q-90 47 -141 144q-49 98 -31 256q24 189 150 321q126 129 317 129q126 0 199 -49q76 -51 104 -106q34 -57 43 -146q11 -80 -2 -174h-661
q-12 -135 55 -211q69 -78 178 -78q105 0 182 62q66 54 103 117zM811 518q-6 96 -68 162q-62 59 -155 59q-94 0 -170 -61q-77 -62 -107 -160h500z" />
    <glyph glyph-name="Gcircumflex" unicode="&#x11c;" horiz-adv-x="1552" 
d="M813 1477l-96 84l315 243l258 -243l-116 -84l-162 155zM965 686h569l-4 -33q-12 -111 -62 -227q-47 -118 -122 -205q-16 -23 -91 -88q-62 -54 -180 -108q-112 -50 -266 -50q-306 0 -481 205q-179 204 -142 502q38 300 265 502q230 205 534 205q93 0 205 -31
q102 -26 196 -105q93 -83 138 -161l-125 -103q-49 85 -111 141q-35 35 -119 78q-75 37 -198 37q-248 0 -424 -164q-179 -166 -205 -401q-24 -185 47 -311q67 -124 189 -187q120 -63 249 -63q139 0 256 63q118 62 191 166q50 65 80 195h-406z" />
    <glyph glyph-name="Gcircumflex014" unicode="&#x11d;" horiz-adv-x="1077" 
d="M475 1018l-86 74l313 247l252 -247l-102 -74l-168 166zM895 850h147l-102 -830q-8 -57 -31 -159q-21 -88 -92 -174q-54 -66 -147 -113q-89 -45 -211 -45q-108 0 -180 35q-73 36 -109 80q-44 47 -66 112q-24 68 -12 162h146q-12 -110 45 -176q42 -52 92 -66
q56 -16 102 -16q158 0 240 119q40 56 51 108q18 68 23 109l14 123q-45 -51 -119 -96q-79 -48 -188 -48q-99 0 -164 33q-63 27 -115 82q-40 43 -67 125q-31 84 -13 211q15 124 62 205q44 76 100 125q135 114 305 114q190 0 275 -141zM606 739q-68 0 -117 -24q-39 -18 -83 -56
q-59 -53 -84 -118t-31 -115q-8 -49 2 -123q9 -71 63 -127q27 -31 72 -51q46 -19 100 -19q116 0 197 72q107 93 125 246q18 154 -59 240q-69 75 -185 75z" />
    <glyph glyph-name="Gbreve" unicode="&#x11e;" horiz-adv-x="1552" 
d="M1339 1722q-25 -83 -79 -137q-30 -33 -101 -74q-64 -34 -166 -34q-101 0 -159 34q-61 41 -82 74q-41 56 -47 137h135q6 -36 43 -73q59 -41 125 -41q69 0 137 41q44 35 59 73h135zM965 686h569l-4 -33q-12 -111 -62 -227q-47 -118 -122 -205q-16 -23 -91 -88
q-62 -54 -180 -108q-112 -50 -266 -50q-306 0 -481 205q-179 204 -142 502q38 300 265 502q230 205 534 205q93 0 205 -31q102 -26 196 -105q93 -83 138 -161l-125 -103q-49 85 -111 141q-35 35 -119 78q-75 37 -198 37q-248 0 -424 -164q-179 -166 -205 -401
q-24 -185 47 -311q67 -124 189 -187q120 -63 249 -63q139 0 256 63q118 62 191 166q50 65 80 195h-406z" />
    <glyph glyph-name="Gbreve015" unicode="&#x11f;" horiz-adv-x="1077" 
d="M522 1264q12 -56 39 -80q49 -43 117 -43t129 43q35 24 59 80h125q-17 -50 -39 -86q-32 -46 -34 -48q0 -1 -1.5 -2t-1.5 -2q-31 -34 -92 -73q-62 -35 -159 -35t-150 35q-55 39 -74 73l-4 4q-11 22 -20 48q-16 37 -19 86h125zM895 850h147l-102 -830q-8 -57 -31 -159
q-21 -88 -92 -174q-54 -66 -147 -113q-89 -45 -211 -45q-108 0 -180 35q-73 36 -109 80q-44 47 -66 112q-24 68 -12 162h146q-12 -110 45 -176q42 -52 92 -66q56 -16 102 -16q158 0 240 119q40 56 51 108q18 68 23 109l14 123q-45 -51 -119 -96q-79 -48 -188 -48
q-99 0 -164 33q-63 27 -115 82q-40 43 -67 125q-31 84 -13 211q15 124 62 205q44 76 100 125q135 114 305 114q190 0 275 -141zM606 739q-68 0 -117 -24q-39 -18 -83 -56q-59 -53 -84 -118t-31 -115q-8 -49 2 -123q9 -71 63 -127q27 -31 72 -51q46 -19 100 -19q116 0 197 72
q107 93 125 246q18 154 -59 240q-69 75 -185 75z" />
    <glyph glyph-name="Gdotaccent" unicode="&#x120;" horiz-adv-x="1552" 
d="M901 1606q6 48 43 82q34 30 84 30q51 0 78 -30q26 -33 20 -82q-6 -52 -41 -80q-36 -33 -84 -33q-51 0 -77 33q-29 32 -23 80zM965 686h569l-4 -33q-12 -111 -62 -227q-47 -118 -122 -205q-16 -23 -91 -88q-62 -54 -180 -108q-112 -50 -266 -50q-306 0 -481 205
q-179 204 -142 502q38 300 265 502q230 205 534 205q93 0 205 -31q102 -26 196 -105q93 -83 138 -161l-125 -103q-49 85 -111 141q-35 35 -119 78q-75 37 -198 37q-248 0 -424 -164q-179 -166 -205 -401q-24 -185 47 -311q67 -124 189 -187q120 -63 249 -63q139 0 256 63
q118 62 191 166q50 65 80 195h-406z" />
    <glyph glyph-name="Gdotaccent016" unicode="&#x121;" horiz-adv-x="1077" 
d="M535 1133q6 50 40 77q36 31 80 31q46 0 74 -31q29 -32 23 -77q-6 -48 -41 -78q-36 -31 -82 -31q-47 0 -72 31q-28 31 -22 78zM895 850h147l-102 -830q-8 -57 -31 -159q-21 -88 -92 -174q-54 -66 -147 -113q-89 -45 -211 -45q-108 0 -180 35q-73 36 -109 80
q-44 47 -66 112q-24 68 -12 162h146q-12 -110 45 -176q42 -52 92 -66q56 -16 102 -16q158 0 240 119q40 56 51 108q18 68 23 109l14 123q-45 -51 -119 -96q-79 -48 -188 -48q-99 0 -164 33q-63 27 -115 82q-40 43 -67 125q-31 84 -13 211q15 124 62 205q44 76 100 125
q135 114 305 114q190 0 275 -141zM606 739q-68 0 -117 -24q-39 -18 -83 -56q-59 -53 -84 -118t-31 -115q-8 -49 2 -123q9 -71 63 -127q27 -31 72 -51q46 -19 100 -19q116 0 197 72q107 93 125 246q18 154 -59 240q-69 75 -185 75z" />
    <glyph glyph-name="Gcommaaccent" unicode="&#x122;" horiz-adv-x="1552" 
d="M965 686h569l-4 -33q-12 -111 -62 -227q-47 -118 -122 -205q-16 -23 -91 -88q-62 -54 -180 -108q-112 -50 -266 -50q-306 0 -481 205q-179 204 -142 502q38 300 265 502q230 205 534 205q93 0 205 -31q102 -26 196 -105q93 -83 138 -161l-125 -103q-49 85 -111 141
q-35 35 -119 78q-75 37 -198 37q-248 0 -424 -164q-179 -166 -205 -401q-24 -185 47 -311q67 -124 189 -187q120 -63 249 -63q139 0 256 63q118 62 191 166q50 65 80 195h-406zM754 -102l125 -50l-183 -319l-98 41z" />
    <glyph glyph-name="Gcommaaccent017" unicode="&#x123;" horiz-adv-x="1077" 
d="M653 1004l-125 49l183 319l98 -41zM895 850h147l-102 -830q-8 -57 -31 -159q-21 -88 -92 -174q-54 -66 -147 -113q-89 -45 -211 -45q-108 0 -180 35q-73 36 -109 80q-44 47 -66 112q-24 68 -12 162h146q-12 -110 45 -176q42 -52 92 -66q56 -16 102 -16q158 0 240 119
q40 56 51 108q18 68 23 109l14 123q-45 -51 -119 -96q-79 -48 -188 -48q-99 0 -164 33q-63 27 -115 82q-40 43 -67 125q-31 84 -13 211q15 124 62 205q44 76 100 125q135 114 305 114q190 0 275 -141zM606 739q-68 0 -117 -24q-39 -18 -83 -56q-59 -53 -84 -118t-31 -115
q-8 -49 2 -123q9 -71 63 -127q27 -31 72 -51q46 -19 100 -19q116 0 197 72q107 93 125 246q18 154 -59 240q-69 75 -185 75z" />
    <glyph glyph-name="Hcircumflex" unicode="&#x124;" horiz-adv-x="1355" 
d="M680 1477l-96 84l315 243l258 -243l-117 -84l-161 155zM428 811h700l68 555h152l-168 -1366h-152l82 668h-700l-82 -668h-152l168 1366h152z" />
    <glyph glyph-name="Hcircumflex018" unicode="&#x125;" horiz-adv-x="962" 
d="M213 1509l-84 74l313 248l252 -248l-104 -74l-168 166zM324 1493h147l-92 -741q21 25 49 47q38 30 86 49q55 22 123 22q75 0 137 -30q63 -29 92 -86q26 -51 29 -103q0 -55 -6 -125l-66 -526h-147l63 522q4 27 4 80q-3 39 -22 76q-34 61 -133 61q-40 0 -78 -14
q-35 -10 -80 -51q-48 -54 -65 -119q-21 -74 -23 -111l-55 -444h-148z" />
    <glyph glyph-name="Hbar" unicode="&#x126;" horiz-adv-x="1355" 
d="M481 1257h701l14 109h152l-15 -109h123l-14 -127h-123l-139 -1130h-152l82 668h-700l-82 -668h-152l139 1130h-122l14 127h123l14 109h152zM467 1130l-39 -319h700l39 319h-700z" />
    <glyph glyph-name="Hbar019" unicode="&#x127;" horiz-adv-x="962" 
d="M279 1135h-140l15 122h139l31 236h147l-31 -236h410l-14 -122h-410l-47 -383q21 25 49 47q38 30 86 49q55 22 123 22q75 0 137 -30q63 -29 92 -86q26 -51 29 -103q0 -55 -6 -125l-66 -526h-147l63 522q4 27 4 80q-3 39 -22 76q-34 61 -133 61q-40 0 -78 -14
q-35 -10 -80 -51q-48 -54 -65 -119q-21 -74 -23 -111l-55 -444h-148z" />
    <glyph glyph-name="Itilde" unicode="&#x128;" horiz-adv-x="503" 
d="M160 1583q18 25 35 45q4 4 17.5 18.5t20.5 20.5q51 45 113 45q36 0 66 -12q18 -5 57 -27q16 -8 18 -10q40 -27 82 -27q11 0 31 4q16 8 27 19q14 14 24 29q20 24 23 28l67 -63q-19 -37 -57 -72q-36 -33 -70 -45q-38 -10 -61 -10q-34 0 -64 12q-10 3 -57 27q-1 0 -2 1t-2 1
q-51 32 -94 32q-37 0 -60 -26q-25 -25 -43 -49q0 -2 -2 -4zM496 1366l-168 -1366h-152l168 1366h152z" />
    <glyph glyph-name="Itilde055" unicode="&#x129;" horiz-adv-x="425" 
d="M57 1067q18 25 35 45q5 5 13 13.5t14.5 15t11.5 10.5q51 45 113 45q38 0 65 -12q20 -6 58 -27q16 -8 18 -10q40 -27 82 -27q15 0 31 4q11 6 28 19q2 3 10 12t13 16q2 3 22 29l68 -63q-19 -37 -57 -72q-36 -33 -70 -45q-38 -10 -59 -10q-31 0 -66 12q-10 3 -57 27
q-1 0 -2 1t-2 1q-51 32 -95 32q-36 0 -59 -26q-25 -25 -43 -49q0 -2 -2 -4zM391 850l-104 -850h-148l105 850h147z" />
    <glyph glyph-name="Imacron" unicode="&#x12a;" horiz-adv-x="503" 
d="M201 1632h504l-17 -131h-504zM496 1366l-168 -1366h-152l168 1366h152z" />
    <glyph glyph-name="Imacron020" unicode="&#x12b;" horiz-adv-x="425" 
d="M143 1174h426l-14 -123h-426zM391 850l-104 -850h-148l105 850h147z" />
    <glyph glyph-name="Iogonek" unicode="&#x12e;" horiz-adv-x="503" 
d="M496 1366l-168 -1366q-29 -18 -56 -37q-36 -28 -51 -43q-12 -12 -33 -39q-23 -34 -26 -65q-3 -34 16 -56q17 -26 80 -26t102 26l-32 -120q-42 -18 -70 -23q-30 -6 -53 -6q-75 0 -131 47q-56 45 -47 131q9 69 65 131q36 37 64 53q34 23 45 27h-25l168 1366h152z" />
    <glyph glyph-name="Iogonek021" unicode="&#x12f;" horiz-adv-x="425" 
d="M252 1171q6 46 41 74q36 31 76 31q43 0 71 -31q27 -33 21 -74q-3 -42 -39 -73t-78 -31t-70 31q-25 28 -22 73zM391 850l-104 -850q-29 -18 -56 -37q-36 -28 -51 -43q-12 -12 -33 -39q-23 -34 -26 -65q-3 -34 16 -56q17 -26 80 -26t102 26l-30 -112q-42 -18 -66 -23
q-30 -6 -53 -6q-78 0 -129 45q-56 47 -47 125q9 69 65 131q21 21 39 37q23 21 70 43h-29l105 850h147z" />
    <glyph glyph-name="Idotaccent" unicode="&#x130;" horiz-adv-x="503" 
d="M336 1606q6 48 43 82q35 30 84 30q51 0 78 -30q26 -33 20 -82q-6 -52 -41 -80q-36 -33 -84 -33q-52 0 -78 33q-28 31 -22 80zM496 1366l-168 -1366h-152l168 1366h152z" />
    <glyph glyph-name="dotlessi" unicode="&#x131;" horiz-adv-x="425" 
d="M391 850l-104 -850h-148l105 850h147z" />
    <glyph glyph-name="Jcircumflex" unicode="&#x134;" horiz-adv-x="626" 
d="M371 1477l-97 84l316 243l258 -243l-117 -84l-162 155zM618 1366l-120 -983q-7 -64 -33 -170q-24 -86 -90 -152q-38 -38 -96 -63q-64 -23 -132 -23q-149 0 -231 101l98 119q67 -76 146 -76q64 0 106 39q43 40 58 98q10 41 22 123l121 987h151z" />
    <glyph glyph-name="Jcircumflex022" unicode="&#x135;" horiz-adv-x="425" 
d="M186 1034l-80 72l269 217l215 -217l-96 -72l-138 137zM391 850l-162 -1321h-147l162 1321h147z" />
    <glyph glyph-name="Kcommaaccent" unicode="&#x136;" horiz-adv-x="1163" 
d="M424 780l653 586h205l-717 -637l570 -729h-209l-482 627l-45 -39l-71 -588h-152l168 1366h152zM516 -102l125 -50l-182 -319l-99 41z" />
    <glyph glyph-name="Kcommaaccent023" unicode="&#x137;" horiz-adv-x="864" 
d="M471 1493l-119 -958l350 315h193l-410 -365l371 -485h-192l-293 387l-41 -37l-43 -350h-148l185 1493h147zM371 -102l125 -50l-183 -319l-98 41z" />
    <glyph glyph-name="Lacute" unicode="&#x139;" horiz-adv-x="733" 
d="M850 1714l-344 -239l-80 65l291 266zM496 1366l-150 -1223h377l-18 -143h-529l168 1366h152z" />
    <glyph glyph-name="Lacute024" unicode="&#x13a;" horiz-adv-x="425" 
d="M729 1827l-309 -277l-86 49l252 297zM471 1493l-184 -1493h-148l185 1493h147z" />
    <glyph glyph-name="Lcommaaccent" unicode="&#x13b;" horiz-adv-x="733" 
d="M496 1366l-150 -1223h377l-18 -143h-529l168 1366h152zM385 -102l125 -50l-182 -319l-99 41z" />
    <glyph glyph-name="Lcommaaccent025" unicode="&#x13c;" horiz-adv-x="425" 
d="M471 1493l-184 -1493h-148l185 1493h147zM152 -102l124 -50l-182 -319l-98 41z" />
    <glyph glyph-name="Lcaron" unicode="&#x13d;" horiz-adv-x="733" 
d="M788 1393l127 -50l-184 -319l-88 41zM496 1366l-150 -1223h377l-18 -143h-529l168 1366h152z" />
    <glyph glyph-name="Lcaron026" unicode="&#x13e;" horiz-adv-x="569" 
d="M471 1493l-184 -1493h-148l185 1493h147zM653 1413l125 -49l-182 -320l-90 41z" />
    <glyph glyph-name="Ldot" unicode="&#x13f;" horiz-adv-x="731" 
d="M496 1366l-150 -1223h377l-18 -143h-529l168 1366h152zM580 684q6 47 41 82q39 31 86 31t75 -31q29 -36 23 -82q-6 -50 -41 -80q-36 -33 -86 -33t-76 33q-28 31 -22 80z" />
    <glyph glyph-name="Ldot027" unicode="&#x140;" horiz-adv-x="643" 
d="M471 1493l-184 -1493h-148l185 1493h147zM518 748q6 49 41 77q36 31 80 31q46 0 74 -31t22 -77q-6 -48 -41 -78q-36 -31 -82 -31q-45 0 -73 31q-27 33 -21 78z" />
    <glyph glyph-name="Lslash" unicode="&#x141;" horiz-adv-x="733" 
d="M496 1366l-66 -535l221 132l-16 -132l-221 -131l-68 -557h377l-18 -143h-529l76 625l-189 -113l17 131l188 113l76 610h152z" />
    <glyph glyph-name="lslash" unicode="&#x142;" horiz-adv-x="425" 
d="M471 1493l-59 -471l153 108l-16 -122l-152 -109l-110 -899h-148l99 805l-152 -109l14 123l154 109l70 565h147z" />
    <glyph glyph-name="Nacute" unicode="&#x143;" horiz-adv-x="1568" 
d="M1307 1714l-344 -239l-80 65l291 266zM176 0l174 1423l928 -1116l131 1059h152l-177 -1427l-927 1116l-129 -1055h-152z" />
    <glyph glyph-name="Nacute028" unicode="&#x144;" horiz-adv-x="962" 
d="M950 1294l-309 -276l-86 49l252 297zM244 850h147l-12 -98q21 25 49 47q38 30 86 49q55 22 123 22q75 0 137 -30q63 -29 92 -86q26 -51 29 -103q0 -55 -6 -125l-66 -526h-147l63 522q4 27 4 80q-3 39 -22 76q-34 61 -133 61q-40 0 -78 -14q-35 -10 -80 -51
q-48 -54 -65 -119q-21 -74 -23 -111l-55 -444h-148z" />
    <glyph glyph-name="Ncommaaccent" unicode="&#x145;" horiz-adv-x="1568" 
d="M176 0l174 1423l928 -1116l131 1059h152l-177 -1427l-927 1116l-129 -1055h-152zM733 -102l125 -50l-182 -319l-98 41z" />
    <glyph glyph-name="Ncommaaccent029" unicode="&#x146;" horiz-adv-x="962" 
d="M244 850h147l-12 -98q21 25 49 47q38 30 86 49q55 22 123 22q75 0 137 -30q63 -29 92 -86q26 -51 29 -103q0 -55 -6 -125l-66 -526h-147l63 522q4 27 4 80q-3 39 -22 76q-34 61 -133 61q-40 0 -78 -14q-35 -10 -80 -51q-48 -54 -65 -119q-21 -74 -23 -111l-55 -444h-148z
M420 -102l125 -50l-183 -319l-98 41z" />
    <glyph glyph-name="Ncaron" unicode="&#x147;" horiz-adv-x="1568" 
d="M1186 1804l96 -84l-315 -243l-258 243l116 84l162 -155zM176 0l174 1423l928 -1116l131 1059h152l-177 -1427l-927 1116l-129 -1055h-152z" />
    <glyph glyph-name="Ncaron030" unicode="&#x148;" horiz-adv-x="962" 
d="M864 1339l86 -73l-313 -248l-252 248l102 73l168 -165zM244 850h147l-12 -98q21 25 49 47q38 30 86 49q55 22 123 22q75 0 137 -30q63 -29 92 -86q26 -51 29 -103q0 -55 -6 -125l-66 -526h-147l63 522q4 27 4 80q-3 39 -22 76q-34 61 -133 61q-40 0 -78 -14
q-35 -10 -80 -51q-48 -54 -65 -119q-21 -74 -23 -111l-55 -444h-148z" />
    <glyph glyph-name="Omacron" unicode="&#x14c;" horiz-adv-x="1626" 
d="M686 1632h655l-16 -131h-655zM811 -25q-196 0 -348 93t-225 251q-76 158 -52 363q24 200 140 362q120 163 288 252q175 93 369 93q197 0 346 -93q150 -91 227 -252q76 -158 52 -362q-24 -201 -140 -363q-119 -161 -288 -251q-175 -93 -369 -93zM967 1245
q-232 0 -414 -164q-185 -170 -211 -399q-30 -231 113 -399q141 -164 372 -164q229 0 414 164q181 166 211 399q27 234 -113 399q-144 164 -372 164z" />
    <glyph glyph-name="Omacron031" unicode="&#x14d;" horiz-adv-x="1073" 
d="M371 1174h618l-14 -123h-619zM535 -25q-193 0 -308 127q-111 123 -90 320q24 192 168 321q145 127 338 127q195 0 307 -127t88 -321q-21 -191 -168 -320q-145 -127 -335 -127zM627 739q-116 0 -217 -82q-103 -80 -121 -235q-12 -105 22 -174t99 -107q65 -35 139 -35
q77 0 149 35q73 37 125 107t64 174q12 108 -21 176q-34 69 -96 107q-64 34 -143 34z" />
    <glyph glyph-name="Obreve" unicode="&#x14e;" horiz-adv-x="1626" 
d="M1341 1722q-25 -83 -79 -137q-30 -33 -101 -74q-64 -34 -166 -34q-101 0 -159 34q-61 41 -82 74q-41 56 -47 137h135q6 -36 43 -73q59 -41 125 -41q69 0 137 41q44 35 59 73h135zM811 -25q-196 0 -348 93t-225 251q-76 158 -52 363q24 200 140 362q120 163 288 252
q175 93 369 93q197 0 346 -93q150 -91 227 -252q76 -158 52 -362q-24 -201 -140 -363q-119 -161 -288 -251q-175 -93 -369 -93zM967 1245q-232 0 -414 -164q-185 -170 -211 -399q-30 -231 113 -399q141 -164 372 -164q229 0 414 164q181 166 211 399q27 234 -113 399
q-144 164 -372 164z" />
    <glyph glyph-name="Obreve032" unicode="&#x14f;" horiz-adv-x="1073" 
d="M520 1264q12 -56 39 -80q49 -43 117 -43t129 43q35 24 59 80h125q-17 -50 -39 -86q-30 -43 -35 -48q0 -1 -1 -2t-1 -2q-31 -34 -92 -73q-62 -35 -159 -35t-150 35q-55 39 -74 73l-4 4q-11 22 -20 48q-16 37 -19 86h125zM535 -25q-193 0 -308 127q-111 123 -90 320
q24 192 168 321q145 127 338 127q195 0 307 -127t88 -321q-21 -191 -168 -320q-145 -127 -335 -127zM627 739q-116 0 -217 -82q-103 -80 -121 -235q-12 -105 22 -174t99 -107q65 -35 139 -35q77 0 149 35q73 37 125 107t64 174q12 108 -21 176q-34 69 -96 107
q-64 34 -143 34z" />
    <glyph glyph-name="Ohungarumlaut" unicode="&#x150;" horiz-adv-x="1626" 
d="M1176 1724l-332 -249l-80 53l278 278zM1483 1724l-332 -249l-80 53l279 278zM811 -25q-196 0 -348 93t-225 251q-76 158 -52 363q24 200 140 362q120 163 288 252q175 93 369 93q197 0 346 -93q150 -91 227 -252q76 -158 52 -362q-24 -201 -140 -363q-119 -161 -288 -251
q-175 -93 -369 -93zM967 1245q-232 0 -414 -164q-185 -170 -211 -399q-30 -231 113 -399q141 -164 372 -164q229 0 414 164q181 166 211 399q27 234 -113 399q-144 164 -372 164z" />
    <glyph glyph-name="Ohungarumlaut033" unicode="&#x151;" horiz-adv-x="1073" 
d="M844 1298l-316 -278l-77 47l254 297zM1114 1298l-311 -278l-78 47l254 297zM535 -25q-193 0 -308 127q-111 123 -90 320q24 192 168 321q145 127 338 127q195 0 307 -127t88 -321q-21 -191 -168 -320q-145 -127 -335 -127zM627 739q-116 0 -217 -82q-103 -80 -121 -235
q-12 -105 22 -174t99 -107q65 -35 139 -35q77 0 149 35q73 37 125 107t64 174q12 108 -21 176q-34 69 -96 107q-64 34 -143 34z" />
    <glyph glyph-name="OE" unicode="&#x152;" horiz-adv-x="2162" 
d="M2210 1223h-547l-49 -406h532l-18 -143h-533l-63 -531h547l-19 -143h-698l33 262q-119 -149 -279 -219q-157 -68 -297 -68q-200 0 -354 97q-149 94 -227 256q-76 164 -52 352q21 192 140 354q113 157 288 258q180 97 371 97q159 0 295 -74q135 -73 217 -217l33 268h698z
M965 1245q-231 0 -414 -168q-182 -167 -209 -397q-27 -228 111 -395q141 -166 370 -166q231 0 412 166q181 163 211 393q27 233 -113 401q-141 166 -368 166z" />
    <glyph glyph-name="oe" unicode="&#x153;" horiz-adv-x="1744" 
d="M1708 397h-670q-9 -121 56 -207q69 -84 186 -84q90 0 166 54q74 55 113 129l116 -72q-65 -99 -170 -170q-110 -72 -245 -72q-10 0 -89 11q-61 8 -133 53q-65 42 -110 139q-72 -92 -176 -149q-105 -54 -222 -54q-192 0 -303 129q-111 126 -90 318q24 194 170 319
q144 129 338 129q136 0 219 -59t123 -143q65 92 133 137q76 45 135 53q61 12 99 12q192 0 286 -120q96 -122 72 -322zM625 739q-98 0 -166 -45q-70 -44 -117 -119q-40 -68 -53 -153q-15 -124 53 -219q69 -97 203 -97q72 0 147 35q71 33 125 103q54 73 66 174q15 136 -49 227
q-64 94 -209 94zM1571 520q-3 101 -68 160q-62 59 -160 59q-92 0 -167 -57q-77 -59 -111 -162h506z" />
    <glyph glyph-name="Racute" unicode="&#x154;" horiz-adv-x="1028" 
d="M993 1714l-344 -239l-80 65l291 266zM563 1366q69 0 160 -12q88 -12 162 -64q58 -40 92 -116q35 -77 20 -187q-18 -156 -125 -260q-108 -105 -264 -117l359 -610h-185l-342 598h-39l-73 -598h-152l168 1366h219zM418 733h96q138 0 229 66q88 67 103 184q6 61 -10 111
q-15 52 -74 90q-44 24 -92 33q-52 6 -101 6h-92z" />
    <glyph glyph-name="Racute034" unicode="&#x155;" horiz-adv-x="606" 
d="M827 1294l-309 -276l-86 49l252 297zM244 850h147l-12 -92q14 18 37 39q29 29 69 51q46 22 101 22q69 0 127 -34l-86 -134q-53 29 -82 29q-44 0 -76 -16q-30 -15 -49 -37q-25 -22 -43 -74q-24 -60 -35 -155l-55 -449h-148z" />
    <glyph glyph-name="Rcommaaccent" unicode="&#x156;" horiz-adv-x="1028" 
d="M563 1366q69 0 160 -12q88 -12 162 -64q58 -40 92 -116q35 -77 20 -187q-18 -156 -125 -260q-108 -105 -264 -117l359 -610h-185l-342 598h-39l-73 -598h-152l168 1366h219zM418 733h96q138 0 229 66q88 67 103 184q6 61 -10 111q-15 52 -74 90q-44 24 -92 33
q-52 6 -101 6h-92zM467 -102l125 -50l-182 -319l-99 41z" />
    <glyph glyph-name="Rcommaaccent035" unicode="&#x157;" horiz-adv-x="606" 
d="M244 850h147l-12 -92q14 18 37 39q29 29 69 51q46 22 101 22q69 0 127 -34l-86 -134q-53 29 -82 29q-44 0 -76 -16q-30 -15 -49 -37q-25 -22 -43 -74q-24 -60 -35 -155l-55 -449h-148zM236 -102l124 -50l-182 -319l-98 41z" />
    <glyph glyph-name="Rcaron" unicode="&#x158;" horiz-adv-x="1028" 
d="M872 1804l97 -84l-316 -243l-258 243l117 84l162 -155zM563 1366q69 0 160 -12q88 -12 162 -64q58 -40 92 -116q35 -77 20 -187q-18 -156 -125 -260q-108 -105 -264 -117l359 -610h-185l-342 598h-39l-73 -598h-152l168 1366h219zM418 733h96q138 0 229 66q88 67 103 184
q6 61 -10 111q-15 52 -74 90q-44 24 -92 33q-52 6 -101 6h-92z" />
    <glyph glyph-name="Rcaron036" unicode="&#x159;" horiz-adv-x="606" 
d="M762 1339l86 -73l-313 -248l-252 248l102 73l168 -165zM244 850h147l-12 -92q14 18 37 39q29 29 69 51q46 22 101 22q69 0 127 -34l-86 -134q-53 29 -82 29q-44 0 -76 -16q-30 -15 -49 -37q-25 -22 -43 -74q-24 -60 -35 -155l-55 -449h-148z" />
    <glyph glyph-name="Sacute" unicode="&#x15a;" horiz-adv-x="1060" 
d="M1053 1714l-344 -239l-80 65l291 266zM922 1096q-22 56 -68 102q-25 21 -53 33q-35 14 -94 14q-103 0 -175 -57q-69 -57 -81 -154q-6 -38 4 -67q12 -32 32 -52q55 -55 134 -86l122 -57q118 -47 197 -129q86 -102 68 -248q-24 -188 -162 -305q-139 -115 -322 -115
q-61 0 -145 23q-76 22 -139 88q-88 111 -97 242l152 41q6 -110 61 -174q39 -45 86 -60q53 -16 101 -16q94 0 159 39q68 43 103 100q39 64 45 131q12 92 -47 160q-54 51 -152 94l-116 57q-2 1 -5.5 3.5t-5.5 3.5q-74 26 -157 106q-44 47 -60 94q-17 50 -8 129q18 156 139 256
q126 97 287 97q127 0 213 -62q79 -60 113 -151z" />
    <glyph glyph-name="Sacute037" unicode="&#x15b;" horiz-adv-x="720" 
d="M799 1294l-310 -276l-86 49l252 297zM569 653q-24 86 -108 86q-38 0 -74 -22q-33 -23 -39 -74q-6 -44 23 -70q39 -28 98 -51q168 -74 197 -131q22 -31 28 -67q6 -34 0 -70q-15 -133 -110 -207q-93 -72 -215 -72q-5 0 -76 11q-59 10 -113 55q-58 46 -82 152l133 53
q2 -19 21 -56q14 -31 49 -59q31 -25 84 -25q72 0 113 44q40 50 43 92q9 60 -27 88q-33 29 -92 53q-144 62 -193 125q-19 32 -22 61q-3 32 0 64q12 112 92 174q75 63 184 63q28 0 64 -8q44 -9 84 -41q40 -34 67 -104z" />
    <glyph glyph-name="Scircumflex" unicode="&#x15c;" horiz-adv-x="1060" 
d="M563 1477l-96 84l315 243l258 -243l-116 -84l-162 155zM922 1096q-22 56 -68 102q-25 21 -53 33q-35 14 -94 14q-103 0 -175 -57q-69 -57 -81 -154q-6 -38 4 -67q12 -32 32 -52q55 -55 134 -86l122 -57q118 -47 197 -129q86 -102 68 -248q-24 -188 -162 -305
q-139 -115 -322 -115q-61 0 -145 23q-76 22 -139 88q-88 111 -97 242l152 41q6 -110 61 -174q39 -45 86 -60q53 -16 101 -16q94 0 159 39q68 43 103 100q39 64 45 131q12 92 -47 160q-54 51 -152 94l-116 57q-2 1 -5.5 3.5t-5.5 3.5q-74 26 -157 106q-44 47 -60 94
q-17 50 -8 129q18 156 139 256q126 97 287 97q127 0 213 -62q79 -60 113 -151z" />
    <glyph glyph-name="Scircumflex038" unicode="&#x15d;" horiz-adv-x="720" 
d="M313 1018l-86 74l314 247l252 -247l-103 -74l-168 166zM569 653q-24 86 -108 86q-38 0 -74 -22q-33 -23 -39 -74q-6 -44 23 -70q39 -28 98 -51q168 -74 197 -131q22 -31 28 -67q6 -34 0 -70q-15 -133 -110 -207q-93 -72 -215 -72q-5 0 -76 11q-59 10 -113 55
q-58 46 -82 152l133 53q2 -19 21 -56q14 -31 49 -59q31 -25 84 -25q72 0 113 44q40 50 43 92q9 60 -27 88q-33 29 -92 53q-144 62 -193 125q-19 32 -22 61q-3 32 0 64q12 112 92 174q75 63 184 63q28 0 64 -8q44 -9 84 -41q40 -34 67 -104z" />
    <glyph glyph-name="Scedilla" unicode="&#x15e;" horiz-adv-x="1060" 
d="M922 1096q-22 56 -68 102q-25 21 -53 33q-35 14 -94 14q-103 0 -175 -57q-69 -57 -81 -154q-6 -38 4 -67q12 -32 32 -52q55 -55 134 -86l122 -57q118 -47 197 -129q86 -102 68 -248q-24 -188 -162 -305q-139 -115 -322 -115q-61 0 -145 23q-76 22 -139 88
q-88 111 -97 242l152 41q6 -110 61 -174q39 -45 86 -60q53 -16 101 -16q94 0 159 39q68 43 103 100q39 64 45 131q12 92 -47 160q-54 51 -152 94l-116 57q-2 1 -5.5 3.5t-5.5 3.5q-74 26 -157 106q-44 47 -60 94q-17 50 -8 129q18 156 139 256q126 97 287 97q127 0 213 -62
q79 -60 113 -151zM643 -168l-246 -262l-96 53l207 271z" />
    <glyph glyph-name="Scedilla039" unicode="&#x15f;" horiz-adv-x="720" 
d="M569 653q-24 86 -108 86q-38 0 -74 -22q-33 -23 -39 -74q-6 -44 23 -70q39 -28 98 -51q168 -74 197 -131q22 -31 28 -67q6 -34 0 -70q-15 -133 -110 -207q-93 -72 -215 -72q-5 0 -76 11q-59 10 -113 55q-58 46 -82 152l133 53q2 -19 21 -56q14 -31 49 -59q31 -25 84 -25
q72 0 113 44q40 50 43 92q9 60 -27 88q-33 29 -92 53q-144 62 -193 125q-19 32 -22 61q-3 32 0 64q12 112 92 174q75 63 184 63q28 0 64 -8q44 -9 84 -41q40 -34 67 -104zM475 -162l-237 -262l-95 49l205 269z" />
    <glyph glyph-name="Scaron" unicode="&#x160;" horiz-adv-x="1060" 
d="M963 1804l96 -84l-316 -243l-258 243l117 84l162 -155zM922 1096q-22 56 -68 102q-25 21 -53 33q-35 14 -94 14q-103 0 -175 -57q-69 -57 -81 -154q-6 -38 4 -67q12 -32 32 -52q55 -55 134 -86l122 -57q118 -47 197 -129q86 -102 68 -248q-24 -188 -162 -305
q-139 -115 -322 -115q-61 0 -145 23q-76 22 -139 88q-88 111 -97 242l152 41q6 -110 61 -174q39 -45 86 -60q53 -16 101 -16q94 0 159 39q68 43 103 100q39 64 45 131q12 92 -47 160q-54 51 -152 94l-116 57q-2 1 -5.5 3.5t-5.5 3.5q-74 26 -157 106q-44 47 -60 94
q-17 50 -8 129q18 156 139 256q126 97 287 97q127 0 213 -62q79 -60 113 -151z" />
    <glyph glyph-name="scaron" unicode="&#x161;" horiz-adv-x="720" 
d="M729 1339l86 -73l-313 -248l-252 248l102 73l168 -165zM569 653q-24 86 -108 86q-38 0 -74 -22q-33 -23 -39 -74q-6 -44 23 -70q39 -28 98 -51q168 -74 197 -131q22 -31 28 -67q6 -34 0 -70q-15 -133 -110 -207q-93 -72 -215 -72q-5 0 -76 11q-59 10 -113 55
q-58 46 -82 152l133 53q2 -19 21 -56q14 -31 49 -59q31 -25 84 -25q72 0 113 44q40 50 43 92q9 60 -27 88q-33 29 -92 53q-144 62 -193 125q-19 32 -22 61q-3 32 0 64q12 112 92 174q75 63 184 63q28 0 64 -8q44 -9 84 -41q40 -34 67 -104z" />
    <glyph glyph-name="Tcedilla" unicode="&#x162;" horiz-adv-x="872" 
d="M662 1223l-150 -1223h-152l150 1223h-332l19 143h815l-19 -143h-331zM541 -168l-246 -262l-96 53l207 271z" />
    <glyph glyph-name="Tcedilla040" unicode="&#x163;" horiz-adv-x="438" 
d="M379 715l-88 -715h-148l88 715h-90l17 135h90l37 307h147l-37 -307h148l-17 -135h-147zM311 -162l-237 -262l-94 49l204 269z" />
    <glyph glyph-name="Tcaron" unicode="&#x164;" horiz-adv-x="872" 
d="M838 1804l96 -84l-316 -243l-258 243l117 84l162 -155zM662 1223l-150 -1223h-152l150 1223h-332l19 143h815l-19 -143h-331z" />
    <glyph glyph-name="Tcaron041" unicode="&#x165;" horiz-adv-x="565" 
d="M649 1413l125 -49l-182 -320l-90 41zM379 715l-88 -715h-148l88 715h-90l17 135h90l37 307h147l-37 -307h148l-17 -135h-147z" />
    <glyph glyph-name="Utilde" unicode="&#x168;" horiz-adv-x="1323" 
d="M569 1583q18 25 35 45l39 39q51 45 113 45q35 0 65 -12q20 -6 58 -27q16 -8 18 -10q41 -27 82 -27q11 0 31 4q14 7 26 19q17 17 25 29q10 12 22 28l68 -63q-19 -37 -57 -72q-36 -33 -70 -45q-38 -10 -61 -10q-34 0 -64 12q-10 3 -57 27q-1 0 -2 1t-2 1q-51 32 -95 32
q-36 0 -59 -26q-25 -25 -43 -49q0 -2 -2 -4zM393 528q-6 -40 -10 -116q-3 -63 14 -113q15 -56 64 -102q36 -36 98 -58q59 -20 117 -20q59 0 123 20q62 20 112 58q58 46 88 102q32 57 41 113q13 62 21 116l102 838h152l-109 -879q-9 -81 -37 -168q-23 -78 -88 -159
q-164 -185 -422 -185q-262 0 -376 185q-46 76 -52 159q-5 71 5 168l108 879h152z" />
    <glyph glyph-name="Utilde042" unicode="&#x169;" horiz-adv-x="954" 
d="M322 1067q23 32 34 45q5 5 13 13.5t14.5 15t11.5 10.5q51 45 113 45q38 0 65 -12q20 -6 58 -27q16 -8 18 -10q40 -27 82 -27q15 0 31 4q14 7 29 19q1 2 9 11.5t13 16.5q12 15 23 29l67 -63q-19 -37 -57 -72q-36 -33 -70 -45q-38 -10 -59 -10q-31 0 -66 12q-10 3 -57 27
q-1 0 -2 1t-2 1q-51 32 -94 32q-37 0 -60 -26q-25 -25 -43 -49q0 -2 -2 -4zM330 354q0 -1 -6 -92q0 -50 24 -90q21 -29 47 -45q34 -21 94 -21q63 0 101 21q33 17 57 45q34 37 47 90q9 36 17 92l61 496h148l-64 -512q-9 -74 -31 -139q-21 -61 -77 -117q-67 -61 -138 -82
q-77 -25 -135 -25q-61 0 -131 25q-66 21 -117 82q-43 55 -49 117q-7 67 2 139l64 512h147z" />
    <glyph glyph-name="Umacron" unicode="&#x16a;" horiz-adv-x="1323" 
d="M535 1632h655l-16 -131h-656zM393 528q-6 -40 -10 -116q-3 -63 14 -113q15 -56 64 -102q36 -36 98 -58q59 -20 117 -20q59 0 123 20q62 20 112 58q58 46 88 102q32 57 41 113q13 62 21 116l102 838h152l-109 -879q-9 -81 -37 -168q-23 -78 -88 -159q-164 -185 -422 -185
q-262 0 -376 185q-46 76 -52 159q-5 71 5 168l108 879h152z" />
    <glyph glyph-name="Umacron043" unicode="&#x16b;" horiz-adv-x="954" 
d="M311 1174h619l-15 -123h-618zM330 354q0 -1 -6 -92q0 -50 24 -90q21 -29 47 -45q34 -21 94 -21q63 0 101 21q33 17 57 45q34 37 47 90q9 36 17 92l61 496h148l-64 -512q-9 -74 -31 -139q-21 -61 -77 -117q-67 -61 -138 -82q-77 -25 -135 -25q-61 0 -131 25
q-66 21 -117 82q-43 55 -49 117q-7 67 2 139l64 512h147z" />
    <glyph glyph-name="Ubreve" unicode="&#x16c;" horiz-adv-x="1323" 
d="M1190 1722q-25 -82 -80 -137q-31 -34 -100 -74q-64 -34 -166 -34t-160 34q-61 41 -82 74q-41 56 -47 137h135q6 -36 43 -73q59 -41 125 -41q69 0 137 41q45 37 60 73h135zM393 528q-6 -40 -10 -116q-3 -63 14 -113q15 -56 64 -102q36 -36 98 -58q59 -20 117 -20
q59 0 123 20q62 20 112 58q58 46 88 102q32 57 41 113q13 62 21 116l102 838h152l-109 -879q-9 -81 -37 -168q-23 -78 -88 -159q-164 -185 -422 -185q-262 0 -376 185q-46 76 -52 159q-5 71 5 168l108 879h152z" />
    <glyph glyph-name="Ubreve044" unicode="&#x16d;" horiz-adv-x="954" 
d="M461 1264q12 -56 39 -80q49 -43 116 -43q68 0 129 43q36 25 60 80h125q-17 -50 -39 -86q-30 -43 -35 -48q0 -1 -1 -2t-1 -2q-31 -34 -92 -73q-62 -35 -160 -35q-96 0 -149 35q-55 39 -74 73l-4 4q-14 28 -21 48q-15 35 -18 86h125zM330 354q0 -1 -6 -92q0 -50 24 -90
q21 -29 47 -45q34 -21 94 -21q63 0 101 21q33 17 57 45q34 37 47 90q9 36 17 92l61 496h148l-64 -512q-9 -74 -31 -139q-21 -61 -77 -117q-67 -61 -138 -82q-77 -25 -135 -25q-61 0 -131 25q-66 21 -117 82q-43 55 -49 117q-7 67 2 139l64 512h147z" />
    <glyph glyph-name="Uring" unicode="&#x16e;" horiz-adv-x="1323" 
d="M686 1675q9 72 70 127q62 53 133 53q74 0 121 -53q46 -52 37 -127q-9 -74 -68 -127q-62 -53 -133 -53q-74 0 -121 53q-48 54 -39 127zM782 1677q-6 -34 19 -59q21 -27 55 -27q37 0 64 27q28 22 34 59q3 37 -20 60q-20 26 -55 26q-38 0 -64 -26q-30 -24 -33 -60zM393 528
q-6 -40 -10 -116q-3 -63 14 -113q15 -56 64 -102q36 -36 98 -58q59 -20 117 -20q59 0 123 20q62 20 112 58q58 46 88 102q32 57 41 113q13 62 21 116l102 838h152l-109 -879q-9 -81 -37 -168q-23 -78 -88 -159q-164 -185 -422 -185q-262 0 -376 185q-46 76 -52 159
q-5 71 5 168l108 879h152z" />
    <glyph glyph-name="Uring045" unicode="&#x16f;" horiz-adv-x="954" 
d="M449 1194q6 72 65 125q57 51 131 51t119 -51q43 -52 37 -125q-9 -72 -68 -125q-57 -51 -131 -51q-75 0 -117 51q-45 51 -36 125zM539 1194q-6 -35 18 -59q21 -27 55 -27q37 0 64 27q29 23 35 59q3 35 -21 59q-21 27 -55 27q-37 0 -64 -27q-29 -23 -32 -59zM330 354
q0 -1 -6 -92q0 -50 24 -90q21 -29 47 -45q34 -21 94 -21q63 0 101 21q33 17 57 45q34 37 47 90q9 36 17 92l61 496h148l-64 -512q-9 -74 -31 -139q-21 -61 -77 -117q-67 -61 -138 -82q-77 -25 -135 -25q-61 0 -131 25q-66 21 -117 82q-43 55 -49 117q-7 67 2 139l64 512h147
z" />
    <glyph glyph-name="Uhungarumlaut" unicode="&#x170;" horiz-adv-x="1323" 
d="M1024 1724l-332 -249l-80 53l279 278zM1331 1724l-332 -249l-79 53l278 278zM393 528q-6 -40 -10 -116q-3 -63 14 -113q15 -56 64 -102q36 -36 98 -58q59 -20 117 -20q59 0 123 20q62 20 112 58q58 46 88 102q32 57 41 113q13 62 21 116l102 838h152l-109 -879
q-9 -81 -37 -168q-23 -78 -88 -159q-164 -185 -422 -185q-262 0 -376 185q-46 76 -52 159q-5 71 5 168l108 879h152z" />
    <glyph glyph-name="Uhungarumlaut046" unicode="&#x171;" horiz-adv-x="954" 
d="M784 1298l-315 -278l-78 47l254 297zM1055 1298l-312 -278l-77 47l254 297zM330 354q0 -1 -6 -92q0 -50 24 -90q21 -29 47 -45q34 -21 94 -21q63 0 101 21q33 17 57 45q34 37 47 90q9 36 17 92l61 496h148l-64 -512q-9 -74 -31 -139q-21 -61 -77 -117q-67 -61 -138 -82
q-77 -25 -135 -25q-61 0 -131 25q-66 21 -117 82q-43 55 -49 117q-7 67 2 139l64 512h147z" />
    <glyph glyph-name="Uogonek" unicode="&#x172;" horiz-adv-x="1323" 
d="M389 502q-8 -61 -4 -148q6 -74 57 -137q98 -98 234 -98q59 0 123 20q62 20 112 58q58 46 88 102q33 60 41 109q15 70 17 98l106 860h152l-109 -879q-9 -74 -39 -176q-29 -99 -123 -190q-74 -61 -165 -105l-31 -16q-2 0 -2 -2q-67 -29 -129 -84q-47 -50 -53 -98
q-6 -36 18 -60q18 -15 39 -18q28 -4 39 -4q54 0 102 26l-33 -120q-73 -29 -122 -29q-95 0 -150 61q-35 47 -29 115q9 69 60 123q32 40 71 65q-106 0 -210 43q-105 43 -166 142q-46 75 -52 157q-5 72 5 170l108 879h152z" />
    <glyph glyph-name="Uogonek047" unicode="&#x173;" horiz-adv-x="954" 
d="M330 354q0 -1 -6 -92q0 -50 24 -90q21 -29 47 -45q34 -21 94 -21q63 0 101 21q33 17 57 45q34 37 47 90q9 36 17 92l61 496h148l-64 -512q-4 -39 -27 -129q-22 -71 -81 -127q-59 -49 -109 -72q-4 -2 -12.5 -7t-12.5 -7q-84 -49 -112 -84q-33 -36 -39 -53q-10 -21 -14 -43
q-6 -45 18 -60q36 -22 78 -22q54 0 102 26l-31 -112q-44 -21 -67 -23q-30 -6 -53 -6q-97 0 -142 57q-16 17 -26 45q-9 27 -6 68q9 61 47 107q4 8 24 28q29 29 62 51q-124 0 -228 107q-43 55 -49 117q-7 67 2 139l64 512h147z" />
    <glyph glyph-name="Ydieresis" unicode="&#x178;" horiz-adv-x="1085" 
d="M440 1606q6 45 41 73q36 31 78 31t70 -31q26 -32 20 -73q-3 -43 -39 -74t-78 -31q-41 0 -69 31q-26 29 -23 74zM829 1606q6 45 41 73q36 31 78 31t70 -31q26 -32 20 -73q-3 -43 -39 -74t-77 -31q-42 0 -70 31q-26 29 -23 74zM537 588l-353 778h176l273 -610l428 610h176
l-549 -778l-72 -588h-151z" />
    <glyph glyph-name="Zacute" unicode="&#x179;" horiz-adv-x="1097" 
d="M1071 1714l-344 -239l-80 65l291 266zM322 143h725l-19 -143h-979l895 1223h-649l18 143h904z" />
    <glyph glyph-name="Zacute048" unicode="&#x17a;" horiz-adv-x="942" 
d="M909 1294l-309 -276l-86 49l252 297zM328 135h590l-17 -135h-885l703 715h-496l17 135h790z" />
    <glyph glyph-name="Zdotaccent" unicode="&#x17b;" horiz-adv-x="1097" 
d="M657 1606q6 48 43 82q34 30 84 30q51 0 78 -30q27 -34 21 -82q-6 -52 -41 -80q-36 -33 -84 -33q-52 0 -78 33q-29 32 -23 80zM322 143h725l-19 -143h-979l895 1223h-649l18 143h904z" />
    <glyph glyph-name="Zdotaccent049" unicode="&#x17c;" horiz-adv-x="942" 
d="M543 1133q6 49 41 77q36 31 80 31q45 0 73 -31q29 -32 23 -77q-6 -48 -41 -78q-36 -31 -82 -31q-47 0 -72 31q-28 31 -22 78zM328 135h590l-17 -135h-885l703 715h-496l17 135h790z" />
    <glyph glyph-name="Zcaron" unicode="&#x17d;" horiz-adv-x="1097" 
d="M975 1804l96 -84l-315 -243l-258 243l116 84l162 -155zM322 143h725l-19 -143h-979l895 1223h-649l18 143h904z" />
    <glyph glyph-name="zcaron" unicode="&#x17e;" horiz-adv-x="942" 
d="M864 1339l86 -73l-313 -248l-252 248l102 73l168 -165zM328 135h590l-17 -135h-885l703 715h-496l17 135h790z" />
    <glyph glyph-name="Schwa" unicode="&#x18f;" horiz-adv-x="1548" 
d="M291 1092q72 84 178 161q115 80 223 105q118 31 211 31q308 0 486 -205q179 -203 141 -502q-38 -300 -262 -502q-227 -205 -529 -205q-180 0 -301 74q-120 70 -178 172q-55 92 -72 205q-19 103 -6 227l4 33h1188q18 153 -37 281q-56 128 -170 202q-116 76 -282 76
q-122 0 -209 -35q-90 -41 -137 -80q-79 -57 -148 -141zM326 543q-6 -133 30 -195q116 -229 389 -229q201 0 363 119q164 115 235 305h-1017z" />
    <glyph glyph-name="florin" unicode="&#x192;" horiz-adv-x="1163" 
d="M743 727l-208 -674q-26 -91 -60 -164q-38 -81 -104 -141q-116 -96 -297 -96q-57 0 -84 8l43 131q28 -4 51 -4q28 0 86 10q55 9 104 49q71 62 132 263l188 618h-148l33 123h152l112 367q34 110 72 163q40 56 57 68q49 43 101 55q57 13 96 13q43 0 78 -7q41 -11 51 -14
l-45 -137q-42 22 -90 22q-62 0 -94 -32q-16 -11 -39 -52q-23 -42 -49 -120l-101 -326h217l-32 -123h-222z" />
    <glyph glyph-name="Ohorn" unicode="&#x1a0;" horiz-adv-x="1626" 
d="M1327 1298q152 -93 227 -249q79 -157 54 -367q-24 -201 -140 -363q-119 -161 -288 -251q-175 -93 -369 -93q-196 0 -348 93t-225 251q-76 158 -52 363q24 200 140 362q120 163 288 252q175 93 369 93q86 0 180 -23q123 -3 183 150h124q-31 -147 -143 -218zM827 119
q229 0 414 164q181 166 211 399q27 234 -113 399q-144 164 -372 164q-232 0 -414 -164q-185 -170 -211 -399q-30 -231 113 -399q141 -164 372 -164z" />
    <glyph glyph-name="Ohorn056" unicode="&#x1a1;" horiz-adv-x="1073" 
d="M918 776q147 -132 120 -354q-21 -191 -168 -320q-145 -127 -335 -127q-193 0 -308 127q-111 123 -90 320q24 192 168 321q145 127 338 127q73 0 137 -18q113 6 166 147h125q-35 -153 -153 -223zM549 106q77 0 149 35q73 37 125 107t64 174q12 108 -21 176q-34 69 -96 107
q-64 34 -143 34q-116 0 -217 -82q-103 -80 -121 -235q-12 -105 22 -174t99 -107q65 -35 139 -35z" />
    <glyph glyph-name="Uhorn" unicode="&#x1af;" horiz-adv-x="1323" 
d="M1526 1516q-47 -197 -223 -256l-97 -773q-9 -81 -37 -168q-23 -78 -88 -159q-164 -185 -422 -185q-262 0 -376 185q-46 76 -52 159q-5 71 5 168l108 879h152l-103 -838q-6 -40 -10 -116q-3 -63 14 -113q15 -56 64 -102q36 -36 98 -58q59 -20 117 -20q59 0 123 20
q62 20 112 58q58 46 88 102q32 57 41 113q13 62 21 116l102 838h47q63 0 113 35q51 36 78 115h125z" />
    <glyph glyph-name="Uhorn057" unicode="&#x1b0;" horiz-adv-x="954" 
d="M1100 999q-40 -175 -193 -243l-51 -418q-9 -74 -31 -139q-21 -61 -77 -117q-67 -61 -138 -82q-77 -25 -135 -25q-61 0 -131 25q-66 21 -117 82q-43 55 -49 117q-7 67 2 139l64 512h147l-61 -496q0 -1 -6 -92q0 -50 24 -90q21 -29 47 -45q34 -21 94 -21q63 0 101 21
q33 17 57 45q34 37 47 90q9 36 17 92l61 496h12q63 0 113 35q51 36 78 114h125z" />
    <glyph glyph-name="Icaron" unicode="&#x1cf;" horiz-adv-x="503" 
d="M653 1804l97 -84l-316 -243l-258 243l117 84l162 -155zM494 1366l-168 -1366h-152l168 1366h152z" />
    <glyph glyph-name="Icaron050" unicode="&#x1d0;" horiz-adv-x="425" 
d="M528 1323l80 -72l-268 -217l-215 217l96 72l137 -137zM391 850l-104 -850h-148l105 850h147z" />
    <glyph glyph-name="eturned" unicode="&#x1dd;" horiz-adv-x="987" 
d="M170 629q48 76 121 137q77 62 151 82q80 22 144 22q105 0 194 -45q95 -48 142 -143q51 -95 32 -256q-24 -192 -149 -320q-125 -131 -320 -131q-124 0 -198 50q-80 54 -107 106q-74 141 -39 320h664q12 136 -57 211q-68 77 -181 77q-104 0 -180 -61q-62 -48 -102 -117z
M279 328q3 -100 63 -160q62 -62 158 -62t170 62q79 63 108 160h-499z" />
    <glyph glyph-name="Gcaron" unicode="&#x1e6;" horiz-adv-x="1552" 
d="M1178 1804l96 -84l-316 -243l-258 243l117 84l162 -155zM965 686h569l-4 -33q-12 -111 -62 -227q-47 -118 -122 -205q-16 -23 -91 -88q-62 -54 -180 -108q-112 -50 -266 -50q-306 0 -481 205q-179 204 -142 502q38 300 265 502q230 205 534 205q93 0 205 -31
q102 -26 196 -105q93 -83 138 -161l-125 -103q-49 85 -111 141q-35 35 -119 78q-75 37 -198 37q-248 0 -424 -164q-179 -166 -205 -401q-24 -185 47 -311q67 -124 189 -187q120 -63 249 -63q139 0 256 63q118 62 191 166q50 65 80 195h-406z" />
    <glyph glyph-name="Gcaron051" unicode="&#x1e7;" horiz-adv-x="1077" 
d="M891 1339l86 -73l-313 -248l-252 248l102 73l168 -165zM895 850h147l-102 -830q-8 -57 -31 -159q-21 -88 -92 -174q-54 -66 -147 -113q-89 -45 -211 -45q-108 0 -180 35q-73 36 -109 80q-44 47 -66 112q-24 68 -12 162h146q-12 -110 45 -176q42 -52 92 -66
q56 -16 102 -16q158 0 240 119q40 56 51 108q18 68 23 109l14 123q-45 -51 -119 -96q-79 -48 -188 -48q-99 0 -164 33q-63 27 -115 82q-40 43 -67 125q-31 84 -13 211q15 124 62 205q44 76 100 125q135 114 305 114q190 0 275 -141zM606 739q-68 0 -117 -24q-39 -18 -83 -56
q-59 -53 -84 -118t-31 -115q-8 -49 2 -123q9 -71 63 -127q27 -31 72 -51q46 -19 100 -19q116 0 197 72q107 93 125 246q18 154 -59 240q-69 75 -185 75z" />
    <glyph glyph-name="AEacute" unicode="&#x1fc;" horiz-adv-x="1843" 
d="M1444 1714l-344 -239l-80 65l291 266zM987 383h-581l-209 -383h-168l776 1366h600l41 -143h-551l121 -406h540l41 -143h-536l158 -531h555l41 -143h-713zM946 526l-160 535l-297 -535h457z" />
    <glyph glyph-name="AEacute052" unicode="&#x1fd;" horiz-adv-x="1585" 
d="M1231 1294l-309 -276l-86 49l251 297zM1516 213q-43 -63 -93 -111q-55 -52 -135 -90q-78 -37 -184 -37q-22 0 -94 11q-60 10 -115 45q-60 38 -104 114q-57 -75 -117 -110q-61 -37 -121 -49q-71 -11 -102 -11q-99 0 -181 31q-79 30 -123 92q-42 60 -30 154q18 135 129 209
q115 71 260 71q152 0 235 -71q7 45 4 88q-3 53 -22 92q-24 55 -74 76q-52 22 -117 22q-72 0 -149 -18q-55 -13 -119 -35l17 139q95 29 153 37q57 8 117 8q41 0 106 -10q65 -13 113 -47q57 -44 82 -115q60 80 154 129q90 43 194 43q187 0 281 -125q93 -124 69 -335l-2 -15
h-663q-9 -131 57 -209q65 -80 174 -80q88 0 164 54q77 55 121 127zM1411 518q-3 105 -65 164q-63 57 -160 57q-93 0 -168 -57q-81 -62 -109 -164h502zM502 401q-109 0 -170 -43q-59 -47 -68 -106q-3 -27 10 -64q16 -37 60 -57q45 -25 127 -25q81 0 139 25q57 26 78 59
q26 38 29 68q6 28 -13 64q-14 32 -63 57q-46 22 -129 22z" />
    <glyph glyph-name="Scommaaccent" unicode="&#x218;" horiz-adv-x="1060" 
d="M922 1096q-22 56 -68 102q-25 21 -53 33q-35 14 -94 14q-103 0 -175 -57q-69 -57 -81 -154q-6 -38 4 -67q12 -32 32 -52q55 -55 134 -86l122 -57q118 -47 197 -129q86 -102 68 -248q-24 -188 -162 -305q-139 -115 -322 -115q-61 0 -145 23q-76 22 -139 88
q-88 111 -97 242l152 41q6 -110 61 -174q39 -45 86 -60q53 -16 101 -16q94 0 159 39q68 43 103 100q39 64 45 131q12 92 -47 160q-54 51 -152 94l-116 57q-2 1 -5.5 3.5t-5.5 3.5q-74 26 -157 106q-44 47 -60 94q-17 50 -8 129q18 156 139 256q126 97 287 97q127 0 213 -62
q79 -60 113 -151zM487 -102l125 -50l-182 -319l-98 41z" />
    <glyph glyph-name="Scommaaccent053" unicode="&#x219;" horiz-adv-x="720" 
d="M569 653q-24 86 -108 86q-38 0 -74 -22q-33 -23 -39 -74q-6 -44 23 -70q39 -28 98 -51q168 -74 197 -131q22 -31 28 -67q6 -34 0 -70q-15 -133 -110 -207q-93 -72 -215 -72q-5 0 -76 11q-59 10 -113 55q-58 46 -82 152l133 53q2 -19 21 -56q14 -31 49 -59q31 -25 84 -25
q72 0 113 44q40 50 43 92q9 60 -27 88q-33 29 -92 53q-144 62 -193 125q-19 32 -22 61q-3 32 0 64q12 112 92 174q75 63 184 63q28 0 64 -8q44 -9 84 -41q40 -34 67 -104zM328 -102l125 -50l-183 -319l-98 41z" />
    <glyph glyph-name="Tcommaaccent" unicode="&#x21a;" horiz-adv-x="872" 
d="M662 1223l-150 -1223h-152l150 1223h-332l19 143h815l-19 -143h-331zM365 -102l124 -50l-182 -319l-98 41z" />
    <glyph glyph-name="Tcommaaccent054" unicode="&#x21b;" horiz-adv-x="438" 
d="M379 715l-88 -715h-148l88 715h-90l17 135h90l37 307h147l-37 -307h148l-17 -135h-147zM164 -102l125 -50l-183 -319l-98 41z" />
    <glyph glyph-name="uni0228" unicode="&#x228;" horiz-adv-x="987" 
d="M1034 1223h-557l-49 -406h541l-19 -143h-540l-64 -531h557l-18 -143h-709l168 1366h709zM645 -168l-246 -262l-96 53l207 271z" />
    <glyph glyph-name="uni0229" unicode="&#x229;" horiz-adv-x="985" 
d="M920 217q-48 -76 -121 -137q-132 -105 -295 -105q-106 0 -195 45q-90 47 -141 144q-49 98 -31 256q24 189 150 321q126 129 317 129q126 0 199 -49q76 -51 104 -106q34 -57 43 -146q11 -80 -2 -174h-661q-12 -135 55 -211q69 -78 178 -78q105 0 182 62q66 54 103 117z
M811 518q-6 96 -68 162q-62 59 -155 59q-94 0 -170 -61q-77 -62 -107 -160h500zM639 -162l-238 -262l-94 49l205 269z" />
    <glyph glyph-name="uni0237" unicode="&#x237;" horiz-adv-x="425" 
d="M391 850l-162 -1321h-147l162 1321h147z" />
    <glyph glyph-name="uni0259" unicode="&#x259;" horiz-adv-x="987" 
d="M170 629q48 76 121 137q77 62 151 82q80 22 144 22q105 0 194 -45q95 -48 142 -143q51 -95 32 -256q-24 -192 -149 -320q-125 -131 -320 -131q-124 0 -198 50q-80 54 -107 106q-74 141 -39 320h664q12 136 -57 211q-68 77 -181 77q-104 0 -180 -61q-62 -48 -102 -117z
M279 328q3 -100 63 -160q62 -62 158 -62t170 62q79 63 108 160h-499z" />
    <glyph glyph-name="uni02BC" unicode="&#x2bc;" 
d="M670 1413l125 -49l-183 -320l-90 41z" />
    <glyph glyph-name="circumflex" unicode="&#x2c6;" horiz-adv-x="1228" 
d="M465 1018l-76 67l285 226l227 -226l-92 -67l-154 151z" />
    <glyph glyph-name="caron" unicode="&#x2c7;" 
d="M864 1339l86 -73l-313 -248l-252 248l102 73l168 -165z" />
    <glyph glyph-name="uni02C9" unicode="&#x2c9;" 
d="M346 1174h619l-15 -123h-618z" />
    <glyph glyph-name="breve" unicode="&#x2d8;" horiz-adv-x="1228" 
d="M522 1241q9 -50 31 -72q42 -39 98 -39t107 39q29 23 47 72h104q-12 -44 -30 -74q-6 -11 -16 -26t-11 -17q-2 -2 -3.5 -4.5t-2.5 -3.5q-29 -37 -78 -65q-47 -33 -131 -33t-123 33q-42 29 -61 65l-4 8q-16 40 -17 43q-12 39 -14 74h104z" />
    <glyph glyph-name="dotaccent" unicode="&#x2d9;" 
d="M543 1133q6 49 41 77q36 31 80 31q45 0 73 -31q29 -32 23 -77q-6 -48 -41 -78q-36 -31 -82 -31q-47 0 -72 31q-28 31 -22 78z" />
    <glyph glyph-name="ring" unicode="&#x2da;" 
d="M483 1194q6 71 66 125q57 51 131 51t119 -51q43 -52 37 -125q-9 -72 -68 -125q-57 -51 -131 -51q-75 0 -117 51q-46 52 -37 125zM573 1194q-6 -34 19 -59q21 -27 55 -27q37 0 64 27q28 22 34 59q3 36 -20 59q-21 27 -55 27q-37 0 -64 -27q-30 -24 -33 -59z" />
    <glyph glyph-name="ogonek" unicode="&#x2db;" 
d="M686 -352q-43 -19 -65 -23q-30 -6 -54 -6q-78 0 -129 45q-56 47 -47 125q9 67 66 131q21 21 39 37q25 22 69 43h119q-20 -12 -55 -37q-36 -28 -51 -43q-12 -12 -33 -39q-25 -35 -27 -65q-3 -33 17 -56q17 -26 79 -26q64 0 103 26z" />
    <glyph glyph-name="tilde" unicode="&#x2dc;" horiz-adv-x="1228" 
d="M358 1081q18 25 35 45q5 5 13 13.5t14.5 15t11.5 10.5q51 45 113 45q35 0 65 -12q20 -6 58 -27q3 -2 9 -5t9 -5q39 -26 82 -26q11 0 31 4q9 5 26 18q17 17 25 29q10 12 22 28l68 -63q-19 -37 -57 -72q-36 -33 -70 -45q-38 -10 -61 -10q-34 0 -64 12q-10 3 -57 27
q-1 0 -2 1t-2 1q-53 33 -95 33q-35 0 -59 -27q-25 -25 -43 -49q0 -1 -1 -2t-1 -2z" />
    <glyph glyph-name="hungarumlaut" unicode="&#x2dd;" 
d="M819 1298l-315 -278l-78 47l254 297zM1090 1298l-312 -278l-78 47l254 297z" />
    <glyph glyph-name="gravecomb" unicode="&#x300;" horiz-adv-x="0" 
d="M-618 1270l145 63l164 -270l-88 -45z" />
    <glyph glyph-name="acutecomb" unicode="&#x301;" horiz-adv-x="0" 
d="M-94 1270l-281 -252l-78 45l230 270z" />
    <glyph glyph-name="uni0302" unicode="&#x302;" horiz-adv-x="0" 
d="M-559 1018l-76 67l285 226l227 -226l-92 -67l-154 151z" />
    <glyph glyph-name="tildecomb" unicode="&#x303;" horiz-adv-x="0" 
d="M-666 1081q18 25 35 45q5 5 13 13.5t14.5 15t11.5 10.5q51 45 113 45q35 0 65 -12q20 -6 58 -27q3 -2 9 -5t9 -5q39 -26 82 -26q11 0 31 4q9 5 26 18q17 17 25 29q10 12 22 28l68 -63q-19 -37 -57 -72q-36 -33 -70 -45q-38 -10 -61 -10q-34 0 -64 12q-10 3 -57 27
q-1 0 -2 1t-2 1q-53 33 -95 33q-35 0 -59 -27q-25 -25 -43 -49q0 -1 -1 -2t-1 -2z" />
    <glyph glyph-name="uni0306" unicode="&#x306;" horiz-adv-x="0" 
d="M-502 1241q9 -50 31 -72q42 -39 98 -39t107 39q29 23 47 72h104q-12 -44 -30 -74q-6 -11 -16 -26t-11 -17q-2 -2 -3.5 -4.5t-2.5 -3.5q-29 -37 -78 -65q-47 -33 -131 -33t-123 33q-42 29 -61 65l-4 8q-16 40 -17 43q-12 39 -14 74h104z" />
    <glyph glyph-name="hookabovecomb" unicode="&#x309;" horiz-adv-x="0" 
d="M-694 1016q13 32 32 51q12 12 48 39q39 35 45 41q21 21 24 49q6 58 -45 61q-28 0 -57 -16q-29 -22 -60 -61l-71 45q80 127 207 127q69 0 116 -41q44 -41 35 -103q-3 -39 -33 -78q-31 -36 -65 -63q-51 -44 -76 -80z" />
    <glyph glyph-name="uni031B" unicode="&#x31b;" horiz-adv-x="0" 
d="M-612 850q62 0 112 35q51 36 78 114h125q-27 -127 -121 -200q-93 -72 -209 -72z" />
    <glyph glyph-name="dotbelowcomb" unicode="&#x323;" horiz-adv-x="0" 
d="M-649 -231q6 47 41 77q36 31 82 31q45 0 73 -31q27 -33 21 -77q-7 -50 -41 -78q-36 -31 -80 -31q-46 0 -74 31t-22 78z" />
    <glyph glyph-name="Delta" unicode="&#x394;" horiz-adv-x="1368" 
d="M57 0l717 1366h156l381 -1366h-1254zM293 143h819l-285 1033z" />
    <glyph glyph-name="Omega" unicode="&#x3a9;" horiz-adv-x="1368" 
d="M795 143q171 86 299 232q45 51 90 139q41 78 57 207q19 158 -16 250q-34 97 -90 153q-46 49 -119 86q-75 35 -178 35q-105 0 -189 -35q-85 -39 -141 -86q-65 -54 -127 -153q-60 -102 -78 -250q-15 -126 8 -207q19 -78 54 -139q94 -146 245 -232l-18 -143h-533l19 143h366
q-144 81 -223 211q-51 87 -67 185t-4 196q18 152 86 279q70 128 161 207q71 65 185 116q113 52 272 52q161 0 262 -52q103 -53 154 -116q71 -80 110 -207q37 -125 19 -279q-12 -106 -51 -196q-44 -103 -115 -185q-114 -132 -272 -211h366l-18 -143h-533z" />
    <glyph glyph-name="pi" unicode="&#x3c0;" horiz-adv-x="1101" 
d="M209 0l88 715h-152l17 135h987l-16 -135h-152l-88 -715h-148l89 715h-390l-88 -715h-147z" />
    <glyph glyph-name="uni0401" unicode="&#x401;" horiz-adv-x="987" 
d="M426 1606q6 45 41 73q36 31 78 31q41 0 69 -31q26 -33 21 -73q-3 -43 -39 -74t-78 -31q-41 0 -69 31q-26 29 -23 74zM815 1606q6 45 41 73q36 31 78 31t70 -31q26 -32 20 -73q-3 -43 -39 -74t-78 -31q-41 0 -69 31q-26 29 -23 74zM1034 1223h-557l-49 -406h541l-19 -143
h-540l-64 -531h557l-18 -143h-709l168 1366h709z" />
    <glyph glyph-name="uni0402" unicode="&#x402;" horiz-adv-x="1323" 
d="M657 1223l-53 -435q161 48 287 48q134 0 215 -37q82 -37 127 -101q38 -55 51 -137q11 -75 2 -164q-18 -137 -72 -217q-57 -82 -112 -117q-62 -41 -139 -59q-82 -16 -146 -16q-63 0 -137 12l18 143q61 -12 127 -12q45 0 103 10q50 12 94 45q53 42 78 99q25 66 30 114
q15 129 -32 199q-31 42 -90 68q-56 26 -148 26q-123 0 -272 -47l-80 -645h-152l150 1223h-328l19 143h893l-19 -143h-414z" />
    <glyph glyph-name="uni0403" unicode="&#x403;" horiz-adv-x="827" 
d="M1014 1714l-344 -239l-80 65l291 266zM344 1366h623l-19 -143h-471l-149 -1223h-152z" />
    <glyph glyph-name="uni0404" unicode="&#x404;" horiz-adv-x="1320" 
d="M1350 1065q-105 105 -164 123q-126 57 -268 57q-213 0 -363 -135q-151 -130 -195 -332h791l-18 -143h-797q-24 -238 110 -375q135 -141 334 -141q135 0 303 67q98 43 172 111l-22 -188q-139 -80 -262 -107t-207 -27q-204 0 -344 93q-137 91 -199 251q-59 160 -35 359
q25 207 125 364q106 166 264 254q166 93 369 93q88 0 207 -29q108 -26 221 -107z" />
    <glyph glyph-name="uni0405" unicode="&#x405;" horiz-adv-x="1060" 
d="M922 1096q-22 56 -68 102q-25 21 -53 33q-35 14 -94 14q-103 0 -175 -57q-69 -57 -81 -154q-6 -38 4 -67q12 -32 32 -52q55 -55 134 -86l122 -57q118 -47 197 -129q86 -102 68 -248q-24 -188 -162 -305q-139 -115 -322 -115q-61 0 -145 23q-76 22 -139 88
q-88 111 -97 242l152 41q6 -110 61 -174q39 -45 86 -60q53 -16 101 -16q94 0 159 39q68 43 103 100q39 64 45 131q12 92 -47 160q-54 51 -152 94l-116 57q-2 1 -5.5 3.5t-5.5 3.5q-74 26 -157 106q-44 47 -60 94q-17 50 -8 129q18 156 139 256q126 97 287 97q127 0 213 -62
q79 -60 113 -151z" />
    <glyph glyph-name="uni0406" unicode="&#x406;" horiz-adv-x="503" 
d="M496 1366l-168 -1366h-152l168 1366h152z" />
    <glyph glyph-name="uni0407" unicode="&#x407;" horiz-adv-x="503" 
d="M227 1606q6 40 35 73q31 31 72 31q39 0 61 -31q22 -36 17 -73q-3 -37 -35 -74q-31 -31 -70 -31t-61 31q-22 28 -19 74zM485 1606q5 34 35 73q31 31 72 31q39 0 61 -31q23 -32 17 -73q-3 -42 -35 -74q-31 -31 -70 -31t-61 31q-22 32 -19 74zM496 1366l-168 -1366h-152
l168 1366h152z" />
    <glyph glyph-name="uni0408" unicode="&#x408;" horiz-adv-x="626" 
d="M618 1366l-120 -983q-7 -64 -33 -170q-24 -86 -90 -152q-38 -38 -96 -63q-64 -23 -132 -23q-149 0 -231 101l98 119q67 -76 146 -76q64 0 106 39q43 40 58 98q10 41 22 123l121 987h151z" />
    <glyph glyph-name="uni0409" unicode="&#x409;" horiz-adv-x="1888" 
d="M1315 1366l-70 -567h185q58 0 141 -13q79 -9 149 -49q68 -36 109 -114q39 -74 24 -209q-24 -193 -157 -305q-136 -109 -336 -109h-365l150 1223h-529l-92 -750q-5 -79 -39 -205q-36 -117 -133 -198q-107 -82 -243 -82q-15 0 -80 12l18 143q30 -12 74 -12q42 0 82 16
q35 15 57 37q64 61 88 156q26 116 33 201l102 825h832zM1165 143h176q29 0 119 11q79 13 142 65q30 21 59 74q28 48 37 121q6 52 -8 108q-12 57 -78 99q-43 24 -103 30q-78 4 -123 4h-159z" />
    <glyph glyph-name="uni040A" unicode="&#x40a;" horiz-adv-x="1921" 
d="M426 799h700l70 567h152l-70 -567h184q59 0 142 -13q79 -9 149 -49q68 -36 109 -114q39 -74 24 -209q-24 -193 -157 -305q-136 -109 -336 -109h-365l80 655h-700l-80 -655h-152l168 1366h152zM1198 143h176q29 0 119 11q77 13 141 65q32 22 60 74q28 48 37 121
q6 50 -9 108q-12 58 -77 99q-43 24 -103 30q-78 4 -123 4h-159z" />
    <glyph glyph-name="uni040B" unicode="&#x40b;" horiz-adv-x="1388" 
d="M657 1223l-49 -402q24 2 75 5t73 5q19 1 49.5 2t51 2t36.5 1q256 0 330 -74q75 -69 84 -158q8 -85 2 -160l-56 -444h-151l51 424q5 35 2 108q-3 68 -55 117q-33 26 -94 35q-52 8 -138 8q-181 0 -276 -14l-84 -678h-152l150 1223h-328l19 143h893l-19 -143h-414z" />
    <glyph glyph-name="uni040C" unicode="&#x40c;" horiz-adv-x="1163" 
d="M1104 1714l-344 -239l-80 65l291 266zM424 780l653 586h205l-717 -637l570 -729h-209l-482 627l-45 -39l-71 -588h-152l168 1366h152z" />
    <glyph glyph-name="uni040E" unicode="&#x40e;" horiz-adv-x="1163" 
d="M631 1722q12 -56 47 -80q36 -25 70 -28q38 -6 43 -6q7 0 45 6q34 3 77 28q42 25 66 80l137 -47q-5 -16 -43 -67q-34 -43 -108 -88q-73 -43 -189 -43q-119 0 -180 43q-64 45 -86 88q-28 57 -29 67zM369 1366l327 -805l455 805h164l-785 -1366h-163l221 381l-404 985h185z
" />
    <glyph glyph-name="uni040F" unicode="&#x40f;" horiz-adv-x="1347" 
d="M344 1366h152l-150 -1223h692l150 1223h151l-168 -1366h-426l-40 -328h-144l41 328h-426z" />
    <glyph glyph-name="uni0410" unicode="&#x410;" horiz-adv-x="1273" 
d="M977 385h-582l-211 -385h-168l805 1432l436 -1432h-167zM936 528l-164 547l-299 -547h463z" />
    <glyph glyph-name="uni0411" unicode="&#x411;" horiz-adv-x="1085" 
d="M344 1366h678l-18 -143h-527l-51 -424h184q59 0 142 -13q79 -9 149 -49q68 -36 109 -114q39 -74 24 -209q-24 -193 -157 -305q-136 -109 -336 -109h-365zM346 143h176q29 0 119 11q77 13 141 65q32 22 60 74q28 48 37 121q6 50 -9 108q-12 58 -77 99q-43 24 -103 30
q-78 4 -123 4h-159z" />
    <glyph glyph-name="uni0412" unicode="&#x412;" horiz-adv-x="1085" 
d="M590 1366q63 0 143 -14q88 -12 160 -72q23 -19 45 -51q27 -44 39 -92q13 -59 4 -140q-5 -40 -39 -127q-34 -76 -129 -141q137 -41 182 -143q47 -103 35 -201t-61 -174q-56 -81 -115 -121q-93 -64 -178 -76q-83 -14 -160 -14h-340l168 1366h246zM422 766h115q39 0 104 12
q63 11 123 62q55 49 70 153q9 83 -19 131q-30 47 -74 68q-47 21 -86 27q-58 4 -59 4h-119zM346 143h174q50 0 129 11q61 9 117 47q98 64 113 188q11 78 -21 131q-29 48 -72 70q-62 41 -225 41h-155z" />
    <glyph glyph-name="uni0413" unicode="&#x413;" horiz-adv-x="827" 
d="M344 1366h623l-19 -143h-471l-149 -1223h-152z" />
    <glyph glyph-name="uni0414" unicode="&#x414;" horiz-adv-x="1310" 
d="M1294 1366l-149 -1223h155l-53 -430h-143l35 287h-967l-35 -287h-143l53 430q75 0 135 54q60 49 105 131q31 63 51 133q22 75 41 225l84 680h831zM530 686q-19 -147 -41 -229q-22 -94 -55 -152q-52 -100 -123 -162h682l131 1080h-528z" />
    <glyph glyph-name="uni0415" unicode="&#x415;" horiz-adv-x="987" 
d="M1034 1223h-557l-49 -406h541l-19 -143h-540l-64 -531h557l-18 -143h-709l168 1366h709z" />
    <glyph glyph-name="uni0416" unicode="&#x416;" horiz-adv-x="1658" 
d="M1073 1366l-72 -586l592 586h189l-652 -637l500 -729h-192l-424 625l-37 -37l-72 -588h-151l71 588l-28 37l-576 -625h-192l680 729l-496 637h188l449 -586l72 586h151z" />
    <glyph glyph-name="uni0417" unicode="&#x417;" horiz-adv-x="1179" 
d="M350 1190q103 121 209 160q104 39 207 39q43 0 133 -17q78 -18 143 -80q43 -40 64 -104q24 -62 12 -148q-12 -104 -74 -178q-64 -73 -149 -110q133 -35 190 -131q56 -95 41 -222q-15 -126 -77 -209q-61 -79 -134 -124q-160 -91 -321 -91q-135 0 -227 50q-94 51 -148 122
q-56 75 -80 156l156 66q27 -117 115 -183q82 -67 206 -67q113 0 218 57q68 45 100 107q29 63 37 112q9 95 -21 148q-30 55 -84 80q-53 26 -116 32q-62 9 -111 9h-123l16 143h123q146 0 219 70q80 71 89 161q12 89 -37 144q-39 43 -86 51q-52 12 -90 12q-72 0 -148 -31
q-74 -30 -145 -116z" />
    <glyph glyph-name="uni0418" unicode="&#x418;" horiz-adv-x="1454" 
d="M1253 1042l-1085 -1103l176 1427h152l-129 -1047l1085 1104l-174 -1423h-152z" />
    <glyph glyph-name="uni0419" unicode="&#x419;" horiz-adv-x="1454" 
d="M764 1722q12 -56 47 -80q36 -25 70 -28q38 -6 43 -6q7 0 45 6q36 3 78 28q41 24 65 80l137 -47q-5 -16 -43 -67q-34 -43 -108 -88q-73 -43 -189 -43q-119 0 -180 43q-64 45 -86 88q-28 57 -29 67zM1253 1042l-1085 -1103l176 1427h152l-129 -1047l1085 1104l-174 -1423
h-152z" />
    <glyph glyph-name="uni041A" unicode="&#x41a;" horiz-adv-x="1163" 
d="M424 780l653 586h205l-717 -637l570 -729h-209l-482 627l-45 -39l-71 -588h-152l168 1366h152z" />
    <glyph glyph-name="uni041B" unicode="&#x41b;" horiz-adv-x="1323" 
d="M1315 1366l-168 -1366h-152l150 1223h-529l-92 -750q-5 -79 -39 -205q-36 -117 -133 -198q-107 -82 -243 -82q-15 0 -80 12l18 143q30 -12 74 -12q42 0 82 16q35 15 57 37q64 61 88 156q26 116 33 201l102 825h832z" />
    <glyph glyph-name="uni041C" unicode="&#x41c;" horiz-adv-x="1767" 
d="M129 0l403 1442l383 -1153l678 1155l35 -1444h-155l-13 950l-588 -1007l-335 1007l-252 -950h-156z" />
    <glyph glyph-name="uni041D" unicode="&#x41d;" horiz-adv-x="1355" 
d="M428 811h700l68 555h152l-168 -1366h-152l82 668h-700l-82 -668h-152l168 1366h152z" />
    <glyph glyph-name="uni041E" unicode="&#x41e;" horiz-adv-x="1626" 
d="M811 -25q-196 0 -348 93t-225 251q-76 158 -52 363q24 200 140 362q120 163 288 252q175 93 369 93q197 0 346 -93q150 -91 227 -252q76 -158 52 -362q-24 -201 -140 -363q-119 -161 -288 -251q-175 -93 -369 -93zM967 1245q-232 0 -414 -164q-185 -170 -211 -399
q-30 -231 113 -399q141 -164 372 -164q229 0 414 164q181 166 211 399q27 234 -113 399q-144 164 -372 164z" />
    <glyph glyph-name="uni041F" unicode="&#x41f;" horiz-adv-x="1355" 
d="M1348 1366l-168 -1366h-152l150 1223h-701l-149 -1223h-152l168 1366h1004z" />
    <glyph glyph-name="uni0420" unicode="&#x420;" horiz-adv-x="933" 
d="M592 1366q104 0 186 -18q83 -18 146 -78q67 -71 82 -148q14 -76 8 -145q-12 -95 -68 -184q-56 -92 -155 -144q-101 -55 -256 -55h-134l-73 -594h-152l168 1366h248zM418 737h125q134 0 221 66q83 65 98 182q12 110 -35 160q-48 48 -118 63q-67 15 -119 15h-113z" />
    <glyph glyph-name="uni0421" unicode="&#x421;" horiz-adv-x="1323" 
d="M1352 1065q-65 75 -164 127q-109 53 -227 53q-239 0 -414 -166q-178 -166 -205 -403q-24 -185 47 -309q72 -126 191 -187t243 -61q142 0 262 63q68 33 107 64q28 19 65 51l-22 -188q-127 -80 -240 -107q-114 -27 -188 -27q-305 0 -481 203q-177 205 -140 500
q37 307 267 508q229 203 534 203q41 0 105 -9q58 -6 135 -37q70 -26 147 -90z" />
    <glyph glyph-name="uni0422" unicode="&#x422;" horiz-adv-x="872" 
d="M662 1223l-150 -1223h-152l150 1223h-332l19 143h815l-19 -143h-331z" />
    <glyph glyph-name="uni0423" unicode="&#x423;" horiz-adv-x="1163" 
d="M369 1366l327 -805l455 805h164l-785 -1366h-163l221 381l-404 985h185z" />
    <glyph glyph-name="uni0424" unicode="&#x424;" horiz-adv-x="1683" 
d="M791 193h-37q-194 0 -308 51q-117 52 -174 133q-59 77 -75 172q-16 96 -7 176q12 84 50 176q41 94 116 174q77 77 209 131q122 51 318 51h37l20 164h152l-21 -164h37q193 0 307 -51q116 -52 174 -131q61 -82 76 -174q16 -96 4 -176q-9 -84 -47 -176q-41 -93 -117 -172
t-209 -133q-125 -51 -317 -51h-37l-24 -193h-152zM903 1114h-41q-188 0 -295 -61q-110 -61 -159 -152q-50 -89 -62 -176q-9 -85 19 -176q26 -89 120 -152q94 -61 281 -61h41zM958 336h41q188 0 295 61q107 59 160 152q50 89 59 176q12 85 -16 176q-26 88 -121 152
q-94 61 -280 61h-41z" />
    <glyph glyph-name="uni0425" unicode="&#x425;" horiz-adv-x="1032" 
d="M518 707l-285 659h173l219 -514l354 514h172l-457 -659l310 -707h-173l-243 561l-387 -561h-172z" />
    <glyph glyph-name="uni0426" unicode="&#x426;" horiz-adv-x="1355" 
d="M344 1366h152l-150 -1223h692l150 1223h151l-149 -1223h156l-54 -430h-143l35 287h-1008z" />
    <glyph glyph-name="uni0427" unicode="&#x427;" horiz-adv-x="1208" 
d="M952 586q-15 -1 -147 -11q-110 -4 -137 -4q-254 0 -328 74q-73 65 -86 158q-9 92 0 160l49 403h152l-47 -383q-5 -36 -2 -109q3 -67 55 -116q33 -26 94 -35q52 -8 139 -8q182 0 277 14l78 637h151l-168 -1366h-151z" />
    <glyph glyph-name="uni0428" unicode="&#x428;" horiz-adv-x="1888" 
d="M344 1366h152l-150 -1223h541l149 1223h152l-150 -1223h541l150 1223h151l-168 -1366h-1536z" />
    <glyph glyph-name="uni0429" unicode="&#x429;" horiz-adv-x="1896" 
d="M344 1366h152l-150 -1223h541l149 1223h152l-150 -1223h541l150 1223h151l-149 -1223h155l-53 -430h-143l34 287h-1548z" />
    <glyph glyph-name="uni042A" unicode="&#x42a;" horiz-adv-x="1249" 
d="M506 1223h-328l19 143h479l-70 -567h185q58 0 141 -13q79 -9 149 -49q68 -36 109 -114q39 -74 24 -209q-24 -193 -157 -305q-136 -109 -336 -109h-365zM526 143h176q29 0 119 11q79 13 142 65q30 21 59 74q28 48 37 121q6 52 -8 108q-12 57 -78 99q-43 24 -103 30
q-78 4 -122 4h-160z" />
    <glyph glyph-name="uni042B" unicode="&#x42b;" horiz-adv-x="1454" 
d="M344 1366h152l-70 -567h184q59 0 142 -13q79 -9 149 -49q68 -36 109 -114q39 -74 24 -209q-24 -193 -157 -305q-136 -109 -336 -109h-365zM1446 1366l-168 -1366h-152l168 1366h152zM346 143h176q29 0 119 11q77 13 141 65q32 22 60 74q28 48 37 121q6 50 -9 108
q-12 58 -77 99q-43 24 -103 30q-78 4 -123 4h-159z" />
    <glyph glyph-name="uni042C" unicode="&#x42c;" horiz-adv-x="1069" 
d="M344 1366h152l-70 -567h184q59 0 142 -13q79 -9 149 -49q68 -36 109 -114q39 -74 24 -209q-24 -193 -157 -305q-136 -109 -336 -109h-365zM346 143h176q29 0 119 11q77 13 141 65q32 22 60 74q28 48 37 121q6 50 -9 108q-12 58 -77 99q-43 24 -103 30q-78 4 -123 4h-159z
" />
    <glyph glyph-name="uni042D" unicode="&#x42d;" horiz-adv-x="1320" 
d="M256 1253q131 81 248 107q126 29 213 29q206 0 346 -93q136 -88 203 -254q61 -159 37 -364q-24 -196 -125 -359q-98 -158 -260 -251t-365 -93q-86 0 -203 27q-114 26 -233 107l22 188q53 -65 144 -111q149 -67 286 -67q199 0 369 141q168 137 203 375h-797l18 143h791
q6 199 -115 332q-117 135 -327 135q-142 0 -285 -57q-64 -18 -193 -123z" />
    <glyph glyph-name="uni042E" unicode="&#x42e;" horiz-adv-x="2027" 
d="M635 797q70 256 280 424q204 168 482 168q303 0 475 -199q175 -196 137 -508q-37 -301 -260 -506q-227 -201 -524 -201q-203 0 -348 95q-139 90 -211 247q-68 146 -56 336h-202l-80 -653h-152l168 1366h152l-70 -569h209zM1380 1245q-226 0 -403 -162
q-177 -158 -207 -401q-30 -241 109 -401q134 -162 362 -162q227 0 404 162q178 158 208 401q30 242 -108 401q-140 162 -365 162z" />
    <glyph glyph-name="uni042F" unicode="&#x42f;" horiz-adv-x="1044" 
d="M537 606q-41 3 -107 23q-64 22 -111 63q-64 61 -79 135q-16 78 -7 144q12 93 46 159q41 73 83 113q65 62 127 84q64 27 127 33q58 6 101 6h319l-168 -1366h-151l74 598h-82l-463 -598h-185zM719 1223q-49 0 -119 -13q-63 -8 -123 -59q-37 -37 -55 -74q-25 -48 -33 -102
q-6 -73 10 -115q14 -42 45 -69q44 -35 99 -46q55 -12 104 -12h160l59 490h-147z" />
    <glyph glyph-name="uni0430" unicode="&#x430;" horiz-adv-x="1077" 
d="M895 850h147l-104 -850h-147l14 119q-45 -51 -119 -96q-79 -48 -188 -48t-197 52q-90 50 -135 149t-27 250q15 143 88 246q69 97 170 149q101 49 209 49q82 0 137 -24q53 -23 88 -58q39 -39 50 -59zM606 739q-108 0 -203 -80q-94 -76 -112 -233q-19 -140 45 -227
q63 -93 192 -93q134 0 222 97q85 94 100 221q15 107 -21 180q-35 69 -96 103q-57 32 -127 32z" />
    <glyph glyph-name="uni0431" unicode="&#x431;" horiz-adv-x="1073" 
d="M1135 1434q-54 -116 -146 -168q-87 -49 -162 -64q-6 -2 -20.5 -5t-20.5 -5q-115 -17 -241 -88q-183 -139 -226 -389h5q50 71 133 112q79 43 194 43q190 0 301 -129q110 -128 86 -319q-21 -188 -166 -318q-144 -129 -352 -129q-111 0 -176 33q-67 34 -104 74
q-84 93 -93 209q-11 103 3 229q9 75 36 211q25 127 97 270q67 134 194 220q141 78 277 96l32 8q81 17 127 47q42 25 58 62h164zM627 739q-116 0 -217 -82q-103 -80 -121 -235q-12 -105 22 -174t99 -107q65 -35 139 -35q77 0 149 35q73 37 125 107t64 174q12 108 -21 176
q-34 69 -96 107q-64 34 -143 34z" />
    <glyph glyph-name="uni0432" unicode="&#x432;" horiz-adv-x="880" 
d="M565 850q38 0 82 -8q45 -5 90 -41q23 -20 43 -58q20 -41 11 -102q-6 -63 -39 -104q-32 -43 -74 -66q19 -3 45 -16q25 -11 55 -41q59 -65 47 -164q-10 -72 -41 -117q-29 -48 -71 -76q-53 -33 -99 -43q-55 -14 -108 -14h-367l105 850h321zM504 504q1 0 41 4q26 3 57 20
q8 6 31 29q14 19 20 59q3 31 -6 52q-9 18 -24 30q-51 26 -107 21h-141l-27 -215h156zM485 131q18 0 68 4q32 5 70 25q53 38 59 94q9 56 -31 96q-27 21 -61 27q-50 4 -68 4h-188l-31 -250h182z" />
    <glyph glyph-name="uni0433" unicode="&#x433;" horiz-adv-x="651" 
d="M244 850h504l-17 -135h-356l-88 -715h-148z" />
    <glyph glyph-name="uni0434" unicode="&#x434;" horiz-adv-x="942" 
d="M903 850l-88 -715h127l-45 -360h-135l29 225h-648l-28 -225h-135l45 360q113 12 172 111q30 57 41 102q16 76 20 123l47 379h598zM739 715h-303l-39 -320q-8 -63 -39 -141q-31 -66 -96 -119h406z" />
    <glyph glyph-name="uni0435" unicode="&#x435;" horiz-adv-x="985" 
d="M920 217q-48 -76 -121 -137q-132 -105 -295 -105q-106 0 -195 45q-90 47 -141 144q-49 98 -31 256q24 189 150 321q126 129 317 129q126 0 199 -49q76 -51 104 -106q34 -57 43 -146q11 -80 -2 -174h-661q-12 -135 55 -211q69 -78 178 -78q105 0 182 62q66 54 103 117z
M811 518q-6 96 -68 162q-62 59 -155 59q-94 0 -170 -61q-77 -62 -107 -160h500z" />
    <glyph glyph-name="uni0436" unicode="&#x436;" horiz-adv-x="1220" 
d="M788 850l-43 -348l363 348h172l-418 -393l350 -457h-184l-272 358l-31 -28l-41 -330h-147l41 330l-27 28l-358 -358h-185l461 457l-319 393h172l276 -348l43 348h147z" />
    <glyph glyph-name="uni0437" unicode="&#x437;" horiz-adv-x="864" 
d="M236 717q54 66 120 106q60 29 103 37q55 10 90 10q45 0 100 -10q51 -9 94 -49q36 -36 48 -76q12 -42 6 -86q-10 -79 -45 -117q-37 -43 -74 -61q66 -18 92 -55q53 -59 41 -156q-18 -135 -139 -219q-114 -66 -248 -66q-49 0 -115 17q-55 15 -104 55q-71 65 -94 146l133 53
q3 -17 18 -43q9 -21 45 -53q33 -26 66 -35q34 -9 67 -9q17 0 68 7q38 3 80 26q22 11 47 43q24 35 27 76q9 72 -39 98q-32 22 -68 25q-50 4 -68 4h-86l17 135h71q54 0 78 8q13 3 37 15q14 7 35 28q15 21 18 50q6 56 -26 88q-19 19 -53 26q-40 4 -52 4q-25 0 -55 -6
q-19 -4 -65 -26q-37 -18 -78 -74z" />
    <glyph glyph-name="uni0438" unicode="&#x438;" horiz-adv-x="1007" 
d="M391 850l-69 -561l659 626l-113 -915h-147l70 567l-660 -626l113 909h147z" />
    <glyph glyph-name="uni0439" unicode="&#x439;" horiz-adv-x="1007" 
d="M492 1264q10 -56 47 -88q41 -35 110 -35q71 0 121 35q49 37 70 88l116 -47q-108 -199 -321 -199q-215 0 -273 199zM391 850l-69 -561l659 626l-113 -915h-147l70 567l-660 -626l113 909h147z" />
    <glyph glyph-name="uni043A" unicode="&#x43a;" horiz-adv-x="864" 
d="M391 850l-43 -348l387 348h180l-415 -379l356 -471h-192l-287 373l-49 -43l-41 -330h-148l105 850h147z" />
    <glyph glyph-name="uni043B" unicode="&#x43b;" horiz-adv-x="921" 
d="M782 0h-147l88 715h-303l-47 -383q-6 -50 -25 -119q-14 -63 -72 -127q-15 -20 -75 -59q-57 -31 -140 -31q-13 0 -45 4l17 135q24 -4 33 -4q40 0 69 16q29 19 43 39q24 30 33 70q6 23 14 76l64 518h598z" />
    <glyph glyph-name="uni043C" unicode="&#x43c;" horiz-adv-x="1187" 
d="M358 915l267 -692l430 692l92 -915h-152l-47 526l-362 -585l-219 585l-174 -526h-152z" />
    <glyph glyph-name="uni043D" unicode="&#x43d;" horiz-adv-x="974" 
d="M244 850h147l-43 -348h402l43 348h147l-104 -850h-148l45 367h-401l-45 -367h-148z" />
    <glyph glyph-name="uni043E" unicode="&#x43e;" horiz-adv-x="1073" 
d="M535 -25q-193 0 -308 127q-111 123 -90 320q24 192 168 321q145 127 338 127q195 0 307 -127t88 -321q-21 -191 -168 -320q-145 -127 -335 -127zM627 739q-116 0 -217 -82q-103 -80 -121 -235q-12 -105 22 -174t99 -107q65 -35 139 -35q77 0 149 35q73 37 125 107t64 174
q12 108 -21 176q-34 69 -96 107q-64 34 -143 34z" />
    <glyph glyph-name="uni043F" unicode="&#x43f;" horiz-adv-x="962" 
d="M928 850l-105 -850h-147l88 715h-389l-88 -715h-148l105 850h684z" />
    <glyph glyph-name="uni0440" unicode="&#x440;" horiz-adv-x="1077" 
d="M229 -471h-147l162 1321h147l-14 -119q59 62 117 92q59 30 110 39q44 8 80 8q134 0 217 -65q83 -63 121 -168q35 -103 20 -217q-11 -109 -73 -217q-62 -103 -160 -164q-98 -64 -227 -64q-104 0 -172 41t-109 103zM575 106q129 0 216 93q85 94 100 221q12 104 -19 176
q-34 69 -92 106t-129 37q-67 0 -137 -37t-121 -106q-51 -73 -63 -174q-15 -133 51 -223q66 -93 194 -93z" />
    <glyph glyph-name="uni0441" unicode="&#x441;" horiz-adv-x="897" 
d="M881 612q-53 74 -123 101q-68 26 -129 26q-118 0 -219 -82q-103 -80 -121 -235q-12 -105 22 -174t99 -107q65 -35 139 -35q63 0 145 31q83 38 146 103l-21 -177q-73 -47 -149 -69q-74 -19 -131 -19q-200 0 -312 127q-114 126 -90 318q24 195 170 323q145 127 340 127
q100 0 164 -28q61 -29 90 -54z" />
    <glyph glyph-name="uni0442" unicode="&#x442;" horiz-adv-x="712" 
d="M518 715l-88 -715h-147l88 715h-267l17 135h680l-17 -135h-266z" />
    <glyph glyph-name="uni0443" unicode="&#x443;" horiz-adv-x="942" 
d="M418 80l-297 770h168l225 -608l352 608h164l-786 -1321h-164z" />
    <glyph glyph-name="uni0444" unicode="&#x444;" horiz-adv-x="1331" 
d="M590 -14q-63 0 -160 20q-96 17 -184 90q-134 116 -107 330q12 117 66 199q53 81 119 129q82 59 172 84q91 26 202 26l62 502h147l-61 -502q111 0 196 -26q86 -26 150 -84q59 -53 88 -129q30 -79 18 -199q-27 -212 -188 -330q-108 -73 -209 -90q-100 -20 -164 -20
l-55 -457h-147zM682 733q-62 0 -123 -12q-58 -11 -110 -41q-46 -22 -97 -86q-49 -61 -61 -168q-12 -101 14 -158q32 -63 74 -90q44 -35 106 -47q57 -14 121 -14zM754 117q65 0 125 14q60 11 118 47q51 31 95 90q43 58 55 158q12 106 -23 168q-36 64 -73 86q-49 30 -103 41
q-58 12 -119 12z" />
    <glyph glyph-name="uni0445" unicode="&#x445;" horiz-adv-x="929" 
d="M434 455l-260 395h180l185 -289l258 289h180l-361 -397l297 -453h-180l-225 346l-311 -346h-181z" />
    <glyph glyph-name="uni0446" unicode="&#x446;" horiz-adv-x="970" 
d="M244 850h147l-88 -715h381l88 715h148l-89 -715h140l-45 -360h-135l28 225h-680z" />
    <glyph glyph-name="uni0447" unicode="&#x447;" horiz-adv-x="880" 
d="M635 334q-49 -7 -100 -12q-68 -7 -103 -7q-20 0 -92 11q-62 9 -107 51q-38 38 -47 94q-6 53 0 115l33 264h148l-31 -244q-2 -14 -2 -51q0 -25 8 -49q19 -39 53 -47q33 -8 70 -8q81 0 186 18l47 381h148l-105 -850h-147z" />
    <glyph glyph-name="uni0448" unicode="&#x448;" horiz-adv-x="1376" 
d="M244 850h147l-88 -715h328l88 715h147l-88 -715h328l88 715h147l-104 -850h-1098z" />
    <glyph glyph-name="uni0449" unicode="&#x449;" horiz-adv-x="1392" 
d="M244 850h147l-88 -715h328l88 715h147l-88 -715h328l88 715h147l-88 -715h140l-45 -360h-136l29 225h-1102z" />
    <glyph glyph-name="uni044A" unicode="&#x44a;" horiz-adv-x="880" 
d="M289 715h-185l17 135h332l-41 -326h151q64 0 127 -14q69 -12 121 -70q25 -25 39 -69q12 -44 6 -109q-9 -68 -39 -117q-27 -46 -61 -73q-62 -50 -129 -62q-72 -10 -129 -10h-297zM502 131q21 0 71 4q33 3 62 19q19 10 41 34q23 27 29 74q2 21 -5 57q-11 32 -36 50
q-22 17 -60 20q-46 4 -67 4h-140l-32 -262h137z" />
    <glyph glyph-name="uni044B" unicode="&#x44b;" horiz-adv-x="1150" 
d="M244 850h147l-41 -326h152q64 0 127 -14q69 -12 121 -70q23 -23 38 -69q13 -46 7 -109q-9 -68 -39 -117q-26 -45 -62 -73q-62 -50 -129 -62q-72 -10 -129 -10h-297zM969 850h147l-104 -850h-148zM440 131q22 0 72 4q32 3 61 19q19 10 41 34q23 27 29 74q3 24 -4 57
q-10 31 -37 50q-22 17 -59 20q-46 4 -68 4h-139l-33 -262h137z" />
    <glyph glyph-name="uni044C" unicode="&#x44c;" horiz-adv-x="819" 
d="M244 850h147l-41 -326h152q64 0 127 -14q69 -12 121 -70q23 -23 38 -69q13 -46 7 -109q-9 -68 -39 -117q-26 -45 -62 -73q-62 -50 -129 -62q-72 -10 -129 -10h-297zM440 131q22 0 72 4q32 3 61 19q19 10 41 34q23 27 29 74q3 24 -4 57q-10 31 -37 50q-22 17 -59 20
q-46 4 -68 4h-139l-33 -262h137z" />
    <glyph glyph-name="uni044D" unicode="&#x44d;" horiz-adv-x="866" 
d="M188 827q78 28 127 35q52 8 109 8q220 0 326 -127q105 -123 81 -323q-24 -194 -163 -318q-142 -127 -342 -127q-88 0 -154 17q-57 18 -84 31l18 143q56 -30 119 -45q61 -15 113 -15q117 0 211 70t125 193h-449l17 131h448q-12 115 -90 178q-76 61 -186 61
q-104 0 -244 -55z" />
    <glyph glyph-name="uni044E" unicode="&#x44e;" horiz-adv-x="1413" 
d="M502 502q46 156 145 241q133 127 336 127q194 0 309 -127q110 -128 86 -321q-21 -190 -166 -320q-145 -127 -338 -127q-132 0 -212 50q-79 49 -119 110q-60 74 -66 232h-145l-45 -367h-148l105 850h147l-43 -348h154zM967 739q-117 0 -215 -82q-99 -83 -117 -235
q-12 -108 20 -174q33 -68 97 -107q65 -35 137 -35q77 0 149 35q73 37 125 107t64 174q18 155 -62 235q-79 82 -198 82z" />
    <glyph glyph-name="uni044F" unicode="&#x44f;" horiz-adv-x="835" 
d="M348 350q-2 0 -6 0.5l-12 1.5t-15 2q-26 6 -61 21q-32 11 -61 43q-24 24 -39 67q-15 44 -9 103q15 119 101 190q62 50 129 62q72 10 129 10h297l-105 -850h-147l43 342h-90l-285 -342h-176zM637 719h-137q-84 0 -135 -23q-23 -13 -41 -37q-22 -28 -27 -67q-6 -70 41 -103
q24 -15 61 -22q23 -2 60 -2h147z" />
    <glyph glyph-name="uni0451" unicode="&#x451;" horiz-adv-x="985" 
d="M365 1126q3 41 38 72q36 31 76 31t68 -31q25 -28 22 -72q-6 -41 -41 -71q-36 -31 -75 -31q-40 0 -68 31q-26 29 -20 71zM721 1126q3 41 39 72t76 31q39 0 67 -31q26 -29 23 -72q-6 -41 -41 -71q-36 -31 -76 -31t-68 31q-26 29 -20 71zM920 217q-48 -76 -121 -137
q-132 -105 -295 -105q-106 0 -195 45q-90 47 -141 144q-49 98 -31 256q24 189 150 321q126 129 317 129q126 0 199 -49q76 -51 104 -106q34 -57 43 -146q11 -80 -2 -174h-661q-12 -135 55 -211q69 -78 178 -78q105 0 182 62q66 54 103 117zM811 518q-6 96 -68 162
q-62 59 -155 59q-94 0 -170 -61q-77 -62 -107 -160h500z" />
    <glyph glyph-name="uni0452" unicode="&#x452;" horiz-adv-x="962" 
d="M268 1053h-139l14 123h140l41 317h147l-41 -317h410l-15 -123h-409l-47 -383q21 25 49 47q38 30 86 49q55 22 123 22q75 0 137 -30q62 -27 92 -86q26 -44 29 -103q2 -33 -6 -125l-78 -620q-5 -53 -27 -121q-18 -55 -65 -102q-47 -41 -93 -56q-53 -16 -102 -16
q-62 0 -102 18l16 144q49 -19 94 -19q40 0 64 15q26 13 37 30q23 36 32 123l74 600q4 27 4 80q-3 45 -22 76q-34 61 -133 61q-40 0 -78 -14q-35 -10 -80 -51q-49 -55 -66 -119q-14 -51 -22 -111l-45 -362h-148z" />
    <glyph glyph-name="uni0453" unicode="&#x453;" horiz-adv-x="651" 
d="M827 1294l-309 -276l-86 49l252 297zM244 850h504l-17 -135h-356l-88 -715h-148z" />
    <glyph glyph-name="uni0454" unicode="&#x454;" horiz-adv-x="897" 
d="M881 612q-55 71 -121 99q-70 28 -131 28q-102 0 -193 -61q-90 -61 -131 -178h445l-17 -131h-446q3 -124 78 -193q76 -70 184 -70q63 0 145 31q83 38 146 103l-21 -177q-73 -47 -149 -69q-74 -19 -131 -19q-200 0 -312 127q-114 126 -90 318q24 195 170 323
q145 127 340 127q100 0 164 -28q61 -29 90 -54z" />
    <glyph glyph-name="uni0455" unicode="&#x455;" horiz-adv-x="720" 
d="M569 653q-24 86 -108 86q-38 0 -74 -22q-33 -23 -39 -74q-6 -44 23 -70q39 -28 98 -51q168 -74 197 -131q22 -31 28 -67q6 -34 0 -70q-15 -133 -110 -207q-93 -72 -215 -72q-5 0 -76 11q-59 10 -113 55q-58 46 -82 152l133 53q2 -19 21 -56q14 -31 49 -59q31 -25 84 -25
q72 0 113 44q40 50 43 92q9 60 -27 88q-33 29 -92 53q-144 62 -193 125q-19 32 -22 61q-3 32 0 64q12 112 92 174q75 63 184 63q28 0 64 -8q44 -9 84 -41q40 -34 67 -104z" />
    <glyph glyph-name="uni0456" unicode="&#x456;" horiz-adv-x="425" 
d="M252 1171q6 46 41 74q36 31 76 31q43 0 71 -31q27 -33 21 -74q-3 -42 -39 -73t-78 -31t-70 31q-25 28 -22 73zM391 850l-104 -850h-148l105 850h147z" />
    <glyph glyph-name="uni0457" unicode="&#x457;" horiz-adv-x="425" 
d="M162 1174q5 38 35 71q31 31 63 31q35 0 57 -31q22 -32 17 -71q-3 -39 -33 -72q-31 -31 -65 -31q-36 0 -58 31q-19 28 -16 72zM379 1174q5 38 35 71q31 31 63 31q36 0 58 -31t16 -71q-3 -39 -33 -72q-31 -31 -65 -31q-36 0 -58 31q-19 28 -16 72zM391 850l-104 -850h-148
l105 850h147z" />
    <glyph glyph-name="uni0458" unicode="&#x458;" horiz-adv-x="425" 
d="M252 1171q6 46 41 74q36 31 76 31q43 0 71 -31q27 -33 21 -74q-3 -42 -39 -73t-78 -31t-70 31q-25 28 -22 73zM391 850l-162 -1321h-147l162 1321h147z" />
    <glyph glyph-name="uni0459" unicode="&#x459;" horiz-adv-x="1314" 
d="M846 524h151q64 0 127 -14q69 -12 121 -70q25 -25 39 -69q12 -44 6 -109q-9 -68 -39 -117q-27 -46 -61 -73q-62 -50 -129 -62q-72 -10 -129 -10h-297l88 715h-303l-47 -383q-6 -50 -25 -119q-14 -63 -72 -127q-15 -20 -75 -59q-57 -31 -140 -31q-13 0 -45 4l17 135
q24 -4 33 -4q40 0 69 16q29 19 43 39q24 30 33 70q6 23 14 76l64 518h598zM936 131q22 0 72 4q32 3 61 19q19 10 41 34q23 27 29 74q3 24 -4 57q-10 31 -37 50q-22 17 -60 20q-46 4 -67 4h-140l-32 -262h137z" />
    <glyph glyph-name="uni045A" unicode="&#x45a;" horiz-adv-x="1368" 
d="M244 850h147l-39 -322h402l39 322h147l-41 -326h152q64 0 127 -14q68 -12 120 -70q25 -25 39 -69q12 -44 6 -109q-9 -70 -38 -117q-26 -45 -62 -73q-62 -50 -129 -62q-72 -10 -129 -10h-297l49 393h-401l-49 -393h-148zM989 131q22 0 72 4q32 3 61 19q19 10 41 34
q23 27 29 74q3 24 -4 57q-10 31 -37 50q-22 17 -59 20q-46 4 -68 4h-139l-33 -262h137z" />
    <glyph glyph-name="uni045B" unicode="&#x45b;" horiz-adv-x="962" 
d="M268 1053h-139l14 123h140l41 317h147l-41 -317h410l-15 -123h-409l-47 -383q21 25 49 47q38 30 86 49q55 22 123 22q75 0 137 -30q62 -27 92 -86q26 -44 29 -103q2 -33 -6 -125l-56 -444h-147l53 440q4 27 4 80q-3 45 -22 76q-34 61 -133 61q-40 0 -78 -14
q-35 -10 -80 -51q-49 -55 -66 -119q-14 -51 -22 -111l-45 -362h-148z" />
    <glyph glyph-name="uni045C" unicode="&#x45c;" horiz-adv-x="864" 
d="M870 1294l-309 -276l-86 49l252 297zM391 850l-43 -348l387 348h180l-415 -379l356 -471h-192l-287 373l-49 -43l-41 -330h-148l105 850h147z" />
    <glyph glyph-name="uni045E" unicode="&#x45e;" horiz-adv-x="942" 
d="M473 1264q10 -56 47 -88q41 -35 111 -35q71 0 121 35q48 36 69 88l117 -47q-108 -199 -322 -199t-272 199zM418 80l-297 770h168l225 -608l352 608h164l-786 -1321h-164z" />
    <glyph glyph-name="uni045F" unicode="&#x45f;" horiz-adv-x="954" 
d="M244 850h147l-88 -715h381l88 715h148l-105 -850h-270l-31 -246h-135l31 246h-271z" />
    <glyph glyph-name="uni0462" unicode="&#x462;" horiz-adv-x="1249" 
d="M485 1059h-327l18 143h328l26 219h152l-27 -219h369l-18 -143h-369l-31 -260h185q58 0 141 -13q79 -9 149 -49q68 -36 109 -114q39 -74 24 -209q-24 -193 -157 -305q-136 -109 -336 -109h-365zM526 143h176q29 0 119 11q79 13 142 65q30 21 59 74q28 48 37 121
q6 52 -8 108q-12 57 -78 99q-43 24 -103 30q-78 4 -122 4h-160z" />
    <glyph glyph-name="uni0463" unicode="&#x463;" horiz-adv-x="880" 
d="M305 850l64 516h147l-63 -516h245l-16 -135h-246l-24 -191h151q64 0 127 -14q69 -12 121 -70q25 -25 39 -69q12 -44 6 -109q-9 -68 -39 -117q-27 -46 -61 -73q-62 -50 -129 -62q-72 -10 -129 -10h-297l88 715h-185l17 135h184zM502 131q21 0 71 4q33 3 62 19q19 10 41 34
q23 27 29 74q2 21 -5 57q-11 32 -36 50q-22 17 -60 20q-46 4 -67 4h-140l-32 -262h137z" />
    <glyph glyph-name="uni0472" unicode="&#x472;" horiz-adv-x="1622" 
d="M809 -25q-197 0 -346 93q-152 93 -225 251q-76 158 -52 363q24 200 140 362q121 165 286 252q175 93 369 93q197 0 346 -93q151 -92 225 -252q76 -158 52 -362q-24 -201 -140 -363q-120 -163 -286 -251q-175 -93 -369 -93zM1454 778q-18 227 -166 348q-143 119 -323 119
q-181 0 -355 -119q-176 -118 -250 -348h1094zM336 635q0 -239 141 -377q145 -139 348 -139t383 139q175 138 234 377h-1106z" />
    <glyph glyph-name="uni0473" unicode="&#x473;" horiz-adv-x="1073" 
d="M535 -25q-193 0 -308 127q-111 123 -90 320q24 192 168 321q145 127 338 127q195 0 307 -127t88 -321q-21 -191 -168 -320q-145 -127 -335 -127zM889 500q-9 119 -86 178q-76 61 -176 61q-101 0 -189 -61q-90 -58 -131 -178h582zM287 369q0 -124 78 -193q76 -70 184 -70
q114 0 205 70q93 71 123 193h-590z" />
    <glyph glyph-name="uni0474" unicode="&#x474;" horiz-adv-x="1138" 
d="M352 1366l256 -1042l514 1042h168l-731 -1448l-375 1448h168z" />
    <glyph glyph-name="uni0475" unicode="&#x475;" horiz-adv-x="868" 
d="M285 850l184 -574l324 574h163l-528 -905l-307 905h164z" />
    <glyph glyph-name="uni0490" unicode="&#x490;" horiz-adv-x="827" 
d="M344 1366h479l35 287h143l-53 -430h-471l-149 -1223h-152z" />
    <glyph glyph-name="uni0491" unicode="&#x491;" horiz-adv-x="671" 
d="M244 850h368l27 225h135l-43 -360h-356l-88 -715h-148z" />
    <glyph glyph-name="uni0492" unicode="&#x492;" horiz-adv-x="827" 
d="M260 684h-176l16 135h176l68 547h623l-19 -143h-471l-49 -404h279l-17 -135h-278l-84 -684h-152z" />
    <glyph glyph-name="uni0493" unicode="&#x493;" horiz-adv-x="651" 
d="M186 385h-139l14 123h140l43 342h504l-17 -135h-356l-27 -207h205l-14 -123h-205l-47 -385h-148z" />
    <glyph glyph-name="uni0494" unicode="&#x494;" horiz-adv-x="1142" 
d="M477 1223l-53 -435q161 48 287 48q134 0 215 -37q82 -37 127 -101q38 -55 51 -137q11 -75 2 -164q-18 -137 -72 -217q-57 -82 -112 -117q-62 -41 -140 -59q-82 -16 -145 -16t-137 12l18 143q61 -12 127 -12q45 0 103 10q50 12 94 45q53 42 78 99q25 66 30 114
q15 129 -32 199q-31 42 -91 68q-56 26 -147 26q-123 0 -272 -47l-80 -645h-152l168 1366h647l-18 -143h-496z" />
    <glyph glyph-name="uni0495" unicode="&#x495;" horiz-adv-x="880" 
d="M244 850h504l-17 -135h-356l-29 -232h62q54 0 153 -18q100 -21 174 -98q91 -107 70 -285q-12 -95 -62 -195q-54 -101 -145 -178q-55 -46 -129 -82q-81 -41 -188 -53l18 143q90 6 209 99q73 67 100 127q33 74 41 141q9 84 -8 131q-18 46 -47 72q-24 27 -74 45
q-53 16 -129 16h-61l-43 -348h-148z" />
    <glyph glyph-name="uni0496" unicode="&#x496;" horiz-adv-x="1658" 
d="M1073 1366l-72 -586l592 586h189l-652 -637l402 -586h117l-54 -430h-143l35 287h-49l-424 625l-37 -37l-72 -588h-151l71 588l-28 37l-576 -625h-192l680 729l-496 637h188l449 -586l72 586h151z" />
    <glyph glyph-name="uni0497" unicode="&#x497;" horiz-adv-x="1220" 
d="M788 850l-43 -348l363 348h172l-418 -393l248 -322h119l-45 -360h-135l28 225h-49l-272 358l-31 -28l-41 -330h-147l41 330l-27 28l-358 -358h-185l461 457l-319 393h172l276 -348l43 348h147z" />
    <glyph glyph-name="uni0498" unicode="&#x498;" horiz-adv-x="1179" 
d="M350 1190q56 64 105 102q60 39 73 45q59 29 119 41q71 11 111 11q48 0 141 -17q82 -18 152 -88q34 -34 57 -98q22 -64 10 -144q-12 -106 -76 -182q-51 -63 -147 -108q69 -18 113 -50q43 -32 53 -47q39 -42 57 -104q19 -65 8 -145q-9 -86 -51 -166q-46 -78 -98 -127
q-43 -41 -125 -84q-75 -40 -182 -49l-39 -308h-144l39 308q-143 6 -262 116q-80 71 -125 207l156 66q15 -60 39 -97q18 -32 39 -53q93 -100 250 -100q84 0 145 24q62 23 100 58q32 26 62 75q32 53 41 127q5 42 -4 93q-9 47 -47 88q-54 51 -134 67q-83 13 -147 13h-123
l16 143h123q27 0 95 10q61 9 120 53q32 23 58 64q29 44 35 104q6 49 -7 88q-14 40 -30 56q-36 39 -86 51q-46 12 -90 12q-41 0 -93 -10q-51 -13 -94 -41q-35 -16 -106 -96z" />
    <glyph glyph-name="uni0499" unicode="&#x499;" horiz-adv-x="864" 
d="M236 717q54 66 120 106q56 30 105 39q44 8 96 8q42 0 94 -10q49 -12 92 -49q63 -69 54 -166q-10 -40 -11 -45q-8 -30 -32 -65q-25 -39 -76 -64q63 -18 92 -55q16 -16 33 -58q15 -40 6 -100q-12 -115 -100 -188q-104 -90 -205 -90l-29 -226h-135l29 226q-115 18 -164 67
q-69 69 -94 146l133 53q19 -57 63 -96q56 -44 133 -44q27 0 74 7q40 9 70 24q27 15 51 45q24 31 27 76q9 62 -39 98q-29 19 -64 25q-46 4 -72 4h-86l17 135h71q2 0 52 4q30 3 63 19q22 15 37 37q12 17 16 43q4 29 -4 47q-6 23 -22 39q-21 18 -56 24q-30 6 -55 6
q-38 0 -59 -6q-20 -5 -55 -26q-41 -24 -78 -74z" />
    <glyph glyph-name="uni049A" unicode="&#x49a;" horiz-adv-x="1163" 
d="M496 1366l-72 -586l653 586h205l-717 -637l459 -586h129l-53 -430h-144l35 287h-65l-482 627l-45 -39l-71 -588h-152l168 1366h152z" />
    <glyph glyph-name="uni049B" unicode="&#x49b;" horiz-adv-x="864" 
d="M391 850l-43 -348l387 348h180l-415 -379l254 -336h118l-45 -360h-135l29 225h-57l-287 373l-49 -43l-41 -330h-148l105 850h147z" />
    <glyph glyph-name="uni049C" unicode="&#x49c;" horiz-adv-x="1318" 
d="M496 1366l-74 -596h164l35 287h135l-35 -287l551 596h168l-602 -645l452 -721h-180l-405 635l-37 -307h-136l37 307h-163l-78 -635h-152l168 1366h152z" />
    <glyph glyph-name="uni049D" unicode="&#x49d;" horiz-adv-x="921" 
d="M391 850l-43 -348h103l24 205h123l-25 -205l267 348h159l-317 -408l231 -442h-163l-191 379l-29 -225h-122l28 225h-102l-47 -379h-148l105 850h147z" />
    <glyph glyph-name="uni04A0" unicode="&#x4a0;" horiz-adv-x="1343" 
d="M506 1223h-328l19 143h479l-72 -586l653 586h205l-717 -637l570 -729h-209l-481 627l-45 -39l-72 -588h-152z" />
    <glyph glyph-name="uni04A1" unicode="&#x4a1;" horiz-adv-x="925" 
d="M289 715h-185l17 135h332l-43 -348l387 348h180l-416 -379l357 -471h-193l-287 373l-49 -43l-41 -330h-147z" />
    <glyph glyph-name="uni04A2" unicode="&#x4a2;" horiz-adv-x="1363" 
d="M344 1366h152l-68 -555h700l68 555h152l-150 -1223h156l-54 -430h-143l35 287h-164l82 668h-700l-82 -668h-152z" />
    <glyph glyph-name="uni04A3" unicode="&#x4a3;" horiz-adv-x="991" 
d="M244 850h147l-43 -348h402l43 348h147l-88 -715h139l-45 -360h-135l29 225h-152l45 367h-401l-45 -367h-148z" />
    <glyph glyph-name="uni04A4" unicode="&#x4a4;" horiz-adv-x="1679" 
d="M344 1366h152l-68 -555h700l68 555h623l-19 -143h-471l-149 -1223h-152l82 668h-700l-82 -668h-152z" />
    <glyph glyph-name="uni04A5" unicode="&#x4a5;" horiz-adv-x="1200" 
d="M244 850h147l-43 -348h402l43 348h503l-16 -135h-356l-88 -715h-148l45 367h-401l-45 -367h-148z" />
    <glyph glyph-name="uni04AA" unicode="&#x4aa;" horiz-adv-x="1323" 
d="M1352 1065q-65 75 -164 127q-112 53 -227 53q-224 0 -410 -160q-78 -72 -133 -170q-61 -101 -76 -239q-18 -142 16 -236q28 -93 91 -159q72 -81 169 -121q100 -41 205 -41q113 0 240 53q128 63 194 125l-22 -188q-49 -35 -135 -72q-80 -35 -215 -57l-39 -308h-144l39 308
q-100 3 -209 47q-115 48 -210 155q-176 194 -136 496q17 161 90 291q75 129 164 209q94 90 238 151q142 60 309 60q157 0 248 -46q91 -42 139 -90z" />
    <glyph glyph-name="uni04AB" unicode="&#x4ab;" horiz-adv-x="897" 
d="M881 612q-54 73 -123 99q-73 28 -129 28q-51 0 -115 -22q-57 -19 -113 -66q-63 -59 -82 -116q-24 -62 -30 -113q-6 -66 2 -115q12 -56 45 -100q44 -54 98 -76q58 -25 121 -25q148 0 285 134l-21 -177q-20 -18 -74 -47q-55 -25 -129 -34l-28 -228h-135l28 226
q-100 9 -162 45q-64 37 -100 79q-60 73 -74 146q-19 85 -8 168q15 119 64 198q52 83 100 123q158 131 352 131q41 0 113 -16q65 -14 135 -66z" />
    <glyph glyph-name="uni04AE" unicode="&#x4ae;" horiz-adv-x="1085" 
d="M537 588l-353 778h176l273 -610l428 610h176l-549 -778l-72 -588h-151z" />
    <glyph glyph-name="uni04AF" unicode="&#x4af;" horiz-adv-x="868" 
d="M285 850l184 -574l324 574h163l-436 -746l-69 -575h-148l70 575l-252 746h164z" />
    <glyph glyph-name="uni04B0" unicode="&#x4b0;" horiz-adv-x="1085" 
d="M520 453h-389l16 135h390l-353 778h176l273 -610l428 610h176l-549 -778h389l-16 -135h-389l-56 -453h-151z" />
    <glyph glyph-name="uni04B1" unicode="&#x4b1;" horiz-adv-x="868" 
d="M285 850l184 -574l324 574h163l-436 -746l-12 -104h246l-17 -135h-245l-41 -336h-148l41 336h-246l17 135h245l13 104l-252 746h164z" />
    <glyph glyph-name="uni04B2" unicode="&#x4b2;" horiz-adv-x="1064" 
d="M518 707l-285 659h173l219 -514l354 514h172l-457 -659l248 -564h113l-54 -430h-143l35 287h-62l-243 561l-387 -561h-172z" />
    <glyph glyph-name="uni04B3" unicode="&#x4b3;" horiz-adv-x="929" 
d="M434 455l-260 395h180l185 -289l258 289h180l-361 -397l209 -318h105l-45 -360h-135l28 225h-45l-225 346l-311 -346h-181z" />
    <glyph glyph-name="uni04B6" unicode="&#x4b6;" horiz-adv-x="1216" 
d="M952 586q-15 -1 -147 -11q-110 -4 -137 -4q-254 0 -328 74q-73 65 -86 158q-9 92 0 160l49 403h152l-47 -383q-5 -36 -2 -109q3 -67 55 -116q33 -26 94 -35q52 -8 139 -8q182 0 277 14l78 637h151l-149 -1223h155l-53 -430h-143l34 287h-163z" />
    <glyph glyph-name="uni04B7" unicode="&#x4b7;" horiz-adv-x="897" 
d="M635 334q-49 -7 -100 -12q-68 -7 -103 -7q-20 0 -92 11q-62 9 -107 51q-38 38 -47 94q-6 53 0 115l33 264h148l-31 -244q-2 -14 -2 -51q0 -25 8 -49q19 -39 53 -47q33 -8 70 -8q81 0 186 18l47 381h148l-88 -715h139l-45 -360h-135l28 225h-151z" />
    <glyph glyph-name="uni04B8" unicode="&#x4b8;" horiz-adv-x="1269" 
d="M1014 586q-17 -1 -48 -3t-48 -3q-17 0 -65 -3t-79 -4l-35 -286h-135l35 284q-5 0 -15 0.5t-27.5 1.5t-31.5 2q-49 3 -119 19q-61 15 -106 51q-74 65 -86 160q-9 90 0 158l49 403h152l-47 -383q-5 -33 -2 -109q3 -67 55 -116q43 -28 98 -37q61 -9 98 -6l37 301h135
l-36 -299q95 3 147 6q48 3 92 6l78 637h152l-168 -1366h-152z" />
    <glyph glyph-name="uni04B9" unicode="&#x4b9;" horiz-adv-x="942" 
d="M696 334q-62 -12 -133 -12l-24 -209h-123l24 202q-46 -3 -110 13q-56 12 -97 49q-38 35 -47 92q-6 55 0 117l33 264h148l-31 -244q-2 -14 -2 -51q0 -25 8 -49q23 -50 115 -53l26 213h123l-26 -211q76 0 133 14l47 381h147l-104 -850h-148z" />
    <glyph glyph-name="uni04BA" unicode="&#x4ba;" horiz-adv-x="1208" 
d="M428 821q24 2 75 5t72 5q137 5 138 5q255 0 329 -74q75 -69 84 -158q8 -85 2 -160l-55 -444h-151l51 424q5 35 2 108q-3 68 -55 117q-33 26 -95 35q-52 8 -137 8q-181 0 -276 -14l-84 -678h-152l168 1366h152z" />
    <glyph glyph-name="uni04BB" unicode="&#x4bb;" horiz-adv-x="962" 
d="M324 1493h147l-92 -741q21 25 49 47q38 30 86 49q55 22 123 22q75 0 137 -30q63 -29 92 -86q26 -51 29 -103q0 -55 -6 -125l-66 -526h-147l63 522q4 27 4 80q-3 39 -22 76q-34 61 -133 61q-40 0 -78 -14q-35 -10 -80 -51q-48 -54 -65 -119q-21 -74 -23 -111l-55 -444
h-148z" />
    <glyph glyph-name="uni04C0" unicode="&#x4c0;" horiz-adv-x="503" 
d="M496 1366l-168 -1366h-152l168 1366h152z" />
    <glyph glyph-name="uni04C1" unicode="&#x4c1;" horiz-adv-x="1658" 
d="M866 1722q12 -56 47 -80q36 -25 70 -28q37 -6 43 -6q8 0 45 6q36 3 78 28q41 24 65 80l138 -47q-5 -16 -43 -67q-33 -41 -109 -88q-73 -43 -188 -43q-120 0 -181 43q-64 45 -86 88q-26 54 -28 67zM1073 1366l-72 -586l592 586h189l-652 -637l500 -729h-192l-424 625
l-37 -37l-72 -588h-151l71 588l-28 37l-576 -625h-192l680 729l-496 637h188l449 -586l72 586h151z" />
    <glyph glyph-name="uni04C2" unicode="&#x4c2;" horiz-adv-x="1220" 
d="M592 1264q10 -56 47 -88q41 -35 111 -35t120 35q49 37 70 88l117 -47q-108 -199 -322 -199t-272 199zM788 850l-43 -348l363 348h172l-418 -393l350 -457h-184l-272 358l-31 -28l-41 -330h-147l41 330l-27 28l-358 -358h-185l461 457l-319 393h172l276 -348l43 348h147z
" />
    <glyph glyph-name="uni04C3" unicode="&#x4c3;" horiz-adv-x="1196" 
d="M496 1366l-78 -627l659 627h205l-602 -557q104 0 199 -27q95 -25 159 -98q82 -98 97 -231q14 -127 2 -232q-9 -81 -54 -213q-40 -124 -137 -221q-81 -72 -170 -94q-86 -21 -153 -21q-137 0 -222 43l62 146q68 -45 170 -45q43 0 98 12t107 55q119 104 143 324q6 43 6 117
q0 76 -20 149q-21 76 -80 129q-103 74 -242 74q-62 0 -119 -8q-57 -5 -118 -19l-80 -649h-152l168 1366h152z" />
    <glyph glyph-name="uni04C4" unicode="&#x4c4;" horiz-adv-x="847" 
d="M391 850l-43 -348l387 348h180l-419 -379q144 -9 239 -104q39 -42 60 -109q22 -63 10 -168t-64 -203q-53 -103 -143 -178q-55 -46 -129 -82q-81 -41 -188 -53l18 143q90 6 209 99q57 48 94 112q34 59 47 150q9 87 -10 133q-18 52 -45 76q-43 40 -100 49q-59 12 -103 12
h-61l-43 -348h-148l105 850h147z" />
    <glyph glyph-name="uni04C7" unicode="&#x4c7;" horiz-adv-x="1355" 
d="M344 1366h152l-68 -555h700l68 555h152l-191 -1542q-6 -51 -24 -115q-17 -62 -72 -117q-30 -27 -76 -45q-49 -18 -115 -18q-60 0 -106 18l18 148q49 -19 84 -19q21 0 49 7q21 5 43 20q26 23 35 53q10 34 13 60l104 852h-700l-82 -668h-152z" />
    <glyph glyph-name="uni04C8" unicode="&#x4c8;" horiz-adv-x="974" 
d="M244 850h147l-43 -348h402l43 348h147l-127 -1026q-5 -53 -27 -121q-18 -55 -65 -102q-48 -42 -92 -56q-53 -16 -103 -16q-62 0 -102 18l16 144q49 -19 95 -19q39 0 63 15q26 13 37 30q24 37 33 123l65 527h-401l-45 -367h-148z" />
    <glyph glyph-name="uni04D0" unicode="&#x4d0;" horiz-adv-x="1273" 
d="M682 1722q12 -56 47 -80q36 -25 70 -28q37 -6 43 -6q8 0 45 6q36 3 78 28q41 24 65 80l137 -47q-5 -16 -43 -67q-34 -43 -108 -88q-73 -43 -189 -43q-119 0 -180 43q-64 45 -86 88q-28 57 -29 67zM977 385h-582l-211 -385h-168l805 1432l436 -1432h-167zM936 528
l-164 547l-299 -547h463z" />
    <glyph glyph-name="uni04D1" unicode="&#x4d1;" horiz-adv-x="1077" 
d="M502 1264q10 -56 47 -88q41 -35 110 -35q71 0 121 35q49 37 70 88l117 -47q-108 -199 -322 -199t-272 199zM895 850h147l-104 -850h-147l14 119q-45 -51 -119 -96q-79 -48 -188 -48t-197 52q-90 50 -135 149t-27 250q15 143 88 246q69 97 170 149q101 49 209 49
q82 0 137 -24q53 -23 88 -58q39 -39 50 -59zM606 739q-108 0 -203 -80q-94 -76 -112 -233q-19 -140 45 -227q63 -93 192 -93q134 0 222 97q85 94 100 221q15 107 -21 180q-35 69 -96 103q-57 32 -127 32z" />
    <glyph glyph-name="uni04D2" unicode="&#x4d2;" horiz-adv-x="1273" 
d="M543 1606q6 45 41 73q36 31 78 31q41 0 69 -31q27 -33 21 -73q-3 -43 -39 -74t-78 -31t-70 31q-25 28 -22 74zM932 1606q6 45 41 73q36 31 78 31q41 0 69 -31q26 -33 21 -73q-3 -43 -39 -74t-78 -31t-70 31q-25 28 -22 74zM977 385h-582l-211 -385h-168l805 1432
l436 -1432h-167zM936 528l-164 547l-299 -547h463z" />
    <glyph glyph-name="uni04D3" unicode="&#x4d3;" horiz-adv-x="1077" 
d="M350 1126q3 41 39 72t76 31q39 0 67 -31q26 -29 23 -72q-6 -41 -41 -71q-36 -31 -76 -31q-39 0 -67 31q-27 30 -21 71zM707 1126q3 41 38 72q36 31 76 31t68 -31q25 -28 22 -72q-6 -41 -41 -71q-36 -31 -75 -31q-40 0 -68 31q-26 29 -20 71zM895 850h147l-104 -850h-147
l14 119q-45 -51 -119 -96q-79 -48 -188 -48t-197 52q-90 50 -135 149t-27 250q15 143 88 246q69 97 170 149q101 49 209 49q82 0 137 -24q53 -23 88 -58q39 -39 50 -59zM606 739q-108 0 -203 -80q-94 -76 -112 -233q-19 -140 45 -227q63 -93 192 -93q134 0 222 97
q85 94 100 221q15 107 -21 180q-35 69 -96 103q-57 32 -127 32z" />
    <glyph glyph-name="uni04D4" unicode="&#x4d4;" horiz-adv-x="1843" 
d="M987 383h-581l-209 -383h-168l776 1366h600l41 -143h-551l121 -406h540l41 -143h-536l158 -531h555l41 -143h-713zM946 526l-160 535l-297 -535h457z" />
    <glyph glyph-name="uni04D5" unicode="&#x4d5;" horiz-adv-x="1585" 
d="M1516 213q-43 -63 -93 -111q-55 -52 -135 -90q-78 -37 -184 -37q-22 0 -94 11q-60 10 -115 45q-60 38 -104 114q-57 -75 -117 -110q-61 -37 -121 -49q-71 -11 -102 -11q-99 0 -181 31q-79 30 -123 92q-42 60 -30 154q18 135 129 209q115 71 260 71q152 0 235 -71
q7 45 4 88q-3 53 -22 92q-24 55 -74 76q-52 22 -117 22q-72 0 -149 -18q-55 -13 -119 -35l17 139q95 29 153 37q57 8 117 8q41 0 106 -10q65 -13 113 -47q57 -44 82 -115q60 80 154 129q90 43 194 43q187 0 281 -125q93 -124 69 -335l-2 -15h-663q-9 -131 57 -209
q65 -80 174 -80q88 0 164 54q77 55 121 127zM1411 518q-3 105 -65 164q-63 57 -160 57q-93 0 -168 -57q-81 -62 -109 -164h502zM502 401q-109 0 -170 -43q-59 -47 -68 -106q-3 -27 10 -64q16 -37 60 -57q45 -25 127 -25q81 0 139 25q57 26 78 59q26 38 29 68q6 28 -13 64
q-14 32 -63 57q-46 22 -129 22z" />
    <glyph glyph-name="uni04D6" unicode="&#x4d6;" horiz-adv-x="987" 
d="M569 1722q12 -56 47 -80q36 -25 70 -28q37 -6 43 -6q7 0 45 6q36 3 78 28t66 80l137 -47q-5 -16 -43 -67q-33 -41 -109 -88q-73 -43 -188 -43q-119 0 -180 43q-64 45 -86 88q-28 57 -29 67zM1034 1223h-557l-49 -406h541l-19 -143h-540l-64 -531h557l-18 -143h-709
l168 1366h709z" />
    <glyph glyph-name="uni04D7" unicode="&#x4d7;" horiz-adv-x="985" 
d="M475 1264q10 -56 47 -88q41 -35 111 -35q71 0 121 35q48 36 69 88l117 -47q-108 -199 -322 -199t-272 199zM920 217q-48 -76 -121 -137q-132 -105 -295 -105q-106 0 -195 45q-90 47 -141 144q-49 98 -31 256q24 189 150 321q126 129 317 129q126 0 199 -49
q76 -51 104 -106q34 -57 43 -146q11 -80 -2 -174h-661q-12 -135 55 -211q69 -78 178 -78q105 0 182 62q66 54 103 117zM811 518q-6 96 -68 162q-62 59 -155 59q-94 0 -170 -61q-77 -62 -107 -160h500z" />
    <glyph glyph-name="uni04D8" unicode="&#x4d8;" horiz-adv-x="1548" 
d="M291 1092q72 84 178 161q115 80 223 105q118 31 211 31q308 0 486 -205q179 -203 141 -502q-38 -300 -262 -502q-227 -205 -529 -205q-180 0 -301 74q-120 70 -178 172q-55 92 -72 205q-19 103 -6 227l4 33h1188q18 153 -37 281q-56 128 -170 202q-116 76 -282 76
q-122 0 -209 -35q-90 -41 -137 -80q-79 -57 -148 -141zM326 543q-6 -133 30 -195q116 -229 389 -229q201 0 363 119q164 115 235 305h-1017z" />
    <glyph glyph-name="uni04D9" unicode="&#x4d9;" horiz-adv-x="987" 
d="M170 629q48 76 121 137q77 62 151 82q80 22 144 22q105 0 194 -45q95 -48 142 -143q51 -95 32 -256q-24 -192 -149 -320q-125 -131 -320 -131q-124 0 -198 50q-80 54 -107 106q-74 141 -39 320h664q12 136 -57 211q-68 77 -181 77q-104 0 -180 -61q-62 -48 -102 -117z
M279 328q3 -100 63 -160q62 -62 158 -62t170 62q79 63 108 160h-499z" />
    <glyph glyph-name="uni04DA" unicode="&#x4da;" horiz-adv-x="1548" 
d="M635 1606q6 45 41 73q36 31 78 31q41 0 69 -31q27 -33 21 -73q-3 -43 -39 -74t-78 -31t-70 31q-25 28 -22 74zM1024 1606q6 45 41 73q36 31 78 31q41 0 69 -31q26 -33 21 -73q-3 -43 -39 -74t-78 -31q-41 0 -69 31q-26 29 -23 74zM291 1092q72 84 178 161q115 80 223 105
q118 31 211 31q308 0 486 -205q179 -203 141 -502q-38 -300 -262 -502q-227 -205 -529 -205q-180 0 -301 74q-120 70 -178 172q-55 92 -72 205q-19 103 -6 227l4 33h1188q18 153 -37 281q-56 128 -170 202q-116 76 -282 76q-122 0 -209 -35q-90 -41 -137 -80
q-79 -57 -148 -141zM326 543q-6 -133 30 -195q116 -229 389 -229q201 0 363 119q164 115 235 305h-1017z" />
    <glyph glyph-name="uni04DB" unicode="&#x4db;" horiz-adv-x="987" 
d="M354 1126q3 41 39 72t76 31t68 -31q25 -28 22 -72q-6 -41 -41 -71q-36 -31 -76 -31q-39 0 -67 31q-27 30 -21 71zM711 1126q3 41 39 72t75 31q40 0 68 -31q25 -28 22 -72q-6 -41 -41 -71q-36 -31 -75 -31q-40 0 -68 31q-26 29 -20 71zM170 629q48 76 121 137
q77 62 151 82q80 22 144 22q105 0 194 -45q95 -48 142 -143q51 -95 32 -256q-24 -192 -149 -320q-125 -131 -320 -131q-124 0 -198 50q-80 54 -107 106q-74 141 -39 320h664q12 136 -57 211q-68 77 -181 77q-104 0 -180 -61q-62 -48 -102 -117zM279 328q3 -100 63 -160
q62 -62 158 -62t170 62q79 63 108 160h-499z" />
    <glyph glyph-name="uni04DC" unicode="&#x4dc;" horiz-adv-x="1658" 
d="M727 1606q6 45 41 73q36 31 78 31q41 0 69 -31q27 -33 21 -73q-3 -43 -39 -74t-78 -31q-41 0 -69 31q-26 29 -23 74zM1116 1606q6 45 41 73q36 31 78 31t70 -31q26 -32 20 -73q-3 -43 -39 -74t-78 -31q-41 0 -69 31q-26 29 -23 74zM1073 1366l-72 -586l592 586h189
l-652 -637l500 -729h-192l-424 625l-37 -37l-72 -588h-151l71 588l-28 37l-576 -625h-192l680 729l-496 637h188l449 -586l72 586h151z" />
    <glyph glyph-name="uni04DD" unicode="&#x4dd;" horiz-adv-x="1220" 
d="M469 1126q3 41 39 72t76 31q39 0 67 -31q26 -29 23 -72q-6 -41 -41 -71q-36 -31 -76 -31t-68 31q-26 29 -20 71zM825 1126q3 41 39 72t76 31t68 -31q25 -28 22 -72q-6 -41 -41 -71q-36 -31 -76 -31q-39 0 -67 31q-27 30 -21 71zM788 850l-43 -348l363 348h172l-418 -393
l350 -457h-184l-272 358l-31 -28l-41 -330h-147l41 330l-27 28l-358 -358h-185l461 457l-319 393h172l276 -348l43 348h147z" />
    <glyph glyph-name="uni04DE" unicode="&#x4de;" horiz-adv-x="1179" 
d="M492 1606q6 46 40 73q36 31 78 31t70 -31q26 -32 20 -73q-3 -44 -38 -74q-36 -31 -78 -31t-70 31q-25 28 -22 74zM881 1606q6 45 41 73q36 31 77 31q42 0 70 -31q27 -33 21 -73q-3 -43 -39 -74t-78 -31t-70 31q-25 28 -22 74zM350 1190q103 121 209 160q104 39 207 39
q43 0 133 -17q78 -18 143 -80q43 -40 64 -104q24 -62 12 -148q-12 -104 -74 -178q-64 -73 -149 -110q133 -35 190 -131q56 -95 41 -222q-15 -126 -77 -209q-61 -79 -134 -124q-160 -91 -321 -91q-135 0 -227 50q-94 51 -148 122q-56 75 -80 156l156 66q27 -117 115 -183
q82 -67 206 -67q113 0 218 57q68 45 100 107q29 63 37 112q9 95 -21 148q-30 55 -84 80q-53 26 -116 32q-62 9 -111 9h-123l16 143h123q146 0 219 70q80 71 89 161q12 89 -37 144q-39 43 -86 51q-52 12 -90 12q-72 0 -148 -31q-74 -30 -145 -116z" />
    <glyph glyph-name="uni04DF" unicode="&#x4df;" horiz-adv-x="864" 
d="M309 1126q3 41 39 72t76 31t68 -31q25 -28 22 -72q-6 -41 -41 -71q-36 -31 -76 -31q-39 0 -67 31q-27 30 -21 71zM666 1126q3 41 39 72t75 31q40 0 68 -31q25 -28 22 -72q-6 -41 -41 -71q-36 -31 -75 -31q-40 0 -68 31q-26 29 -20 71zM236 717q54 66 120 106
q60 29 103 37q55 10 90 10q45 0 100 -10q51 -9 94 -49q36 -36 48 -76q12 -42 6 -86q-10 -79 -45 -117q-37 -43 -74 -61q66 -18 92 -55q53 -59 41 -156q-18 -135 -139 -219q-114 -66 -248 -66q-49 0 -115 17q-55 15 -104 55q-71 65 -94 146l133 53q3 -17 18 -43q9 -21 45 -53
q33 -26 66 -35q34 -9 67 -9q17 0 68 7q38 3 80 26q22 11 47 43q24 35 27 76q9 72 -39 98q-32 22 -68 25q-50 4 -68 4h-86l17 135h71q54 0 78 8q13 3 37 15q14 7 35 28q15 21 18 50q6 56 -26 88q-19 19 -53 26q-40 4 -52 4q-25 0 -55 -6q-19 -4 -65 -26q-37 -18 -78 -74z" />
    <glyph glyph-name="uni04E2" unicode="&#x4e2;" horiz-adv-x="1454" 
d="M610 1632h656l-17 -131h-655zM1253 1042l-1085 -1103l176 1427h152l-129 -1047l1085 1104l-174 -1423h-152z" />
    <glyph glyph-name="uni04E3" unicode="&#x4e3;" horiz-adv-x="1007" 
d="M338 1174h618l-14 -123h-618zM391 850l-69 -561l659 626l-113 -915h-147l70 567l-660 -626l113 909h147z" />
    <glyph glyph-name="uni04E4" unicode="&#x4e4;" horiz-adv-x="1454" 
d="M635 1606q6 45 41 73q36 31 78 31q41 0 69 -31q27 -33 21 -73q-3 -43 -39 -74t-78 -31t-70 31q-25 28 -22 74zM1024 1606q6 45 41 73q36 31 78 31q41 0 69 -31q26 -33 21 -73q-3 -43 -39 -74t-78 -31q-41 0 -69 31q-26 29 -23 74zM1253 1042l-1085 -1103l176 1427h152
l-129 -1047l1085 1104l-174 -1423h-152z" />
    <glyph glyph-name="uni04E5" unicode="&#x4e5;" horiz-adv-x="1007" 
d="M362 1126q3 41 39 72t76 31t68 -31q25 -28 22 -72q-6 -41 -41 -71q-36 -31 -75 -31q-40 0 -68 31q-27 30 -21 71zM719 1126q3 41 39 72t76 31q39 0 67 -31q26 -29 23 -72q-6 -41 -41 -71q-36 -31 -76 -31t-68 31q-26 29 -20 71zM391 850l-69 -561l659 626l-113 -915h-147
l70 567l-660 -626l113 909h147z" />
    <glyph glyph-name="uni04E6" unicode="&#x4e6;" horiz-adv-x="1626" 
d="M711 1606q6 45 41 73q36 31 77 31q42 0 70 -31q27 -33 21 -73q-3 -43 -39 -74t-78 -31t-70 31q-25 28 -22 74zM1100 1606q6 45 41 73q36 31 78 31q41 0 69 -31q26 -33 21 -73q-3 -43 -39 -74t-78 -31t-70 31q-25 28 -22 74zM811 -25q-196 0 -348 93t-225 251
q-76 158 -52 363q24 200 140 362q120 163 288 252q175 93 369 93q197 0 346 -93q150 -91 227 -252q76 -158 52 -362q-24 -201 -140 -363q-119 -161 -288 -251q-175 -93 -369 -93zM967 1245q-232 0 -414 -164q-185 -170 -211 -399q-30 -231 113 -399q141 -164 372 -164
q229 0 414 164q181 166 211 399q27 234 -113 399q-144 164 -372 164z" />
    <glyph glyph-name="uni04E7" unicode="&#x4e7;" horiz-adv-x="1073" 
d="M395 1126q3 41 39 72t76 31t68 -31q25 -28 22 -72q-6 -41 -41 -71q-36 -31 -76 -31q-39 0 -67 31q-27 30 -21 71zM752 1126q3 41 39 72t75 31q40 0 68 -31q25 -28 22 -72q-6 -41 -41 -71q-36 -31 -75 -31q-40 0 -68 31q-26 29 -20 71zM535 -25q-193 0 -308 127
q-111 123 -90 320q24 192 168 321q145 127 338 127q195 0 307 -127t88 -321q-21 -191 -168 -320q-145 -127 -335 -127zM627 739q-116 0 -217 -82q-103 -80 -121 -235q-12 -105 22 -174t99 -107q65 -35 139 -35q77 0 149 35q73 37 125 107t64 174q12 108 -21 176
q-34 69 -96 107q-64 34 -143 34z" />
    <glyph glyph-name="uni04E8" unicode="&#x4e8;" horiz-adv-x="1622" 
d="M809 -25q-197 0 -346 93q-152 93 -225 251q-76 158 -52 363q24 200 140 362q121 165 286 252q175 93 369 93q197 0 346 -93q151 -92 225 -252q76 -158 52 -362q-24 -201 -140 -363q-120 -163 -286 -251q-175 -93 -369 -93zM1454 778q-18 227 -166 348q-143 119 -323 119
q-181 0 -355 -119q-176 -118 -250 -348h1094zM336 635q0 -239 141 -377q145 -139 348 -139t383 139q175 138 234 377h-1106z" />
    <glyph glyph-name="uni04E9" unicode="&#x4e9;" horiz-adv-x="1073" 
d="M535 -25q-193 0 -308 127q-111 123 -90 320q24 192 168 321q145 127 338 127q195 0 307 -127t88 -321q-21 -191 -168 -320q-145 -127 -335 -127zM889 500q-9 119 -86 178q-76 61 -176 61q-101 0 -189 -61q-90 -58 -131 -178h582zM287 369q0 -124 78 -193q76 -70 184 -70
q114 0 205 70q93 71 123 193h-590z" />
    <glyph glyph-name="uni04EA" unicode="&#x4ea;" horiz-adv-x="1622" 
d="M711 1606q6 45 41 73q36 31 77 31q42 0 70 -31q27 -33 21 -73q-3 -43 -39 -74t-78 -31t-70 31q-25 28 -22 74zM1100 1606q6 45 41 73q36 31 78 31q41 0 69 -31q26 -33 21 -73q-3 -43 -39 -74t-78 -31t-70 31q-25 28 -22 74zM809 -25q-197 0 -346 93q-152 93 -225 251
q-76 158 -52 363q24 200 140 362q121 165 286 252q175 93 369 93q197 0 346 -93q151 -92 225 -252q76 -158 52 -362q-24 -201 -140 -363q-120 -163 -286 -251q-175 -93 -369 -93zM1454 778q-18 227 -166 348q-143 119 -323 119q-181 0 -355 -119q-176 -118 -250 -348h1094z
M336 635q0 -239 141 -377q145 -139 348 -139t383 139q175 138 234 377h-1106z" />
    <glyph glyph-name="uni04EB" unicode="&#x4eb;" horiz-adv-x="1073" 
d="M395 1126q3 41 39 72t76 31t68 -31q25 -28 22 -72q-6 -41 -41 -71q-36 -31 -76 -31q-39 0 -67 31q-27 30 -21 71zM752 1126q3 41 39 72t75 31q40 0 68 -31q25 -28 22 -72q-6 -41 -41 -71q-36 -31 -75 -31q-40 0 -68 31q-26 29 -20 71zM535 -25q-193 0 -308 127
q-111 123 -90 320q24 192 168 321q145 127 338 127q195 0 307 -127t88 -321q-21 -191 -168 -320q-145 -127 -335 -127zM889 500q-9 119 -86 178q-76 61 -176 61q-101 0 -189 -61q-90 -58 -131 -178h582zM287 369q0 -124 78 -193q76 -70 184 -70q114 0 205 70q93 71 123 193
h-590z" />
    <glyph glyph-name="uni04EE" unicode="&#x4ee;" horiz-adv-x="1163" 
d="M477 1632h656l-17 -131h-655zM369 1366l327 -805l455 805h164l-785 -1366h-163l221 381l-404 985h185z" />
    <glyph glyph-name="uni04EF" unicode="&#x4ef;" horiz-adv-x="942" 
d="M305 1174h619l-15 -123h-618zM418 80l-297 770h168l225 -608l352 608h164l-786 -1321h-164z" />
    <glyph glyph-name="uni04F0" unicode="&#x4f0;" horiz-adv-x="1163" 
d="M502 1606q6 45 41 73q36 31 78 31q41 0 69 -31q26 -33 21 -73q-3 -43 -39 -74t-78 -31t-70 31q-25 28 -22 74zM891 1606q6 45 41 73q36 31 78 31q41 0 69 -31q27 -33 21 -73q-3 -43 -39 -74t-78 -31t-70 31q-25 28 -22 74zM369 1366l327 -805l455 805h164l-785 -1366
h-163l221 381l-404 985h185z" />
    <glyph glyph-name="uni04F1" unicode="&#x4f1;" horiz-adv-x="942" 
d="M350 1126q3 41 39 72t76 31q39 0 67 -31q26 -29 23 -72q-6 -41 -41 -71q-36 -31 -76 -31q-39 0 -67 31q-27 30 -21 71zM707 1126q3 41 38 72q36 31 76 31t68 -31q25 -28 22 -72q-6 -41 -41 -71q-36 -31 -75 -31q-40 0 -68 31q-26 29 -20 71zM418 80l-297 770h168
l225 -608l352 608h164l-786 -1321h-164z" />
    <glyph glyph-name="uni04F2" unicode="&#x4f2;" horiz-adv-x="1163" 
d="M944 1724l-332 -249l-80 53l279 278zM1251 1724l-331 -249l-80 53l278 278zM369 1366l327 -805l455 805h164l-785 -1366h-163l221 381l-404 985h185z" />
    <glyph glyph-name="uni04F3" unicode="&#x4f3;" horiz-adv-x="942" 
d="M778 1298l-315 -278l-78 47l254 297zM1049 1298l-312 -278l-78 47l254 297zM418 80l-297 770h168l225 -608l352 608h164l-786 -1321h-164z" />
    <glyph glyph-name="uni04F4" unicode="&#x4f4;" horiz-adv-x="1208" 
d="M492 1606q6 46 40 73q36 31 78 31t70 -31q26 -32 20 -73q-3 -44 -38 -74q-36 -31 -78 -31t-70 31q-25 28 -22 74zM881 1606q6 45 41 73q36 31 77 31q42 0 70 -31q27 -33 21 -73q-3 -43 -39 -74t-78 -31t-70 31q-25 28 -22 74zM952 586q-15 -1 -147 -11q-110 -4 -137 -4
q-254 0 -328 74q-73 65 -86 158q-9 92 0 160l49 403h152l-47 -383q-5 -36 -2 -109q3 -67 55 -116q33 -26 94 -35q52 -8 139 -8q182 0 277 14l78 637h151l-168 -1366h-151z" />
    <glyph glyph-name="uni04F5" unicode="&#x4f5;" horiz-adv-x="880" 
d="M289 1126q3 41 39 72t75 31q40 0 68 -31q26 -29 23 -72q-6 -41 -41 -71q-36 -31 -76 -31t-68 31q-26 29 -20 71zM645 1126q3 41 39 72t76 31q39 0 67 -31q26 -29 23 -72q-6 -41 -41 -71q-36 -31 -76 -31q-39 0 -67 31q-27 30 -21 71zM635 334q-49 -7 -100 -12
q-68 -7 -103 -7q-20 0 -92 11q-62 9 -107 51q-38 38 -47 94q-6 53 0 115l33 264h148l-31 -244q-2 -14 -2 -51q0 -25 8 -49q19 -39 53 -47q33 -8 70 -8q81 0 186 18l47 381h148l-105 -850h-147z" />
    <glyph glyph-name="uni04F8" unicode="&#x4f8;" horiz-adv-x="1454" 
d="M625 1606q6 45 41 73q36 31 77 31q42 0 70 -31q27 -33 21 -73q-3 -43 -39 -74t-78 -31t-70 31q-25 28 -22 74zM1014 1606q6 45 41 73q36 31 78 31q41 0 69 -31q26 -33 21 -73q-3 -43 -39 -74t-78 -31t-70 31q-25 28 -22 74zM344 1366h152l-70 -567h184q59 0 142 -13
q79 -9 149 -49q68 -36 109 -114q39 -74 24 -209q-24 -193 -157 -305q-136 -109 -336 -109h-365zM1446 1366l-168 -1366h-152l168 1366h152zM346 143h176q29 0 119 11q77 13 141 65q32 22 60 74q28 48 37 121q6 50 -9 108q-12 58 -77 99q-43 24 -103 30q-78 4 -123 4h-159z
" />
    <glyph glyph-name="uni04F9" unicode="&#x4f9;" horiz-adv-x="1150" 
d="M434 1126q3 41 39 72t76 31q39 0 67 -31q26 -29 23 -72q-6 -41 -41 -71q-36 -31 -76 -31q-39 0 -67 31q-27 30 -21 71zM791 1126q3 41 38 72q36 31 76 31t68 -31q25 -28 22 -72q-6 -41 -41 -71q-36 -31 -75 -31q-40 0 -68 31q-26 29 -20 71zM244 850h147l-41 -326h152
q64 0 127 -14q69 -12 121 -70q23 -23 38 -69q13 -46 7 -109q-9 -68 -39 -117q-26 -45 -62 -73q-62 -50 -129 -62q-72 -10 -129 -10h-297zM969 850h147l-104 -850h-148zM440 131q22 0 72 4q32 3 61 19q19 10 41 34q23 27 29 74q3 24 -4 57q-10 31 -37 50q-22 17 -59 20
q-46 4 -68 4h-139l-33 -262h137z" />
    <glyph glyph-name="Germandbls" unicode="&#x1e9e;" horiz-adv-x="1181" 
d="M297 983q9 69 43 147q34 81 115 150q80 65 159 86q87 23 144 23q40 0 119 -11q66 -10 129 -55q72 -54 102 -139q32 -87 20 -164l-323 -250q134 -20 223 -94q121 -109 100 -275q-15 -123 -81 -200q-69 -84 -156 -133q-81 -46 -168 -66q-107 -25 -170 -27l16 144
q124 6 250 69q65 36 103 86q43 49 49 117q11 77 -21 133q-29 51 -82 86q-59 34 -116 47q-80 15 -115 17l16 123l322 262q-9 103 -76 145q-65 41 -154 41q-134 0 -208 -80q-46 -46 -68 -104q-20 -65 -25 -107l-116 -954h-152z" />
    <glyph glyph-name="uni1EA0" unicode="&#x1ea0;" horiz-adv-x="1273" 
d="M977 385h-582l-211 -385h-168l805 1432l436 -1432h-167zM936 528l-164 547l-299 -547h463zM500 -231q6 47 41 77q36 31 82 31q45 0 73 -31q27 -33 21 -77q-7 -50 -41 -78q-36 -31 -80 -31q-46 0 -74 31t-22 78z" />
    <glyph glyph-name="uni1EA1" unicode="&#x1ea1;" horiz-adv-x="1077" 
d="M895 850h147l-104 -850h-147l14 119q-45 -51 -119 -96q-79 -48 -188 -48t-197 52q-90 50 -135 149t-27 250q15 143 88 246q69 97 170 149q101 49 209 49q82 0 137 -24q53 -23 88 -58q39 -39 50 -59zM606 739q-108 0 -203 -80q-94 -76 -112 -233q-19 -140 45 -227
q63 -93 192 -93q134 0 222 97q85 94 100 221q15 107 -21 180q-35 69 -96 103q-57 32 -127 32zM401 -231q6 47 41 77q36 31 82 31t74 -31q26 -32 20 -77q-7 -51 -40 -78q-36 -31 -80 -31q-46 0 -74 31q-29 32 -23 78z" />
    <glyph glyph-name="uni1EA2" unicode="&#x1ea2;" horiz-adv-x="1273" 
d="M764 1518q12 30 33 51q15 15 47 39q39 34 45 41q21 21 24 49q6 58 -45 61q-28 0 -57 -16q-24 -18 -59 -62l-70 45q77 127 205 127q73 0 117 -41q42 -39 36 -102q-5 -41 -34 -78q-29 -34 -66 -63q-51 -44 -76 -80zM977 385h-582l-211 -385h-168l805 1432l436 -1432h-167z
M936 528l-164 547l-299 -547h463z" />
    <glyph glyph-name="uni1EA3" unicode="&#x1ea3;" horiz-adv-x="1077" 
d="M602 1001q13 32 33 52q15 15 47 39q39 35 45 41q22 22 25 49q6 58 -43 61q-31 0 -60 -16q-24 -18 -59 -62l-70 45q77 127 205 127q73 0 117 -41q43 -40 37 -102q-5 -40 -35 -78q-26 -30 -64 -63q-51 -41 -78 -80zM895 850h147l-104 -850h-147l14 119q-45 -51 -119 -96
q-79 -48 -188 -48t-197 52q-90 50 -135 149t-27 250q15 143 88 246q69 97 170 149q101 49 209 49q82 0 137 -24q53 -23 88 -58q39 -39 50 -59zM606 739q-108 0 -203 -80q-94 -76 -112 -233q-19 -140 45 -227q63 -93 192 -93q134 0 222 97q85 94 100 221q15 107 -21 180
q-35 69 -96 103q-57 32 -127 32z" />
    <glyph glyph-name="uni1EA4" unicode="&#x1ea4;" horiz-adv-x="1273" 
d="M1425 1927l-280 -250l-80 45l229 269zM647 1481l-76 67l283 224l229 -224l-92 -67l-153 151zM977 385h-582l-211 -385h-168l805 1432l436 -1432h-167zM936 528l-164 547l-299 -547h463z" />
    <glyph glyph-name="uni1EA5" unicode="&#x1ea5;" horiz-adv-x="1077" 
d="M1264 1411l-281 -250l-80 45l230 269zM485 965l-75 67l282 223l230 -223l-93 -67l-153 151zM895 850h147l-104 -850h-147l14 119q-45 -51 -119 -96q-79 -48 -188 -48t-197 52q-90 50 -135 149t-27 250q15 143 88 246q69 97 170 149q101 49 209 49q82 0 137 -24
q53 -23 88 -58q39 -39 50 -59zM606 739q-108 0 -203 -80q-94 -76 -112 -233q-19 -140 45 -227q63 -93 192 -93q134 0 222 97q85 94 100 221q15 107 -21 180q-35 69 -96 103q-57 32 -127 32z" />
    <glyph glyph-name="uni1EA6" unicode="&#x1ea6;" horiz-adv-x="1273" 
d="M846 1991l145 63l164 -268l-88 -45zM647 1481l-76 67l283 224l229 -224l-92 -67l-153 151zM977 385h-582l-211 -385h-168l805 1432l436 -1432h-167zM936 528l-164 547l-299 -547h463z" />
    <glyph glyph-name="uni1EA7" unicode="&#x1ea7;" horiz-adv-x="1077" 
d="M684 1475l145 63l164 -268l-88 -45zM485 965l-75 67l282 223l230 -223l-93 -67l-153 151zM895 850h147l-104 -850h-147l14 119q-45 -51 -119 -96q-79 -48 -188 -48t-197 52q-90 50 -135 149t-27 250q15 143 88 246q69 97 170 149q101 49 209 49q82 0 137 -24
q53 -23 88 -58q39 -39 50 -59zM606 739q-108 0 -203 -80q-94 -76 -112 -233q-19 -140 45 -227q63 -93 192 -93q134 0 222 97q85 94 100 221q15 107 -21 180q-35 69 -96 103q-57 32 -127 32z" />
    <glyph glyph-name="uni1EA8" unicode="&#x1ea8;" horiz-adv-x="1273" 
d="M991 1739q11 27 35 51q21 21 45 39q27 21 47 41t23 47q6 58 -43 61q-31 0 -60 -16q-26 -20 -59 -61l-70 45q77 127 205 127q73 0 117 -41q43 -40 37 -103q-6 -44 -35 -76q-22 -28 -64 -61q-42 -34 -75 -82zM647 1481l-76 67l283 224l229 -224l-92 -67l-153 151zM977 385
h-582l-211 -385h-168l805 1432l436 -1432h-167zM936 528l-164 547l-299 -547h463z" />
    <glyph glyph-name="uni1EA9" unicode="&#x1ea9;" horiz-adv-x="1077" 
d="M829 1223q11 27 35 51q21 21 45 39q27 21 47 41t23 47q6 58 -43 61q-31 0 -57 -16q-27 -18 -62 -62l-69 46q76 126 204 126q74 0 117 -40t37 -103q-6 -44 -35 -76q-28 -36 -63 -61q-44 -35 -76 -82zM485 965l-75 67l282 223l230 -223l-93 -67l-153 151zM895 850h147
l-104 -850h-147l14 119q-45 -51 -119 -96q-79 -48 -188 -48t-197 52q-90 50 -135 149t-27 250q15 143 88 246q69 97 170 149q101 49 209 49q82 0 137 -24q53 -23 88 -58q39 -39 50 -59zM606 739q-108 0 -203 -80q-94 -76 -112 -233q-19 -140 45 -227q63 -93 192 -93
q134 0 222 97q85 94 100 221q15 107 -21 180q-35 69 -96 103q-57 32 -127 32z" />
    <glyph glyph-name="uni1EAA" unicode="&#x1eaa;" horiz-adv-x="1273" 
d="M584 1905q20 28 37 45q27 31 36 39q55 43 113 43q31 0 64 -11q3 -1 23.5 -9.5t31.5 -14.5q1 0 3 -1t3 -1q3 -2 9 -5t9 -5q38 -27 80 -27q15 0 31 4q17 9 29 18q2 2 24 29q12 15 21 27l67 -62q-18 -35 -57 -71q-36 -33 -70 -45q-37 -11 -59 -11q-29 0 -66 13
q-25 10 -57 26q-1 0 -2 1t-2 1q-53 33 -94 33q-34 0 -58 -27q-28 -25 -43 -49l-4 -4zM647 1481l-76 67l283 224l229 -224l-92 -67l-153 151zM977 385h-582l-211 -385h-168l805 1432l436 -1432h-167zM936 528l-164 547l-299 -547h463z" />
    <glyph glyph-name="uni1EAB" unicode="&#x1eab;" horiz-adv-x="1077" 
d="M422 1389q20 28 37 45q24 29 37 39q55 43 112 43q31 0 64 -11q6 -3 17.5 -7t21 -8.5t16.5 -8.5q1 0 3 -1t3 -1q3 -2 9.5 -5.5t9.5 -5.5q36 -26 79 -26q15 0 31 4q17 9 29 18q2 2 24 29q12 15 21 27l68 -62q-13 -31 -58 -72q-37 -34 -69 -45q-33 -10 -60 -10q-31 0 -65 12
q-20 8 -58 27q-2 2 -4 2q-53 33 -94 33q-33 0 -57 -27q-28 -25 -43 -49l-4 -4zM485 965l-75 67l282 223l230 -223l-93 -67l-153 151zM895 850h147l-104 -850h-147l14 119q-45 -51 -119 -96q-79 -48 -188 -48t-197 52q-90 50 -135 149t-27 250q15 143 88 246q69 97 170 149
q101 49 209 49q82 0 137 -24q53 -23 88 -58q39 -39 50 -59zM606 739q-108 0 -203 -80q-94 -76 -112 -233q-19 -140 45 -227q63 -93 192 -93q134 0 222 97q85 94 100 221q15 107 -21 180q-35 69 -96 103q-57 32 -127 32z" />
    <glyph glyph-name="uni1EAC" unicode="&#x1eac;" horiz-adv-x="1273" 
d="M647 1481l-76 67l283 226l229 -226l-92 -67l-153 151zM977 385h-582l-211 -385h-168l805 1432l436 -1432h-167zM936 528l-164 547l-299 -547h463zM500 -231q6 47 41 77q36 31 82 31q45 0 73 -31q27 -33 21 -77q-7 -50 -41 -78q-36 -31 -80 -31q-46 0 -74 31t-22 78z" />
    <glyph glyph-name="uni1EAD" unicode="&#x1ead;" horiz-adv-x="1077" 
d="M485 965l-75 67l282 225l230 -225l-93 -67l-153 151zM895 850h147l-104 -850h-147l14 119q-45 -51 -119 -96q-79 -48 -188 -48t-197 52q-90 50 -135 149t-27 250q15 143 88 246q69 97 170 149q101 49 209 49q82 0 137 -24q53 -23 88 -58q39 -39 50 -59zM606 739
q-108 0 -203 -80q-94 -76 -112 -233q-19 -140 45 -227q63 -93 192 -93q134 0 222 97q85 94 100 221q15 107 -21 180q-35 69 -96 103q-57 32 -127 32zM401 -231q6 47 41 77q36 31 82 31t74 -31q26 -32 20 -77q-7 -51 -40 -78q-36 -31 -80 -31q-46 0 -74 31q-29 32 -23 78z
" />
    <glyph glyph-name="uni1EAE" unicode="&#x1eae;" horiz-adv-x="1273" 
d="M1149 1974l-281 -250l-77 45l229 269zM705 1702q10 -52 30 -70q42 -39 99 -39q55 0 106 39q25 19 47 70h105q-10 -38 -31 -72q-6 -11 -16 -26t-11 -17q-6 -6 -6 -8q-30 -39 -78 -66q-46 -32 -131 -32t-125 32q-38 26 -59 66l-4 8q-3 4 -5.5 10.5t-6.5 16t-7 16.5
q-9 30 -12 72h105zM977 385h-582l-211 -385h-168l805 1432l436 -1432h-167zM936 528l-164 547l-299 -547h463z" />
    <glyph glyph-name="uni1EAF" unicode="&#x1eaf;" horiz-adv-x="1077" 
d="M987 1458l-280 -250l-78 45l229 269zM543 1186q10 -52 30 -70q42 -39 99 -39q55 0 106 39q24 16 47 70h105q-10 -38 -31 -72q-6 -11 -16 -26t-11 -17q-6 -6 -6 -8q-30 -39 -78 -66q-46 -32 -131 -32t-125 32q-38 26 -59 66l-4 8q-4 6 -16 43q-12 30 -15 72h105zM895 850
h147l-104 -850h-147l14 119q-45 -51 -119 -96q-79 -48 -188 -48t-197 52q-90 50 -135 149t-27 250q15 143 88 246q69 97 170 149q101 49 209 49q82 0 137 -24q53 -23 88 -58q39 -39 50 -59zM606 739q-108 0 -203 -80q-94 -76 -112 -233q-19 -140 45 -227q63 -93 192 -93
q134 0 222 97q85 94 100 221q15 107 -21 180q-35 69 -96 103q-57 32 -127 32z" />
    <glyph glyph-name="uni1EB0" unicode="&#x1eb0;" horiz-adv-x="1273" 
d="M616 2001l146 63l164 -268l-88 -45zM705 1702q10 -52 30 -70q42 -39 99 -39q55 0 106 39q25 19 47 70h105q-10 -38 -31 -72q-6 -11 -16 -26t-11 -17q-6 -6 -6 -8q-30 -39 -78 -66q-46 -32 -131 -32t-125 32q-38 26 -59 66l-4 8q-3 4 -5.5 10.5t-6.5 16t-7 16.5
q-9 30 -12 72h105zM977 385h-582l-211 -385h-168l805 1432l436 -1432h-167zM936 528l-164 547l-299 -547h463z" />
    <glyph glyph-name="uni1EB1" unicode="&#x1eb1;" horiz-adv-x="1077" 
d="M455 1485l145 63l164 -268l-88 -45zM543 1186q10 -52 30 -70q42 -39 99 -39q55 0 106 39q24 16 47 70h105q-10 -38 -31 -72q-6 -11 -16 -26t-11 -17q-6 -6 -6 -8q-30 -39 -78 -66q-46 -32 -131 -32t-125 32q-38 26 -59 66l-4 8q-4 6 -16 43q-12 30 -15 72h105zM895 850
h147l-104 -850h-147l14 119q-45 -51 -119 -96q-79 -48 -188 -48t-197 52q-90 50 -135 149t-27 250q15 143 88 246q69 97 170 149q101 49 209 49q82 0 137 -24q53 -23 88 -58q39 -39 50 -59zM606 739q-108 0 -203 -80q-94 -76 -112 -233q-19 -140 45 -227q63 -93 192 -93
q134 0 222 97q85 94 100 221q15 107 -21 180q-35 69 -96 103q-57 32 -127 32z" />
    <glyph glyph-name="uni1EB2" unicode="&#x1eb2;" horiz-adv-x="1273" 
d="M766 1751q12 30 33 51q30 26 47 39q39 35 45 41q21 18 24 47q6 59 -45 62q-30 0 -57 -17q-26 -20 -59 -61l-72 45q77 127 207 127q70 0 117 -41q43 -40 34 -102q-3 -44 -32 -76q-24 -31 -64 -62q-48 -39 -78 -82zM705 1702q10 -52 30 -70q42 -39 99 -39q55 0 106 39
q25 19 47 70h105q-10 -38 -31 -72q-6 -11 -16 -26t-11 -17q-6 -6 -6 -8q-30 -39 -78 -66q-46 -32 -131 -32t-125 32q-38 26 -59 66l-4 8q-3 4 -5.5 10.5t-6.5 16t-7 16.5q-9 30 -12 72h105zM977 385h-582l-211 -385h-168l805 1432l436 -1432h-167zM936 528l-164 547
l-299 -547h463z" />
    <glyph glyph-name="uni1EB3" unicode="&#x1eb3;" horiz-adv-x="1077" 
d="M604 1235q12 30 33 51q30 26 47 39q39 34 45 41q22 19 25 47q6 59 -45 62q-27 0 -58 -17q-26 -20 -59 -61l-72 45q80 127 207 127q70 0 117 -41q44 -41 35 -103q-3 -42 -33 -75q-24 -31 -64 -62q-46 -37 -77 -82zM543 1186q10 -52 30 -70q42 -39 99 -39q55 0 106 39
q24 16 47 70h105q-10 -38 -31 -72q-6 -11 -16 -26t-11 -17q-6 -6 -6 -8q-30 -39 -78 -66q-46 -32 -131 -32t-125 32q-38 26 -59 66l-4 8q-4 6 -16 43q-12 30 -15 72h105zM895 850h147l-104 -850h-147l14 119q-45 -51 -119 -96q-79 -48 -188 -48t-197 52q-90 50 -135 149
t-27 250q15 143 88 246q69 97 170 149q101 49 209 49q82 0 137 -24q53 -23 88 -58q39 -39 50 -59zM606 739q-108 0 -203 -80q-94 -76 -112 -233q-19 -140 45 -227q63 -93 192 -93q134 0 222 97q85 94 100 221q15 107 -21 180q-35 69 -96 103q-57 32 -127 32z" />
    </font>
</defs>
</svg>
