<svg width="20" height="20" viewBox="0 0 20 20" fill="none" xmlns="http://www.w3.org/2000/svg">
<path d="M5 3.25H15V1.75H5V3.25ZM17.5833 5.83333V14.1667H19.0833V5.83333H17.5833ZM15 16.75H5V18.25H15V16.75ZM2.41667 14.1667V5.83333H0.916667V14.1667H2.41667ZM5 16.75C3.57326 16.75 2.41667 15.5934 2.41667 14.1667H0.916667C0.916667 16.4218 2.74484 18.25 5 18.25V16.75ZM17.5833 14.1667C17.5833 15.5934 16.4267 16.75 15 16.75V18.25C17.2552 18.25 19.0833 16.4218 19.0833 14.1667H17.5833ZM15 3.25C16.4267 3.25 17.5833 4.4066 17.5833 5.83333H19.0833C19.0833 3.57817 17.2552 1.75 15 1.75V3.25ZM5 1.75C2.74484 1.75 0.916667 3.57817 0.916667 5.83333H2.41667C2.41667 4.4066 3.57326 3.25 5 3.25V1.75Z" fill="#852221"/>
<path d="M1.66667 5.83331V5.08331C1.25245 5.08331 0.916667 5.4191 0.916667 5.83331H1.66667ZM18.3333 5.83331H19.0833C19.0833 5.4191 18.7475 5.08331 18.3333 5.08331V5.83331ZM18.3333 9.16665V9.91665C18.7475 9.91665 19.0833 9.58086 19.0833 9.16665H18.3333ZM1.66667 9.16665H0.916667C0.916667 9.58086 1.25245 9.91665 1.66667 9.91665L1.66667 9.16665ZM1.66667 6.58331H18.3333V5.08331H1.66667V6.58331ZM17.5833 5.83331V9.16665H19.0833V5.83331H17.5833ZM18.3333 8.41665H1.66667V9.91665H18.3333V8.41665ZM2.41667 9.16665V5.83331H0.916667V9.16665H2.41667Z" fill="#852221"/>
<path d="M6.66667 14.9167C7.08088 14.9167 7.41667 14.5809 7.41667 14.1667C7.41667 13.7525 7.08088 13.4167 6.66667 13.4167V14.9167ZM5 13.4167C4.58579 13.4167 4.25 13.7525 4.25 14.1667C4.25 14.5809 4.58579 14.9167 5 14.9167V13.4167ZM6.66667 13.4167H5V14.9167H6.66667V13.4167Z" fill="#852221"/>
</svg>
