<svg width="16" height="14" viewBox="0 0 16 14" fill="none" xmlns="http://www.w3.org/2000/svg">
<path fill-rule="evenodd" clip-rule="evenodd" d="M0.333344 1.66669C0.333344 1.1144 0.781059 0.666687 1.33334 0.666687H8.00001C8.5523 0.666687 9.00001 1.1144 9.00001 1.66669C9.00001 2.21897 8.5523 2.66669 8.00001 2.66669H1.33334C0.781059 2.66669 0.333344 2.21897 0.333344 1.66669ZM0.333344 7.00002C0.333344 6.44774 0.781059 6.00002 1.33334 6.00002H14.6667C15.219 6.00002 15.6667 6.44774 15.6667 7.00002C15.6667 7.5523 15.219 8.00002 14.6667 8.00002H1.33334C0.781059 8.00002 0.333344 7.5523 0.333344 7.00002ZM8.00001 11.3334C7.44773 11.3334 7.00001 11.7811 7.00001 12.3334C7.00001 12.8856 7.44773 13.3334 8.00001 13.3334H14.6667C15.219 13.3334 15.6667 12.8856 15.6667 12.3334C15.6667 11.7811 15.219 11.3334 14.6667 11.3334H8.00001Z" fill="white"/>
</svg>
