<svg width="20" height="20" viewBox="0 0 20 20" fill="none" xmlns="http://www.w3.org/2000/svg">
<path d="M14.0833 1.66666C14.0833 1.25244 13.7475 0.916656 13.3333 0.916656C12.9191 0.916656 12.5833 1.25244 12.5833 1.66666H14.0833ZM12.5833 4.16666C12.5833 4.58087 12.9191 4.91666 13.3333 4.91666C13.7475 4.91666 14.0833 4.58087 14.0833 4.16666H12.5833ZM7.41667 1.66666C7.41667 1.25244 7.08088 0.916656 6.66667 0.916656C6.25245 0.916656 5.91667 1.25244 5.91667 1.66666H7.41667ZM5.91667 4.16666C5.91667 4.58087 6.25245 4.91666 6.66667 4.91666C7.08088 4.91666 7.41667 4.58087 7.41667 4.16666H5.91667ZM5.83333 3.66666H14.1667V2.16666H5.83333V3.66666ZM14.1667 17.5833H5.83333V19.0833H14.1667V17.5833ZM3.25 15V7.49999H1.75V15H3.25ZM3.25 7.49999V6.24999H1.75V7.49999H3.25ZM16.75 6.24999V7.49999H18.25V6.24999H16.75ZM16.75 7.49999V15H18.25V7.49999H16.75ZM5.83333 17.5833C4.4066 17.5833 3.25 16.4267 3.25 15H1.75C1.75 17.2552 3.57817 19.0833 5.83333 19.0833V17.5833ZM14.1667 19.0833C16.4218 19.0833 18.25 17.2552 18.25 15H16.75C16.75 16.4267 15.5934 17.5833 14.1667 17.5833V19.0833ZM14.1667 3.66666C15.5934 3.66666 16.75 4.82325 16.75 6.24999H18.25C18.25 3.99483 16.4218 2.16666 14.1667 2.16666V3.66666ZM5.83333 2.16666C3.57817 2.16666 1.75 3.99483 1.75 6.24999H3.25C3.25 4.82325 4.4066 3.66666 5.83333 3.66666V2.16666ZM2.5 8.24999H17.5V6.74999H2.5V8.24999ZM12.5833 1.66666V4.16666H14.0833V1.66666H12.5833ZM5.91667 1.66666V4.16666H7.41667V1.66666H5.91667Z" fill="#5E5E5E"/>
</svg>
