<svg width="18" height="18" viewBox="0 0 18 18" fill="none" xmlns="http://www.w3.org/2000/svg">
<path d="M0.75 9C0.75 9.41421 1.08579 9.75 1.5 9.75C1.91421 9.75 2.25 9.41421 2.25 9H0.75ZM6 15C5.58579 15 5.25 15.3358 5.25 15.75C5.25 16.1642 5.58579 16.5 6 16.5V15ZM4.91603 5.37596C4.57138 5.1462 4.10573 5.23933 3.87596 5.58397C3.6462 5.92862 3.73933 6.39427 4.08397 6.62404L4.91603 5.37596ZM7.3359 7.8906L7.75193 7.26656L7.3359 7.8906ZM10.6641 7.8906L10.2481 7.26656L10.6641 7.8906ZM13.916 6.62404C14.2607 6.39427 14.3538 5.92862 14.124 5.58397C13.8943 5.23933 13.4286 5.1462 13.084 5.37596L13.916 6.62404ZM1.5 10.5C1.08579 10.5 0.75 10.8358 0.75 11.25C0.75 11.6642 1.08579 12 1.5 12V10.5ZM6 12C6.41421 12 6.75 11.6642 6.75 11.25C6.75 10.8358 6.41421 10.5 6 10.5V12ZM1.5 12.75C1.08579 12.75 0.75 13.0858 0.75 13.5C0.75 13.9142 1.08579 14.25 1.5 14.25V12.75ZM6 14.25C6.41421 14.25 6.75 13.9142 6.75 13.5C6.75 13.0858 6.41421 12.75 6 12.75V14.25ZM4.5 3H13.5V1.5H4.5V3ZM15.75 5.25V12.75H17.25V5.25H15.75ZM2.25 9V5.25H0.75V9H2.25ZM13.5 15H6V16.5H13.5V15ZM15.75 12.75C15.75 13.9926 14.7426 15 13.5 15V16.5C15.5711 16.5 17.25 14.8211 17.25 12.75H15.75ZM13.5 3C14.7426 3 15.75 4.00736 15.75 5.25H17.25C17.25 3.17893 15.5711 1.5 13.5 1.5V3ZM4.5 1.5C2.42893 1.5 0.75 3.17893 0.75 5.25H2.25C2.25 4.00736 3.25736 3 4.5 3V1.5ZM4.08397 6.62404L6.91988 8.51464L7.75193 7.26656L4.91603 5.37596L4.08397 6.62404ZM11.0801 8.51464L13.916 6.62404L13.084 5.37596L10.2481 7.26656L11.0801 8.51464ZM6.91988 8.51464C8.1795 9.35439 9.8205 9.35439 11.0801 8.51464L10.2481 7.26656C9.4923 7.77041 8.5077 7.77041 7.75193 7.26656L6.91988 8.51464ZM1.5 12H6V10.5H1.5V12ZM1.5 14.25H6V12.75H1.5V14.25Z" fill="#5E5E5E"/>
</svg>
