<svg width="21" height="20" viewBox="0 0 21 20" fill="none" xmlns="http://www.w3.org/2000/svg">
<path d="M4.5934 10.9178L4.03835 11.4222L4.5934 10.9178ZM4.5934 9.08225L4.03835 8.57785L4.5934 9.08225ZM16.4063 10.9178L16.9613 11.4222L16.4063 10.9178ZM16.4063 9.08225L16.9613 8.57785L16.4063 9.08225ZM1.4165 6.66667C1.4165 7.08088 1.75229 7.41667 2.1665 7.41667C2.58072 7.41667 2.9165 7.08088 2.9165 6.66667H1.4165ZM7.1665 2.41667C7.58072 2.41667 7.9165 2.08088 7.9165 1.66667C7.9165 1.25245 7.58072 0.916668 7.1665 0.916668V2.41667ZM13.8332 0.916668C13.419 0.916668 13.0832 1.25245 13.0832 1.66667C13.0832 2.08088 13.419 2.41667 13.8332 2.41667V0.916668ZM18.0832 6.66667C18.0832 7.08088 18.419 7.41667 18.8332 7.41667C19.2474 7.41667 19.5832 7.08088 19.5832 6.66667H18.0832ZM19.5832 13.3333C19.5832 12.9191 19.2474 12.5833 18.8332 12.5833C18.419 12.5833 18.0832 12.9191 18.0832 13.3333H19.5832ZM13.8332 17.5833C13.419 17.5833 13.0832 17.9191 13.0832 18.3333C13.0832 18.7475 13.419 19.0833 13.8332 19.0833V17.5833ZM7.1665 19.0833C7.58072 19.0833 7.9165 18.7475 7.9165 18.3333C7.9165 17.9191 7.58072 17.5833 7.1665 17.5833V19.0833ZM2.9165 13.7963C2.9165 13.3821 2.58072 13.0463 2.1665 13.0463C1.75229 13.0463 1.4165 13.3821 1.4165 13.7963H2.9165ZM15.8512 10.4134C15.3189 10.9991 14.5324 11.7614 13.5889 12.3729C12.642 12.9866 11.5862 13.4167 10.4998 13.4167V14.9167C11.9784 14.9167 13.3184 14.3357 14.4047 13.6317C15.4945 12.9254 16.3787 12.0632 16.9613 11.4222L15.8512 10.4134ZM10.4998 13.4167C9.41346 13.4167 8.35769 12.9866 7.41076 12.3729C6.46726 11.7614 5.68077 10.9991 5.14845 10.4134L4.03835 11.4222C4.62094 12.0632 5.50521 12.9254 6.59497 13.6317C7.68131 14.3357 9.02129 14.9167 10.4998 14.9167V13.4167ZM5.14844 9.58665C5.68077 9.00088 6.46726 8.23858 7.41076 7.6271C8.35769 7.01341 9.41346 6.58333 10.4998 6.58333V5.08333C9.02129 5.08333 7.68131 5.66429 6.59497 6.36834C5.50521 7.0746 4.62094 7.93676 4.03835 8.57785L5.14844 9.58665ZM10.4998 6.58333C11.5862 6.58333 12.642 7.01341 13.5889 7.6271C14.5324 8.23858 15.3189 9.00088 15.8512 9.58665L16.9613 8.57785C16.3787 7.93676 15.4945 7.0746 14.4047 6.36834C13.3184 5.66429 11.9784 5.08333 10.4998 5.08333V6.58333ZM5.14845 10.4134C4.92832 10.1711 4.92832 9.82888 5.14844 9.58665L4.03835 8.57785C3.29835 9.39215 3.29835 10.6079 4.03835 11.4222L5.14845 10.4134ZM16.9613 11.4222C17.7013 10.6079 17.7013 9.39215 16.9613 8.57785L15.8512 9.58665C16.0714 9.82888 16.0714 10.1711 15.8512 10.4134L16.9613 11.4222ZM11.4165 10C11.4165 10.5063 11.0061 10.9167 10.4998 10.9167V12.4167C11.8345 12.4167 12.9165 11.3347 12.9165 10H11.4165ZM10.4998 10.9167C9.99358 10.9167 9.58317 10.5063 9.58317 10H8.08317C8.08317 11.3347 9.16515 12.4167 10.4998 12.4167V10.9167ZM9.58317 10C9.58317 9.49374 9.99358 9.08333 10.4998 9.08333V7.58333C9.16515 7.58333 8.08317 8.66531 8.08317 10H9.58317ZM10.4998 9.08333C11.0061 9.08333 11.4165 9.49374 11.4165 10H12.9165C12.9165 8.66531 11.8345 7.58333 10.4998 7.58333V9.08333ZM2.9165 6.66667V5H1.4165V6.66667H2.9165ZM5.49984 2.41667H7.1665V0.916668H5.49984V2.41667ZM13.8332 2.41667H15.4998V0.916668H13.8332V2.41667ZM18.0832 5V6.66667H19.5832V5H18.0832ZM18.0832 13.3333V15H19.5832V13.3333H18.0832ZM15.4998 17.5833H13.8332V19.0833H15.4998V17.5833ZM7.1665 17.5833H5.49984V19.0833H7.1665V17.5833ZM2.9165 15V13.7963H1.4165V15H2.9165ZM5.49984 17.5833C4.0731 17.5833 2.9165 16.4267 2.9165 15H1.4165C1.4165 17.2552 3.24467 19.0833 5.49984 19.0833V17.5833ZM18.0832 15C18.0832 16.4267 16.9266 17.5833 15.4998 17.5833V19.0833C17.755 19.0833 19.5832 17.2552 19.5832 15H18.0832ZM15.4998 2.41667C16.9266 2.41667 18.0832 3.57327 18.0832 5H19.5832C19.5832 2.74484 17.755 0.916668 15.4998 0.916668V2.41667ZM2.9165 5C2.9165 3.57327 4.0731 2.41667 5.49984 2.41667V0.916668C3.24467 0.916668 1.4165 2.74484 1.4165 5H2.9165Z" fill="#8D8D8D"/>
</svg>
