<svg width="20" height="14" viewBox="0 0 20 14" fill="none" xmlns="http://www.w3.org/2000/svg">
<path d="M17.6087 5.21087C18.575 6.2276 18.575 7.77232 17.6087 8.78904C15.9788 10.5038 13.1797 12.8333 10.0001 12.8333C6.82049 12.8333 4.02133 10.5038 2.3915 8.78904C1.42516 7.77232 1.42516 6.2276 2.3915 5.21087C4.02132 3.49607 6.82049 1.16663 10.0001 1.16663C13.1797 1.16663 15.9788 3.49607 17.6087 5.21087Z" stroke="#5E5E5E" stroke-width="1.5"/>
<path d="M12.5001 6.99996C12.5001 8.38067 11.3808 9.49996 10.0001 9.49996C8.61937 9.49996 7.50008 8.38067 7.50008 6.99996C7.50008 5.61925 8.61937 4.49996 10.0001 4.49996C11.3808 4.49996 12.5001 5.61925 12.5001 6.99996Z" stroke="#5E5E5E" stroke-width="1.5"/>
</svg>
