<svg width="50" height="50" viewBox="0 0 50 50" fill="none" xmlns="http://www.w3.org/2000/svg">
<path d="M45.625 11.875H4.375C2.30393 11.875 0.625 13.5539 0.625 15.625V45.625C0.625 47.6961 2.30393 49.375 4.375 49.375H45.625C47.6961 49.375 49.375 47.6961 49.375 45.625V15.625C49.375 13.5539 47.6961 11.875 45.625 11.875Z" fill="#D6E6D0"/>
<path d="M0.625 21.25H49.375V25H0.625V21.25Z" fill="#4C5960"/>
<path d="M25 23.125C31.2132 23.125 36.25 18.0882 36.25 11.875C36.25 5.6618 31.2132 0.625 25 0.625C18.7868 0.625 13.75 5.6618 13.75 11.875C13.75 18.0882 18.7868 23.125 25 23.125Z" fill="#5C9A45"/>
<path d="M22.7742 19L22.6917 18.8556C21.4313 16.6506 18.0821 11.9711 18.0483 11.924L18 11.8567L19.141 10.6987L22.753 13.2886C25.0272 10.2582 27.1488 8.17679 28.5327 6.96133C30.0466 5.63174 31.0321 5.01964 31.0421 5.01377L31.0645 5H33L32.8151 5.16908C28.0601 9.51815 22.9062 18.7617 22.8549 18.8545L22.7742 19Z" fill="white"/>
<path d="M19.375 40H8.125C7.62772 40 7.15081 39.8025 6.79918 39.4508C6.44754 39.0992 6.25 38.6223 6.25 38.125C6.25 37.6277 6.44754 37.1508 6.79918 36.7992C7.15081 36.4475 7.62772 36.25 8.125 36.25H19.375C19.8723 36.25 20.3492 36.4475 20.7008 36.7992C21.0525 37.1508 21.25 37.6277 21.25 38.125C21.25 38.6223 21.0525 39.0992 20.7008 39.4508C20.3492 39.8025 19.8723 40 19.375 40Z" fill="#4C5960"/>
<path d="M41.875 40H40C39.5027 40 39.0258 39.8025 38.6742 39.4508C38.3225 39.0992 38.125 38.6223 38.125 38.125C38.125 37.6277 38.3225 37.1508 38.6742 36.7992C39.0258 36.4475 39.5027 36.25 40 36.25H41.875C42.3723 36.25 42.8492 36.4475 43.2008 36.7992C43.5525 37.1508 43.75 37.6277 43.75 38.125C43.75 38.6223 43.5525 39.0992 43.2008 39.4508C42.8492 39.8025 42.3723 40 41.875 40Z" fill="#F14E41"/>
<path d="M34.375 40H32.5C32.0027 40 31.5258 39.8025 31.1742 39.4508C30.8225 39.0992 30.625 38.6223 30.625 38.125C30.625 37.6277 30.8225 37.1508 31.1742 36.7992C31.5258 36.4475 32.0027 36.25 32.5 36.25H34.375C34.8723 36.25 35.3492 36.4475 35.7008 36.7992C36.0525 37.1508 36.25 37.6277 36.25 38.125C36.25 38.6223 36.0525 39.0992 35.7008 39.4508C35.3492 39.8025 34.8723 40 34.375 40Z" fill="#F14E41"/>
</svg>
