<svg width="24" height="25" viewBox="0 0 24 25" fill="none" xmlns="http://www.w3.org/2000/svg">
<path fill-rule="evenodd" clip-rule="evenodd" d="M7.49715 4.18712C7.87667 4.02116 8.04979 3.57897 7.88383 3.19945C7.71787 2.81994 7.27568 2.64682 6.89617 2.81277C4.63941 3.79963 2.72454 5.42017 1.37553 7.4491C1.14619 7.79403 1.2399 8.25957 1.58482 8.48891C1.92975 8.71825 2.39529 8.62454 2.62463 8.27961C3.81588 6.48796 5.50681 5.05748 7.49715 4.18712ZM17.104 2.81277C16.7245 2.64682 16.2823 2.81994 16.1163 3.19945C15.9504 3.57897 16.1235 4.02116 16.503 4.18712C18.4934 5.05748 20.1843 6.48796 21.3755 8.27961C21.6049 8.62454 22.0704 8.71824 22.4153 8.4889C22.7603 8.25957 22.854 7.79403 22.6246 7.4491C21.2756 5.42017 19.3607 3.79963 17.104 2.81277ZM18.9916 19.1678C20.2475 17.6205 21.0001 15.6481 21.0001 13.5C21.0001 8.52944 16.9707 4.5 12.0001 4.5C7.02956 4.5 3.00012 8.52944 3.00012 13.5C3.00012 15.6481 3.75269 17.6204 5.00856 19.1677L3.34594 22.1331C3.14337 22.4944 3.27204 22.9515 3.63334 23.1541C3.99464 23.3567 4.45175 23.228 4.65432 22.8667L6.09693 20.2937C7.67715 21.668 9.74147 22.5 12.0001 22.5C14.2587 22.5 16.323 21.668 17.9033 20.2938L19.346 22.8667C19.5485 23.228 20.0056 23.3567 20.3669 23.1541C20.7282 22.9515 20.8569 22.4944 20.6543 22.1331L18.9916 19.1678ZM12.0001 7.75C12.4143 7.75 12.7501 8.08579 12.7501 8.5V13.0986L15.4161 14.876C15.7608 15.1057 15.8539 15.5714 15.6242 15.916C15.3944 16.2607 14.9287 16.3538 14.5841 16.124L11.5841 14.124C11.3754 13.9849 11.2501 13.7508 11.2501 13.5V8.5C11.2501 8.08579 11.5859 7.75 12.0001 7.75Z" fill="#5E5E5E"/>
</svg>
