<svg width="20" height="20" viewBox="0 0 20 20" fill="none" xmlns="http://www.w3.org/2000/svg">
<path d="M15 12.5H10V5.83335H15M15 12.5C15.9205 12.5 16.6667 11.7538 16.6667 10.8334V7.50002C16.6667 6.57955 15.9205 5.83335 15 5.83335M15 12.5V16.6667C15 17.5872 14.2538 18.3334 13.3333 18.3334H6.66667C5.74619 18.3334 5 17.5872 5 16.6667V3.33335C5 2.41288 5.74619 1.66669 6.66667 1.66669H13.3333C14.2538 1.66669 15 2.41288 15 3.33335V5.83335" stroke="#1AA57B" stroke-width="1.5" stroke-linejoin="round"/>
<path d="M10.8333 15.8333C10.8333 16.2936 10.4602 16.6667 10 16.6667C9.53976 16.6667 9.16667 16.2936 9.16667 15.8333C9.16667 15.3731 9.53976 15 10 15C10.4602 15 10.8333 15.3731 10.8333 15.8333Z" fill="#1AA57B"/>
<path d="M16.6667 8.33331L10 8.33331" stroke="#1AA57B" stroke-width="1.5" stroke-linecap="round" stroke-linejoin="round"/>
</svg>
