<svg width="20" height="20" viewBox="0 0 20 20" fill="none" xmlns="http://www.w3.org/2000/svg">
<path d="M3.86038 11.7522L4.57189 11.9893L3.86038 11.7522ZM16.1396 11.7522L15.4281 11.9893L16.1396 11.7522ZM4.69371 9.25217L3.9822 9.015L4.69371 9.25217ZM9.43713 6.58331H10.5629V5.08331H9.43713V6.58331ZM14.5948 9.48935L15.4281 11.9893L16.8511 11.515L16.0178 9.015L14.5948 9.48935ZM11.3962 17.5833H8.6038V19.0833H11.3962V17.5833ZM4.57189 11.9893L5.40523 9.48934L3.9822 9.015L3.14887 11.515L4.57189 11.9893ZM8.6038 17.5833C5.70293 17.5833 3.65456 14.7414 4.57189 11.9893L3.14887 11.515C1.90777 15.2383 4.67909 19.0833 8.6038 19.0833V17.5833ZM15.4281 11.9893C16.3454 14.7414 14.2971 17.5833 11.3962 17.5833V19.0833C15.3209 19.0833 18.0922 15.2383 16.8511 11.515L15.4281 11.9893ZM10.5629 6.58331C12.3922 6.58331 14.0163 7.75389 14.5948 9.48935L16.0178 9.015C15.2351 6.66704 13.0378 5.08331 10.5629 5.08331V6.58331ZM9.43713 5.08331C6.96216 5.08331 4.76486 6.66703 3.9822 9.015L5.40523 9.48934C5.98371 7.75389 7.6078 6.58331 9.43713 6.58331V5.08331Z" fill="#F9B217"/>
<path d="M7.87783 14.3521C7.52002 14.1435 7.06079 14.2644 6.85212 14.6222C6.64345 14.98 6.76436 15.4392 7.12217 15.6479L7.87783 14.3521ZM12.864 15.6558C13.2261 15.4547 13.3568 14.9982 13.1558 14.636C12.9547 14.2739 12.4982 14.1432 12.136 14.3442L12.864 15.6558ZM7.12217 15.6479C8.10584 16.2215 8.98785 16.5771 9.94452 16.581C10.8975 16.5849 11.8128 16.2392 12.864 15.6558L12.136 14.3442C11.1687 14.8811 10.5234 15.0833 9.95061 15.081C9.38157 15.0787 8.77281 14.8741 7.87783 14.3521L7.12217 15.6479Z" fill="#F9B217"/>
<path d="M11.7382 5.83335V6.58335C11.955 6.58335 12.1611 6.48959 12.3036 6.32622L11.7382 5.83335ZM8.26176 5.83335L7.69644 6.32622C7.83887 6.48959 8.04502 6.58335 8.26176 6.58335L8.26176 5.83335ZM9.72903 2.00764L9.95929 1.29386V1.29386L9.72903 2.00764ZM10.271 2.00764L10.0407 1.29386L10.271 2.00764ZM12.9058 4.49415L12.3405 4.00129L12.3405 4.00129L12.9058 4.49415ZM11.0441 1.75823L10.8138 1.04445L11.0441 1.75823ZM7.09419 4.49415L6.52887 4.98702H6.52887L7.09419 4.49415ZM8.95589 1.75823L8.72563 2.47201H8.72563L8.95589 1.75823ZM11.7382 5.08335L8.26176 5.08335L8.26176 6.58335L11.7382 6.58335V5.08335ZM8.82708 5.34049L7.65951 4.00129L6.52887 4.98702L7.69644 6.32622L8.82708 5.34049ZM12.3405 4.00129L11.1729 5.34049L12.3036 6.32622L13.4711 4.98702L12.3405 4.00129ZM8.72563 2.47201L9.49877 2.72142L9.95929 1.29386L9.18615 1.04445L8.72563 2.47201ZM10.5012 2.72142L11.2744 2.47201L10.8138 1.04445L10.0407 1.29386L10.5012 2.72142ZM9.49877 2.72142C9.82451 2.8265 10.1755 2.8265 10.5012 2.72142L10.0407 1.29386C10.0144 1.30235 9.98561 1.30235 9.95929 1.29386L9.49877 2.72142ZM13.4711 4.98702C15.151 3.06025 13.1563 0.288782 10.8138 1.04445L11.2744 2.47201C12.2739 2.14955 12.9497 3.3025 12.3405 4.00129L13.4711 4.98702ZM7.65951 4.00129C7.05028 3.3025 7.72607 2.14955 8.72563 2.47201L9.18615 1.04445C6.84368 0.288782 4.84904 3.06025 6.52887 4.98702L7.65951 4.00129Z" fill="#F9B217"/>
</svg>
