<svg width="32" height="32" viewBox="0 0 32 32" fill="none" xmlns="http://www.w3.org/2000/svg">
<path d="M5.94067 18.5067L5.17858 17.8593H5.17858L5.94067 18.5067ZM7.11302 15.7847L8.10667 15.8972L7.11302 15.7847ZM24.887 15.7847L25.8806 15.6721L24.887 15.7847ZM26.0594 18.5067L26.8214 17.8593L26.0594 18.5067ZM24.4272 11.7254L23.4335 11.8379V11.8379L24.4272 11.7254ZM7.57286 11.7254L6.57921 11.6128L7.57286 11.7254ZM24.2265 21.6667H7.77352V23.6667H24.2265V21.6667ZM23.4335 11.8379L23.8934 15.8972L25.8806 15.6721L25.4208 11.6128L23.4335 11.8379ZM8.10667 15.8972L8.5665 11.8379L6.57921 11.6128L6.11938 15.6721L8.10667 15.8972ZM6.70276 19.1542C7.48231 18.2367 7.97034 17.1006 8.10667 15.8972L6.11938 15.6721C6.02718 16.486 5.69761 17.2483 5.17858 17.8593L6.70276 19.1542ZM23.8934 15.8972C24.0297 17.1006 24.5177 18.2367 25.2973 19.1542L26.8214 17.8593C26.3024 17.2483 25.9728 16.486 25.8806 15.6721L23.8934 15.8972ZM7.77352 21.6667C6.59114 21.6667 5.83902 20.1708 6.70276 19.1542L5.17858 17.8593C3.28656 20.0862 4.77105 23.6667 7.77352 23.6667V21.6667ZM24.2265 23.6667C27.229 23.6667 28.7135 20.0862 26.8214 17.8593L25.2973 19.1542C26.161 20.1708 25.4089 21.6667 24.2265 21.6667V23.6667ZM25.4208 11.6128C24.8673 6.72631 20.8372 3 16 3V5C19.7737 5 22.9892 7.91597 23.4335 11.8379L25.4208 11.6128ZM8.5665 11.8379C9.01078 7.91597 12.2264 5 16 5V3C11.1628 3 7.13276 6.72631 6.57921 11.6128L8.5665 11.8379Z" fill="white"/>
<path d="M20.9364 25.6843C21.1302 25.1671 20.8681 24.5908 20.3509 24.3969C19.8338 24.2031 19.2574 24.4652 19.0636 24.9824L20.9364 25.6843ZM12.9364 24.9824C12.7426 24.4652 12.1662 24.2031 11.6491 24.3969C11.1319 24.5908 10.8698 25.1671 11.0636 25.6843L12.9364 24.9824ZM19.0636 24.9824C18.6333 26.1305 17.4461 27 16 27V29C18.2473 29 20.2022 27.6433 20.9364 25.6843L19.0636 24.9824ZM16 27C14.5539 27 13.3667 26.1305 12.9364 24.9824L11.0636 25.6843C11.7978 27.6433 13.7527 29 16 29V27Z" fill="white"/>
</svg>
