<svg width="60" height="60" viewBox="0 0 60 60" fill="none" xmlns="http://www.w3.org/2000/svg">
<path d="M50.625 16.875H9.375C7.30393 16.875 5.625 18.5539 5.625 20.625V50.625C5.625 52.6961 7.30393 54.375 9.375 54.375H50.625C52.6961 54.375 54.375 52.6961 54.375 50.625V20.625C54.375 18.5539 52.6961 16.875 50.625 16.875Z" fill="#EA2127" fill-opacity="0.15"/>
<path d="M5.625 26.25H54.375V30H5.625V26.25Z" fill="#4C5960"/>
<path d="M30 28.125C36.2132 28.125 41.25 23.0882 41.25 16.875C41.25 10.6618 36.2132 5.625 30 5.625C23.7868 5.625 18.75 10.6618 18.75 16.875C18.75 23.0882 23.7868 28.125 30 28.125Z" fill="#EA2127"/>
<path d="M35.5944 13.3636L31.9585 16.9999L35.5944 20.6361C36.1352 21.1771 36.1352 22.0535 35.5944 22.5946C35.3242 22.8648 34.9699 23 34.6158 23C34.2611 23 33.9068 22.865 33.6367 22.5946L30 18.958L26.3636 22.5945C26.0934 22.8647 25.7391 23 25.3846 23C25.0303 23 24.6763 22.865 24.4058 22.5945C23.865 22.0537 23.865 21.1773 24.4058 20.636L28.0417 16.9999L24.4056 13.3636C23.8648 12.8228 23.8648 11.9461 24.4056 11.4053C24.9463 10.8649 25.8224 10.8649 26.3634 11.4053L30 15.0416L33.6363 11.4053C34.1774 10.8649 35.0536 10.8649 35.5942 11.4053C36.1352 11.9461 36.1352 12.8228 35.5944 13.3636Z" fill="white"/>
<path d="M24.375 45H13.125C12.6277 45 12.1508 44.8025 11.7992 44.4508C11.4475 44.0992 11.25 43.6223 11.25 43.125C11.25 42.6277 11.4475 42.1508 11.7992 41.7992C12.1508 41.4475 12.6277 41.25 13.125 41.25H24.375C24.8723 41.25 25.3492 41.4475 25.7008 41.7992C26.0525 42.1508 26.25 42.6277 26.25 43.125C26.25 43.6223 26.0525 44.0992 25.7008 44.4508C25.3492 44.8025 24.8723 45 24.375 45Z" fill="#4C5960"/>
<path d="M46.875 45H45C44.5027 45 44.0258 44.8025 43.6742 44.4508C43.3225 44.0992 43.125 43.6223 43.125 43.125C43.125 42.6277 43.3225 42.1508 43.6742 41.7992C44.0258 41.4475 44.5027 41.25 45 41.25H46.875C47.3723 41.25 47.8492 41.4475 48.2008 41.7992C48.5525 42.1508 48.75 42.6277 48.75 43.125C48.75 43.6223 48.5525 44.0992 48.2008 44.4508C47.8492 44.8025 47.3723 45 46.875 45Z" fill="#F14E41"/>
<path d="M39.375 45H37.5C37.0027 45 36.5258 44.8025 36.1742 44.4508C35.8225 44.0992 35.625 43.6223 35.625 43.125C35.625 42.6277 35.8225 42.1508 36.1742 41.7992C36.5258 41.4475 37.0027 41.25 37.5 41.25H39.375C39.8723 41.25 40.3492 41.4475 40.7008 41.7992C41.0525 42.1508 41.25 42.6277 41.25 43.125C41.25 43.6223 41.0525 44.0992 40.7008 44.4508C40.3492 44.8025 39.8723 45 39.375 45Z" fill="#F14E41"/>
</svg>
