<svg width="20" height="20" viewBox="0 0 20 20" fill="none" xmlns="http://www.w3.org/2000/svg">
<path fill-rule="evenodd" clip-rule="evenodd" d="M2.29167 9.58332C2.29167 13.6104 5.55626 16.875 9.58334 16.875C13.6104 16.875 16.875 13.6104 16.875 9.58332C16.875 5.55625 13.6104 2.29166 9.58334 2.29166C5.55626 2.29166 2.29167 5.55625 2.29167 9.58332ZM9.58334 18.125C4.8659 18.125 1.04167 14.3008 1.04167 9.58332C1.04167 4.86589 4.8659 1.04166 9.58334 1.04166C14.3008 1.04166 18.125 4.86589 18.125 9.58332C18.125 11.7171 17.3426 13.6681 16.0491 15.1652L18.7753 17.8914C19.0194 18.1355 19.0194 18.5312 18.7753 18.7753C18.5312 19.0193 18.1355 19.0193 17.8914 18.7753L15.1652 16.049C13.6681 17.3426 11.7171 18.125 9.58334 18.125Z" fill="#B3B3B3"/>
</svg>
