<svg width="19" height="18" viewBox="0 0 19 18" fill="none" xmlns="http://www.w3.org/2000/svg">
<path d="M5 3H14V1.5H5V3ZM16.25 5.25V12.75H17.75V5.25H16.25ZM14 15H5V16.5H14V15ZM2.75 12.75V5.25H1.25V12.75H2.75ZM5 15C3.75736 15 2.75 13.9926 2.75 12.75H1.25C1.25 14.8211 2.92893 16.5 5 16.5V15ZM16.25 12.75C16.25 13.9926 15.2426 15 14 15V16.5C16.0711 16.5 17.75 14.8211 17.75 12.75H16.25ZM14 3C15.2426 3 16.25 4.00736 16.25 5.25H17.75C17.75 3.17893 16.0711 1.5 14 1.5V3ZM5 1.5C2.92893 1.5 1.25 3.17893 1.25 5.25H2.75C2.75 4.00736 3.75736 3 5 3V1.5Z" fill="#2C2C2C"/>
<path d="M2 5.25V4.5C1.58579 4.5 1.25 4.83579 1.25 5.25H2ZM17 5.25H17.75C17.75 4.83579 17.4142 4.5 17 4.5V5.25ZM17 8.25V9C17.4142 9 17.75 8.66421 17.75 8.25H17ZM2 8.25H1.25C1.25 8.66421 1.58579 9 2 9V8.25ZM2 6H17V4.5H2V6ZM16.25 5.25V8.25H17.75V5.25H16.25ZM17 7.5H2V9H17V7.5ZM2.75 8.25V5.25H1.25V8.25H2.75Z" fill="#2C2C2C"/>
<path d="M6.5 13.5C6.91421 13.5 7.25 13.1642 7.25 12.75C7.25 12.3358 6.91421 12 6.5 12V13.5ZM5 12C4.58579 12 4.25 12.3358 4.25 12.75C4.25 13.1642 4.58579 13.5 5 13.5V12ZM6.5 12H5V13.5H6.5V12Z" fill="#2C2C2C"/>
</svg>
